<?xml version="1.0" standalone="no"?><!-- Generator: Gravit.io --><svg xmlns="http://www.w3.org/2000/svg" xmlns:xlink="http://www.w3.org/1999/xlink" style="isolation:isolate" viewBox="0 0 1920 1080" width="1920" height="1080"><defs><clipPath id="_clipPath_IiItUrPbUiUT3bADFHWNEcJP9eYpaTzc"><rect width="1920" height="1080"/></clipPath></defs><g clip-path="url(#_clipPath_IiItUrPbUiUT3bADFHWNEcJP9eYpaTzc)"><linearGradient id="_lgradient_1" x1="0.4999999999999999" y1="1" x2="0.49999999999999994" y2="0"><stop offset="0%" style="stop-color:#098400"/><stop offset="100%" style="stop-color:#47BD45"/></linearGradient><rect width="1920" height="1080" style="fill:url(#_lgradient_1);"/><g id="Group" style="opacity:0.46;"><path d=" M 1053.71 859.271 Q 1135.248 824.182 1183.768 827.262 C 1216.241 829.322 1238.003 853.419 1271.002 851.269 C 1310.036 848.725 1324.013 807.314 1362.995 804.588 Q 1397.292 802.19 1453.401 829.929 Q 1501.01 760.165 1518.43 719.229 C 1551.054 642.565 1550.961 572.075 1553.323 491.161 C 1554.885 437.661 1555.039 392.076 1545.393 339.115 Q 1538.1 299.072 1513.672 227.081 Q 1436.231 195.398 1391.544 184.402 C 1323.9 167.756 1257.13 191.687 1193.285 164.396 Q 1157.678 149.175 1104.465 105.711 L 1107.637 55.029 L 2000.596 60.364 Q 2002.988 111.165 1987.908 135.053 C 1959.214 180.506 1896.331 180.686 1840.403 191.07 C 1799.891 198.592 1762.811 187.126 1723.033 197.739 Q 1698.715 204.228 1658.004 224.414 Q 1634.287 300.002 1626.283 341.782 C 1615.871 396.135 1614.57 442.868 1612.008 497.829 C 1608.492 573.259 1600.762 637.806 1615.18 712.56 Q 1623.848 757.497 1653.246 837.931 Q 1730.034 860.446 1772.202 852.602 C 1799.714 847.485 1815.355 826.188 1843.575 823.26 C 1887.398 818.714 1912.711 855.635 1954.6 861.939 C 1994.39 867.927 2029.295 851.392 2068.797 859.271 Q 2098.836 865.263 2148.101 889.947 L 2149.687 1020.653 L 1029.919 1028.655 L 1053.71 859.271 Z " fill="rgb(0,111,29)"/><path d=" M 1502.569 873.942 Q 1584.106 838.854 1632.627 841.933 C 1665.099 843.993 1686.862 868.09 1719.861 865.94 C 1758.895 863.396 1772.871 821.985 1811.853 819.259 Q 1846.15 816.861 1902.26 844.6 Q 1949.868 774.836 1967.289 733.9 C 1999.912 657.236 1999.82 586.746 2002.182 505.832 C 2003.744 452.332 2003.898 406.747 1994.252 353.786 Q 1986.959 313.743 1962.53 241.752 Q 1885.09 210.069 1840.403 199.073 C 1772.759 182.427 1705.989 206.358 1642.144 179.067 Q 1606.537 163.846 1553.323 120.382 L 1556.496 69.701 L 2449.455 75.035 Q 2451.847 125.836 2436.766 149.725 C 2408.072 195.177 2345.189 195.357 2289.261 205.741 C 2248.749 213.264 2211.669 201.797 2171.892 212.41 Q 2147.573 218.899 2106.863 239.085 Q 2083.145 314.673 2075.142 356.453 C 2064.729 410.806 2063.429 457.539 2060.867 512.5 C 2057.351 587.93 2049.621 652.477 2064.039 727.231 Q 2072.706 772.168 2102.105 852.603 Q 2178.892 875.117 2221.06 867.274 C 2248.573 862.156 2264.214 840.859 2292.434 837.931 C 2336.256 833.385 2361.57 870.306 2403.459 876.61 C 2443.249 882.598 2478.154 866.063 2517.656 873.942 Q 2547.695 879.934 2596.96 904.618 L 2598.546 1035.324 L 1478.778 1043.327 L 1502.569 873.942 Z " fill="rgb(0,111,29)"/><path d=" M 2037.076 851.269 Q 2118.613 816.18 2167.134 819.259 C 2199.606 821.32 2221.368 845.417 2254.368 843.266 C 2293.402 840.723 2307.378 799.311 2346.36 796.586 Q 2380.657 794.188 2436.766 821.927 Q 2484.375 752.163 2501.795 711.227 C 2534.419 634.563 2534.327 564.073 2536.689 483.158 C 2538.251 429.658 2538.405 384.073 2528.759 331.112 Q 2521.465 291.07 2497.037 219.079 Q 2419.597 187.396 2374.909 176.399 C 2307.266 159.753 2240.495 183.684 2176.65 156.393 Q 2141.044 141.173 2087.83 97.709 L 2091.002 47.027 L 2983.962 52.362 Q 2986.354 103.162 2971.273 127.051 C 2942.579 172.504 2879.696 172.683 2823.768 183.068 C 2783.256 190.59 2746.176 179.123 2706.399 189.737 Q 2682.08 196.225 2641.37 216.411 Q 2617.652 292 2609.648 333.78 C 2599.236 388.133 2597.935 434.865 2595.374 489.827 C 2591.858 565.256 2584.127 629.804 2598.546 704.558 Q 2607.213 749.495 2636.612 829.929 Q 2713.399 852.443 2755.567 844.6 C 2783.079 839.483 2798.721 818.186 2826.94 815.258 C 2870.763 810.712 2896.077 847.632 2937.965 853.936 C 2977.755 859.924 3012.661 843.389 3052.163 851.269 Q 3082.202 857.261 3131.466 881.945 L 3133.052 1012.651 L 2013.285 1020.653 L 2037.076 851.269 Z " fill="rgb(0,111,29)"/><path d=" M 728.565 904.618 Q 810.103 869.529 858.623 872.609 C 891.096 874.669 912.858 898.766 945.857 896.616 C 984.891 894.072 998.868 852.661 1037.85 849.935 Q 1072.146 847.537 1128.256 875.276 Q 1175.865 805.512 1193.285 764.576 C 1225.909 687.912 1225.816 617.422 1228.178 536.507 C 1229.74 483.008 1229.894 437.423 1220.248 384.462 Q 1212.955 344.419 1188.527 272.428 Q 1111.086 240.745 1066.399 229.749 C 998.755 213.103 931.985 237.034 868.14 209.743 Q 832.533 194.522 779.32 151.058 L 782.492 100.376 L 1675.451 105.711 Q 1677.843 156.512 1662.763 180.4 C 1634.069 225.853 1571.186 226.033 1515.258 236.417 C 1474.746 243.939 1437.666 232.473 1397.888 243.086 Q 1373.57 249.575 1332.859 269.761 Q 1309.142 345.349 1301.138 387.129 C 1290.726 441.482 1289.425 488.215 1286.863 543.176 C 1283.347 618.606 1275.617 683.153 1290.035 757.907 Q 1298.703 802.844 1328.101 883.278 Q 1404.889 905.792 1447.057 897.949 C 1474.569 892.832 1490.21 871.535 1518.43 868.607 C 1562.252 864.061 1587.566 900.982 1629.455 907.286 C 1669.245 913.274 1704.15 896.739 1743.652 904.618 Q 1773.691 910.61 1822.956 935.294 L 1824.542 1066 L 704.774 1074.002 L 728.565 904.618 Z " fill="rgb(0,111,29)"/><path d=" M 2347.946 911.287 Q 2266.409 876.198 2217.888 879.277 C 2185.416 881.338 2163.654 905.435 2130.654 903.284 C 2091.62 900.741 2077.644 859.329 2038.662 856.604 Q 2004.365 854.206 1948.256 881.945 Q 1900.647 812.181 1883.227 771.245 C 1850.603 694.581 1850.695 624.091 1848.333 543.176 C 1846.771 489.676 1846.617 444.091 1856.264 391.13 Q 1863.557 351.088 1887.985 279.097 Q 1965.426 247.414 2010.113 236.417 C 2077.756 219.771 2144.527 243.702 2208.372 216.411 Q 2243.978 201.191 2297.192 157.727 L 2294.02 107.045 L 1401.06 112.38 Q 1398.668 163.18 1413.749 187.069 C 1442.443 232.522 1505.326 232.701 1561.254 243.086 C 1601.766 250.608 1638.846 239.141 1678.623 249.755 Q 1702.942 256.243 1743.652 276.429 Q 1767.37 352.018 1775.374 393.798 C 1785.786 448.151 1787.087 494.883 1789.648 549.845 C 1793.164 625.274 1800.895 689.822 1786.476 764.576 Q 1777.809 809.513 1748.411 889.947 Q 1671.623 912.461 1629.455 904.618 C 1601.943 899.501 1586.301 878.204 1558.082 875.276 C 1514.259 870.73 1488.945 907.65 1447.057 913.954 C 1407.267 919.942 1372.361 903.407 1332.859 911.287 Q 1302.82 917.279 1253.556 941.963 L 1251.97 1072.669 L 2371.737 1080.671 L 2347.946 911.287 Z " fill="rgb(0,111,29)"/><path d=" M 1832.472 884.612 Q 1914.01 849.523 1962.53 852.603 C 1995.003 854.663 2016.765 878.76 2049.764 876.61 C 2088.798 874.066 2102.775 832.655 2141.757 829.929 Q 2176.053 827.531 2232.163 855.27 Q 2279.772 785.506 2297.192 744.57 C 2329.816 667.906 2329.723 597.416 2332.085 516.501 C 2333.647 463.002 2333.801 417.417 2324.155 364.456 Q 2316.862 324.413 2292.434 252.422 Q 2214.993 220.739 2170.306 209.743 C 2102.662 193.097 2035.892 217.028 1972.047 189.737 Q 1936.44 174.516 1883.227 131.052 L 1886.399 80.37 L 2779.358 85.705 Q 2781.75 136.506 2766.67 160.394 C 2737.976 205.847 2675.093 206.027 2619.165 216.411 C 2578.653 223.933 2541.573 212.467 2501.795 223.08 Q 2477.477 229.569 2436.766 249.755 Q 2413.049 325.343 2405.045 367.123 C 2394.633 421.476 2393.332 468.209 2390.77 523.17 C 2387.254 598.6 2379.524 663.147 2393.942 737.901 Q 2402.61 782.838 2432.008 863.272 Q 2508.796 885.786 2550.964 877.943 C 2578.476 872.826 2594.117 851.529 2622.337 848.601 C 2666.159 844.055 2691.473 880.976 2733.362 887.28 C 2773.152 893.268 2808.057 876.733 2847.559 884.612 Q 2877.598 890.604 2926.863 915.288 L 2928.449 1045.994 L 1808.681 1053.996 L 1832.472 884.612 Z " fill="rgb(0,111,29)"/><path d=" M 3410.615 891.281 Q 3329.078 856.192 3280.557 859.271 C 3248.085 861.332 3226.323 885.429 3193.323 883.278 C 3154.289 880.735 3140.313 839.323 3101.331 836.598 Q 3067.034 834.2 3010.925 861.939 Q 2963.316 792.175 2945.896 751.239 C 2913.272 674.575 2913.364 604.085 2911.002 523.17 C 2909.441 469.67 2909.287 424.085 2918.933 371.124 Q 2926.226 331.082 2950.654 259.091 Q 3028.095 227.408 3072.782 216.411 C 3140.425 199.765 3207.196 223.696 3271.041 196.405 Q 3306.647 181.185 3359.861 137.721 L 3356.689 87.039 L 2463.73 92.374 Q 2461.337 143.174 2476.418 167.063 C 2505.112 212.516 2567.995 212.695 2623.923 223.08 C 2664.435 230.602 2701.515 219.135 2741.292 229.749 Q 2765.611 236.237 2806.321 256.423 Q 2830.039 332.012 2838.043 373.792 C 2848.455 428.145 2849.756 474.877 2852.318 529.839 C 2855.833 605.268 2863.564 669.816 2849.145 744.57 Q 2840.478 789.507 2811.08 869.941 Q 2734.292 892.455 2692.124 884.612 C 2664.612 879.495 2648.97 858.198 2620.751 855.27 C 2576.928 850.724 2551.614 887.644 2509.726 893.948 C 2469.936 899.936 2435.03 883.401 2395.528 891.281 Q 2365.489 897.273 2316.225 921.957 L 2314.639 1052.663 L 3434.406 1060.665 L 3410.615 891.281 Z " fill="rgb(0,111,29)"/><path d=" M -866.29 859.271 Q -784.752 824.182 -736.232 827.262 C -703.759 829.322 -681.997 853.419 -648.998 851.269 C -609.964 848.725 -595.987 807.314 -557.005 804.588 Q -522.708 802.19 -466.599 829.929 Q -418.99 760.165 -401.57 719.229 C -368.946 642.565 -369.039 572.075 -366.677 491.161 C -365.115 437.661 -364.961 392.076 -374.607 339.115 Q -381.9 299.072 -406.328 227.081 Q -483.769 195.398 -528.456 184.402 C -596.1 167.756 -662.87 191.687 -726.715 164.396 Q -762.322 149.175 -815.535 105.711 L -812.363 55.029 L 80.596 60.364 Q 82.988 111.165 67.908 135.053 C 39.214 180.506 -23.669 180.686 -79.597 191.07 C -120.109 198.592 -157.189 187.126 -196.967 197.739 Q -221.285 204.228 -261.996 224.414 Q -285.713 300.002 -293.717 341.782 C -304.129 396.135 -305.43 442.868 -307.992 497.829 C -311.508 573.259 -319.238 637.806 -304.82 712.56 Q -296.152 757.497 -266.754 837.931 Q -189.966 860.446 -147.798 852.602 C -120.286 847.485 -104.645 826.188 -76.425 823.26 C -32.602 818.714 -7.289 855.635 34.6 861.939 C 74.39 867.927 109.295 851.392 148.797 859.271 Q 178.836 865.263 228.101 889.947 L 229.687 1020.653 L -890.081 1028.655 L -866.29 859.271 Z " fill="rgb(0,111,29)"/><path d=" M -417.431 873.942 Q -335.894 838.854 -287.373 841.933 C -254.901 843.993 -233.138 868.09 -200.139 865.94 C -161.105 863.396 -147.129 821.985 -108.147 819.259 Q -73.85 816.861 -17.74 844.6 Q 29.868 774.836 47.289 733.9 C 79.912 657.236 79.82 586.746 82.182 505.832 C 83.744 452.332 83.898 406.747 74.252 353.786 Q 66.959 313.743 42.53 241.752 Q -34.91 210.069 -79.597 199.073 C -147.241 182.427 -214.011 206.358 -277.856 179.067 Q -313.463 163.846 -366.677 120.382 L -363.504 69.701 L 529.455 75.035 Q 531.847 125.836 516.766 149.725 C 488.072 195.177 425.189 195.357 369.261 205.741 C 328.749 213.264 291.669 201.797 251.892 212.41 Q 227.573 218.899 186.863 239.085 Q 163.145 314.673 155.142 356.453 C 144.729 410.806 143.429 457.539 140.867 512.5 C 137.351 587.93 129.621 652.477 144.039 727.231 Q 152.706 772.168 182.105 852.603 Q 258.892 875.117 301.06 867.274 C 328.573 862.156 344.214 840.859 372.434 837.931 C 416.256 833.385 441.57 870.306 483.459 876.61 C 523.249 882.598 558.154 866.063 597.656 873.942 Q 627.695 879.934 676.96 904.618 L 678.546 1035.324 L -441.222 1043.327 L -417.431 873.942 Z " fill="rgb(0,111,29)"/><path d=" M 117.076 851.269 Q 198.613 816.18 247.134 819.259 C 279.606 821.32 301.368 845.417 334.368 843.266 C 373.402 840.723 387.378 799.311 426.36 796.586 Q 460.657 794.188 516.766 821.927 Q 564.375 752.163 581.795 711.227 C 614.419 634.563 614.327 564.073 616.689 483.158 C 618.251 429.658 618.405 384.073 608.759 331.112 Q 601.465 291.07 577.037 219.079 Q 499.597 187.396 454.909 176.399 C 387.266 159.753 320.495 183.684 256.65 156.393 Q 221.044 141.173 167.83 97.709 L 171.002 47.027 L 1063.962 52.362 Q 1066.354 103.162 1051.273 127.051 C 1022.579 172.504 959.696 172.683 903.768 183.068 C 863.256 190.59 826.176 179.123 786.399 189.737 Q 762.08 196.225 721.37 216.411 Q 697.652 292 689.648 333.78 C 679.236 388.133 677.935 434.865 675.374 489.827 C 671.858 565.256 664.127 629.804 678.546 704.558 Q 687.213 749.495 716.612 829.929 Q 793.399 852.443 835.567 844.6 C 863.079 839.483 878.721 818.186 906.94 815.258 C 950.763 810.712 976.077 847.632 1017.965 853.936 C 1057.755 859.924 1092.661 843.389 1132.163 851.269 Q 1162.202 857.261 1211.466 881.945 L 1213.052 1012.651 L 93.285 1020.653 L 117.076 851.269 Z " fill="rgb(0,111,29)"/><path d=" M -1191.435 904.618 Q -1109.897 869.529 -1061.377 872.609 C -1028.904 874.669 -1007.142 898.766 -974.143 896.616 C -935.109 894.072 -921.132 852.661 -882.15 849.935 Q -847.854 847.537 -791.744 875.276 Q -744.135 805.512 -726.715 764.576 C -694.091 687.912 -694.184 617.422 -691.822 536.507 C -690.26 483.008 -690.106 437.423 -699.752 384.462 Q -707.045 344.419 -731.473 272.428 Q -808.914 240.745 -853.601 229.749 C -921.245 213.103 -988.015 237.034 -1051.86 209.743 Q -1087.467 194.522 -1140.68 151.058 L -1137.508 100.376 L -244.549 105.711 Q -242.157 156.512 -257.237 180.4 C -285.931 225.853 -348.814 226.033 -404.742 236.417 C -445.254 243.939 -482.334 232.473 -522.112 243.086 Q -546.43 249.575 -587.141 269.761 Q -610.858 345.349 -618.862 387.129 C -629.274 441.482 -630.575 488.215 -633.137 543.176 C -636.653 618.606 -644.383 683.153 -629.965 757.907 Q -621.297 802.844 -591.899 883.278 Q -515.111 905.792 -472.943 897.949 C -445.431 892.832 -429.79 871.535 -401.57 868.607 C -357.748 864.061 -332.434 900.982 -290.545 907.286 C -250.755 913.274 -215.85 896.739 -176.348 904.618 Q -146.309 910.61 -97.044 935.294 L -95.458 1066 L -1215.226 1074.002 L -1191.435 904.618 Z " fill="rgb(0,111,29)"/><path d=" M 427.946 911.287 Q 346.409 876.198 297.888 879.277 C 265.416 881.338 243.654 905.435 210.654 903.284 C 171.62 900.741 157.644 859.329 118.662 856.604 Q 84.365 854.206 28.256 881.945 Q -19.353 812.181 -36.773 771.245 C -69.397 694.581 -69.305 624.091 -71.667 543.176 C -73.229 489.676 -73.383 444.091 -63.736 391.13 Q -56.443 351.088 -32.015 279.097 Q 45.426 247.414 90.113 236.417 C 157.756 219.771 224.527 243.702 288.372 216.411 Q 323.978 201.191 377.192 157.727 L 374.02 107.045 L -518.94 112.38 Q -521.332 163.18 -506.251 187.069 C -477.557 232.522 -414.674 232.701 -358.746 243.086 C -318.234 250.608 -281.154 239.141 -241.377 249.755 Q -217.058 256.243 -176.348 276.429 Q -152.63 352.018 -144.626 393.798 C -134.214 448.151 -132.913 494.883 -130.352 549.845 C -126.836 625.274 -119.105 689.822 -133.524 764.576 Q -142.191 809.513 -171.589 889.947 Q -248.377 912.461 -290.545 904.618 C -318.057 899.501 -333.699 878.204 -361.918 875.276 C -405.741 870.73 -431.055 907.65 -472.943 913.954 C -512.733 919.942 -547.639 903.407 -587.141 911.287 Q -617.18 917.279 -666.444 941.963 L -668.03 1072.669 L 451.737 1080.671 L 427.946 911.287 Z " fill="rgb(0,111,29)"/><path d=" M -87.528 884.612 Q -5.99 849.523 42.53 852.603 C 75.003 854.663 96.765 878.76 129.764 876.61 C 168.798 874.066 182.775 832.655 221.757 829.929 Q 256.053 827.531 312.163 855.27 Q 359.772 785.506 377.192 744.57 C 409.816 667.906 409.723 597.416 412.085 516.501 C 413.647 463.002 413.801 417.417 404.155 364.456 Q 396.862 324.413 372.434 252.422 Q 294.993 220.739 250.306 209.743 C 182.662 193.097 115.892 217.028 52.047 189.737 Q 16.44 174.516 -36.773 131.052 L -33.601 80.37 L 859.358 85.705 Q 861.75 136.506 846.67 160.394 C 817.976 205.847 755.093 206.027 699.165 216.411 C 658.653 223.933 621.573 212.467 581.795 223.08 Q 557.477 229.569 516.766 249.755 Q 493.049 325.343 485.045 367.123 C 474.633 421.476 473.332 468.209 470.77 523.17 C 467.254 598.6 459.524 663.147 473.942 737.901 Q 482.61 782.838 512.008 863.272 Q 588.796 885.786 630.964 877.943 C 658.476 872.826 674.117 851.529 702.337 848.601 C 746.159 844.055 771.473 880.976 813.362 887.28 C 853.152 893.268 888.057 876.733 927.559 884.612 Q 957.598 890.604 1006.863 915.288 L 1008.449 1045.994 L -111.319 1053.996 L -87.528 884.612 Z " fill="rgb(0,111,29)"/><path d=" M 1490.615 891.281 Q 1409.078 856.192 1360.557 859.271 C 1328.085 861.332 1306.323 885.429 1273.323 883.278 C 1234.289 880.735 1220.313 839.323 1181.331 836.598 Q 1147.034 834.2 1090.925 861.939 Q 1043.316 792.175 1025.896 751.239 C 993.272 674.575 993.364 604.085 991.002 523.17 C 989.441 469.67 989.287 424.085 998.933 371.124 Q 1006.226 331.082 1030.654 259.091 Q 1108.095 227.408 1152.782 216.411 C 1220.425 199.765 1287.196 223.696 1351.041 196.405 Q 1386.647 181.185 1439.861 137.721 L 1436.689 87.039 L 543.73 92.374 Q 541.337 143.174 556.418 167.063 C 585.112 212.516 647.995 212.695 703.923 223.08 C 744.435 230.602 781.515 219.135 821.292 229.749 Q 845.611 236.237 886.321 256.423 Q 910.039 332.012 918.043 373.792 C 928.455 428.145 929.756 474.877 932.318 529.839 C 935.833 605.268 943.564 669.816 929.145 744.57 Q 920.478 789.507 891.08 869.941 Q 814.292 892.455 772.124 884.612 C 744.612 879.495 728.97 858.198 700.751 855.27 C 656.928 850.724 631.614 887.644 589.726 893.948 C 549.936 899.936 515.03 883.401 475.528 891.281 Q 445.489 897.273 396.225 921.957 L 394.639 1052.663 L 1514.406 1060.665 L 1490.615 891.281 Z " fill="rgb(0,111,29)"/></g><g id="Group"><path d=" M 348.936 915.164 Q 430.473 873.437 478.994 877.099 C 511.466 879.549 533.229 908.205 566.228 905.648 C 605.262 902.623 619.238 853.377 658.22 850.135 Q 692.517 847.284 748.627 880.271 Q 796.235 797.308 813.656 748.627 C 846.279 657.458 846.187 573.631 848.549 477.408 C 850.111 413.786 850.265 359.577 840.619 296.596 Q 833.326 248.977 808.897 163.366 Q 731.457 125.688 686.77 112.611 C 619.126 92.816 552.356 121.275 488.511 88.82 Q 452.904 70.72 399.69 19.033 L 402.863 -41.238 L 1295.822 -34.894 Q 1298.214 25.518 1283.133 53.926 C 1254.439 107.979 1191.556 108.192 1135.628 120.542 C 1095.116 129.487 1058.036 115.851 1018.259 128.472 Q 993.94 136.188 953.23 160.193 Q 929.512 250.083 921.509 299.768 C 911.096 364.404 909.796 419.978 907.234 485.338 C 903.718 575.039 895.988 651.798 910.406 740.696 Q 919.073 794.135 948.472 889.787 Q 1025.259 916.561 1067.427 907.234 C 1094.94 901.149 1110.581 875.822 1138.801 872.34 C 1182.623 866.934 1207.937 910.84 1249.826 918.336 C 1289.616 925.457 1324.521 905.794 1364.023 915.164 Q 1394.062 922.29 1443.327 951.644 L 1444.913 1107.079 L 325.145 1116.596 L 348.936 915.164 Z " fill="rgb(0,111,29)"/><path d=" M 797.795 932.611 Q 879.332 890.884 927.853 894.545 C 960.325 896.996 982.087 925.652 1015.087 923.095 C 1054.121 920.07 1068.097 870.823 1107.079 867.582 Q 1141.376 864.73 1197.485 897.717 Q 1245.094 814.755 1262.514 766.073 C 1295.138 674.905 1295.046 591.078 1297.408 494.855 C 1298.97 431.233 1299.124 377.024 1289.478 314.043 Q 1282.184 266.424 1257.756 180.812 Q 1180.316 143.135 1135.628 130.058 C 1067.985 110.263 1001.214 138.722 937.369 106.267 Q 901.763 88.167 848.549 36.48 L 851.721 -23.791 L 1744.681 -17.447 Q 1747.073 42.965 1731.992 71.373 C 1703.298 125.425 1640.415 125.639 1584.487 137.988 C 1543.975 146.934 1506.895 133.298 1467.118 145.919 Q 1442.799 153.635 1402.089 177.64 Q 1378.371 267.53 1370.367 317.215 C 1359.955 381.851 1358.654 437.425 1356.093 502.785 C 1352.577 592.486 1344.846 669.245 1359.265 758.143 Q 1367.932 811.582 1397.331 907.234 Q 1474.118 934.008 1516.286 924.681 C 1543.798 918.595 1559.44 893.269 1587.659 889.787 C 1631.482 884.381 1656.796 928.287 1698.684 935.783 C 1738.474 942.904 1773.38 923.241 1812.882 932.611 Q 1842.921 939.737 1892.185 969.091 L 1893.772 1124.526 L 774.004 1134.042 L 797.795 932.611 Z " fill="rgb(0,111,29)"/><path d=" M 1332.302 905.648 Q 1413.839 863.92 1462.36 867.582 C 1494.832 870.033 1516.594 898.689 1549.594 896.131 C 1588.627 893.106 1602.604 843.86 1641.586 840.619 Q 1675.883 837.767 1731.992 870.754 Q 1779.601 787.791 1797.021 739.11 C 1829.645 647.942 1829.553 564.115 1831.915 467.892 C 1833.476 404.27 1833.63 350.06 1823.984 287.079 Q 1816.691 239.461 1792.263 153.849 Q 1714.822 116.172 1670.135 103.095 C 1602.492 83.3 1535.721 111.758 1471.876 79.304 Q 1436.269 61.204 1383.056 9.516 L 1386.228 -50.754 L 2279.187 -44.41 Q 2281.579 16.002 2266.499 44.41 C 2237.805 98.462 2174.922 98.676 2118.994 111.025 C 2078.482 119.97 2041.402 106.334 2001.624 118.955 Q 1977.306 126.672 1936.595 150.677 Q 1912.878 240.566 1904.874 290.251 C 1894.462 354.888 1893.161 410.462 1890.599 475.822 C 1887.083 565.522 1879.353 642.282 1893.771 731.18 Q 1902.439 784.618 1931.837 880.271 Q 2008.625 907.044 2050.793 897.717 C 2078.305 891.632 2093.946 866.305 2122.166 862.824 C 2165.989 857.417 2191.303 901.323 2233.191 908.82 C 2272.981 915.941 2307.887 896.277 2347.388 905.648 Q 2377.427 912.773 2426.692 942.128 L 2428.278 1097.563 L 1308.51 1107.079 L 1332.302 905.648 Z " fill="rgb(0,111,29)"/><path d=" M 23.791 969.091 Q 105.328 927.363 153.849 931.025 C 186.321 933.476 208.084 962.132 241.083 959.574 C 280.117 956.549 294.093 907.303 333.075 904.062 Q 367.372 901.21 423.482 934.197 Q 471.09 851.234 488.511 802.553 C 521.134 711.385 521.042 627.558 523.404 531.335 C 524.966 467.713 525.12 413.503 515.474 350.522 Q 508.181 302.903 483.752 217.292 Q 406.312 179.615 361.625 166.538 C 293.981 146.742 227.211 175.201 163.366 142.747 Q 127.759 124.647 74.545 72.959 L 77.718 12.689 L 970.677 19.033 Q 973.069 79.445 957.988 107.853 C 929.294 161.905 866.411 162.119 810.483 174.468 C 769.971 183.413 732.891 169.777 693.114 182.398 Q 668.795 190.115 628.085 214.12 Q 604.367 304.009 596.364 353.694 C 585.951 418.331 584.651 473.905 582.089 539.265 C 578.573 628.965 570.843 705.725 585.261 794.623 Q 593.928 848.061 623.327 943.714 Q 700.114 970.487 742.282 961.16 C 769.795 955.075 785.436 929.748 813.656 926.267 C 857.478 920.86 882.792 964.766 924.681 972.263 C 964.471 979.384 999.376 959.72 1038.878 969.091 Q 1068.917 976.216 1118.182 1005.57 L 1119.768 1161.006 L 0 1170.522 L 23.791 969.091 Z " fill="rgb(0,111,29)"/><path d=" M 1643.172 977.021 Q 1561.635 935.294 1513.114 938.955 C 1480.642 941.406 1458.879 970.062 1425.88 967.505 C 1386.846 964.48 1372.87 915.233 1333.888 911.992 Q 1299.591 909.14 1243.481 942.128 Q 1195.873 859.165 1178.452 810.483 C 1145.829 719.315 1145.921 635.488 1143.559 539.265 C 1141.997 475.643 1141.843 421.434 1151.489 358.453 Q 1158.782 310.834 1183.211 225.222 Q 1260.651 187.545 1305.338 174.468 C 1372.982 154.673 1439.752 183.132 1503.597 150.677 Q 1539.204 132.577 1592.418 80.89 L 1589.245 20.619 L 696.286 26.963 Q 693.894 87.375 708.975 115.783 C 737.669 169.835 800.552 170.049 856.48 182.398 C 896.992 191.344 934.072 177.708 973.849 190.329 Q 998.168 198.045 1038.878 222.05 Q 1062.596 311.94 1070.6 361.625 C 1081.012 426.261 1082.312 481.835 1084.874 547.195 C 1088.39 636.896 1096.12 713.655 1081.702 802.553 Q 1073.035 855.992 1043.636 951.644 Q 966.849 978.418 924.681 969.091 C 897.168 963.005 881.527 937.679 853.307 934.197 C 809.485 928.791 784.171 972.697 742.282 980.193 C 702.493 987.314 667.587 967.651 628.085 977.021 Q 598.046 984.147 548.781 1013.501 L 547.195 1168.936 L 1666.963 1178.452 L 1643.172 977.021 Z " fill="rgb(0,111,29)"/><path d=" M 1127.698 945.3 Q 1209.235 903.572 1257.756 907.234 C 1290.228 909.684 1311.991 938.341 1344.99 935.783 C 1384.024 932.758 1398 883.512 1436.982 880.271 Q 1471.279 877.419 1527.389 910.406 Q 1574.997 827.443 1592.418 778.762 C 1625.041 687.593 1624.949 603.767 1627.311 507.543 C 1628.873 443.922 1629.027 389.712 1619.381 326.731 Q 1612.088 279.112 1587.659 193.501 Q 1510.219 155.824 1465.532 142.747 C 1397.888 122.951 1331.118 151.41 1267.273 118.955 Q 1231.666 100.855 1178.452 49.168 L 1181.625 -11.103 L 2074.584 -4.758 Q 2076.976 55.654 2061.895 84.062 C 2033.201 138.114 1970.318 138.328 1914.39 150.677 C 1873.878 159.622 1836.798 145.986 1797.021 158.607 Q 1772.702 166.324 1731.992 190.329 Q 1708.274 280.218 1700.271 329.903 C 1689.858 394.54 1688.558 450.114 1685.996 515.474 C 1682.48 605.174 1674.75 681.934 1689.168 770.832 Q 1697.835 824.27 1727.234 919.923 Q 1804.021 946.696 1846.189 937.369 C 1873.702 931.284 1889.343 905.957 1917.563 902.476 C 1961.385 897.069 1986.699 940.975 2028.588 948.472 C 2068.378 955.593 2103.283 935.929 2142.785 945.3 Q 2172.824 952.425 2222.089 981.779 L 2223.675 1137.214 L 1103.907 1146.731 L 1127.698 945.3 Z " fill="rgb(0,111,29)"/><path d=" M 2705.841 953.23 Q 2624.304 911.503 2575.783 915.164 C 2543.311 917.615 2521.548 946.271 2488.549 943.714 C 2449.515 940.689 2435.539 891.442 2396.557 888.201 Q 2362.26 885.349 2306.151 918.336 Q 2258.542 835.374 2241.122 786.692 C 2208.498 695.524 2208.59 611.697 2206.228 515.474 C 2204.666 451.852 2204.512 397.642 2214.158 334.661 Q 2221.451 287.043 2245.88 201.431 Q 2323.32 163.754 2368.007 150.677 C 2435.651 130.882 2502.421 159.34 2566.267 126.886 Q 2601.873 108.786 2655.087 57.099 L 2651.915 -3.172 L 1758.955 3.172 Q 1756.563 63.584 1771.644 91.992 C 1800.338 146.044 1863.221 146.258 1919.149 158.607 C 1959.661 167.553 1996.741 153.916 2036.518 166.538 Q 2060.837 174.254 2101.547 198.259 Q 2125.265 288.149 2133.269 337.834 C 2143.681 402.47 2144.981 458.044 2147.543 523.404 C 2151.059 613.105 2158.789 689.864 2144.371 778.762 Q 2135.704 832.2 2106.305 927.853 Q 2029.518 954.627 1987.35 945.3 C 1959.837 939.214 1944.196 913.888 1915.977 910.406 C 1872.154 904.999 1846.84 948.906 1804.951 956.402 C 1765.162 963.523 1730.256 943.86 1690.754 953.23 Q 1660.715 960.356 1611.45 989.71 L 1609.864 1145.145 L 2729.632 1154.661 L 2705.841 953.23 Z " fill="rgb(0,111,29)"/><path d=" M -1571.064 915.164 Q -1489.527 873.437 -1441.006 877.099 C -1408.534 879.549 -1386.771 908.205 -1353.772 905.648 C -1314.738 902.623 -1300.762 853.377 -1261.78 850.135 Q -1227.483 847.284 -1171.373 880.271 Q -1123.765 797.308 -1106.344 748.627 C -1073.721 657.458 -1073.813 573.631 -1071.451 477.408 C -1069.889 413.786 -1069.735 359.577 -1079.381 296.596 Q -1086.674 248.977 -1111.103 163.366 Q -1188.543 125.688 -1233.23 112.611 C -1300.874 92.816 -1367.644 121.275 -1431.489 88.82 Q -1467.096 70.72 -1520.31 19.033 L -1517.137 -41.238 L -624.178 -34.894 Q -621.786 25.518 -636.867 53.926 C -665.561 107.979 -728.444 108.192 -784.372 120.542 C -824.884 129.487 -861.964 115.851 -901.741 128.472 Q -926.06 136.188 -966.77 160.193 Q -990.488 250.083 -998.491 299.768 C -1008.904 364.404 -1010.204 419.978 -1012.766 485.338 C -1016.282 575.039 -1024.012 651.798 -1009.594 740.696 Q -1000.927 794.135 -971.528 889.787 Q -894.741 916.561 -852.573 907.234 C -825.06 901.149 -809.419 875.822 -781.199 872.34 C -737.377 866.934 -712.063 910.84 -670.174 918.336 C -630.384 925.457 -595.479 905.794 -555.977 915.164 Q -525.938 922.29 -476.673 951.644 L -475.087 1107.079 L -1594.855 1116.596 L -1571.064 915.164 Z " fill="rgb(0,111,29)"/><path d=" M -1122.205 932.611 Q -1040.668 890.884 -992.147 894.545 C -959.675 896.996 -937.913 925.652 -904.913 923.095 C -865.879 920.07 -851.903 870.823 -812.921 867.582 Q -778.624 864.73 -722.515 897.717 Q -674.906 814.755 -657.486 766.073 C -624.862 674.905 -624.954 591.078 -622.592 494.855 C -621.03 431.233 -620.876 377.024 -630.522 314.043 Q -637.816 266.424 -662.244 180.812 Q -739.684 143.135 -784.372 130.058 C -852.015 110.263 -918.786 138.722 -982.631 106.267 Q -1018.237 88.167 -1071.451 36.48 L -1068.279 -23.791 L -175.319 -17.447 Q -172.927 42.965 -188.008 71.373 C -216.702 125.425 -279.585 125.639 -335.513 137.988 C -376.025 146.934 -413.105 133.298 -452.882 145.919 Q -477.201 153.635 -517.911 177.64 Q -541.629 267.53 -549.633 317.215 C -560.045 381.851 -561.346 437.425 -563.907 502.785 C -567.423 592.486 -575.154 669.245 -560.735 758.143 Q -552.068 811.582 -522.669 907.234 Q -445.882 934.008 -403.714 924.681 C -376.202 918.595 -360.56 893.269 -332.341 889.787 C -288.518 884.381 -263.204 928.287 -221.316 935.783 C -181.526 942.904 -146.62 923.241 -107.118 932.611 Q -77.079 939.737 -27.815 969.091 L -26.228 1124.526 L -1145.996 1134.042 L -1122.205 932.611 Z " fill="rgb(0,111,29)"/><path d=" M -587.698 905.648 Q -506.161 863.92 -457.64 867.582 C -425.168 870.033 -403.406 898.689 -370.406 896.131 C -331.373 893.106 -317.396 843.86 -278.414 840.619 Q -244.117 837.767 -188.008 870.754 Q -140.399 787.791 -122.979 739.11 C -90.355 647.942 -90.447 564.115 -88.085 467.892 C -86.524 404.27 -86.37 350.06 -96.016 287.079 Q -103.309 239.461 -127.737 153.849 Q -205.178 116.172 -249.865 103.095 C -317.508 83.3 -384.279 111.758 -448.124 79.304 Q -483.731 61.204 -536.944 9.516 L -533.772 -50.754 L 359.187 -44.41 Q 361.579 16.002 346.499 44.41 C 317.805 98.462 254.922 98.676 198.994 111.025 C 158.482 119.97 121.402 106.334 81.624 118.955 Q 57.306 126.672 16.595 150.677 Q -7.122 240.566 -15.126 290.251 C -25.538 354.888 -26.839 410.462 -29.401 475.822 C -32.917 565.522 -40.647 642.282 -26.229 731.18 Q -17.561 784.618 11.837 880.271 Q 88.625 907.044 130.793 897.717 C 158.305 891.632 173.946 866.305 202.166 862.824 C 245.989 857.417 271.303 901.323 313.191 908.82 C 352.981 915.941 387.887 896.277 427.388 905.648 Q 457.427 912.773 506.692 942.128 L 508.278 1097.563 L -611.49 1107.079 L -587.698 905.648 Z " fill="rgb(0,111,29)"/><path d=" M -1896.209 969.091 Q -1814.672 927.363 -1766.151 931.025 C -1733.679 933.476 -1711.916 962.132 -1678.917 959.574 C -1639.883 956.549 -1625.907 907.303 -1586.925 904.062 Q -1552.628 901.21 -1496.518 934.197 Q -1448.91 851.234 -1431.489 802.553 C -1398.866 711.385 -1398.958 627.558 -1396.596 531.335 C -1395.034 467.713 -1394.88 413.503 -1404.526 350.522 Q -1411.819 302.903 -1436.248 217.292 Q -1513.688 179.615 -1558.375 166.538 C -1626.019 146.742 -1692.789 175.201 -1756.634 142.747 Q -1792.241 124.647 -1845.455 72.959 L -1842.282 12.689 L -949.323 19.033 Q -946.931 79.445 -962.012 107.853 C -990.706 161.905 -1053.589 162.119 -1109.517 174.468 C -1150.029 183.413 -1187.109 169.777 -1226.886 182.398 Q -1251.205 190.115 -1291.915 214.12 Q -1315.633 304.009 -1323.636 353.694 C -1334.049 418.331 -1335.349 473.905 -1337.911 539.265 C -1341.427 628.965 -1349.157 705.725 -1334.739 794.623 Q -1326.072 848.061 -1296.673 943.714 Q -1219.886 970.487 -1177.718 961.16 C -1150.205 955.075 -1134.564 929.748 -1106.344 926.267 C -1062.522 920.86 -1037.208 964.766 -995.319 972.263 C -955.529 979.384 -920.624 959.72 -881.122 969.091 Q -851.083 976.216 -801.818 1005.57 L -800.232 1161.006 L -1920 1170.522 L -1896.209 969.091 Z " fill="rgb(0,111,29)"/><path d=" M -276.828 977.021 Q -358.365 935.294 -406.886 938.955 C -439.358 941.406 -461.121 970.062 -494.12 967.505 C -533.154 964.48 -547.13 915.233 -586.112 911.992 Q -620.409 909.14 -676.519 942.128 Q -724.127 859.165 -741.548 810.483 C -774.171 719.315 -774.079 635.488 -776.441 539.265 C -778.003 475.643 -778.157 421.434 -768.511 358.453 Q -761.218 310.834 -736.789 225.222 Q -659.349 187.545 -614.662 174.468 C -547.018 154.673 -480.248 183.132 -416.403 150.677 Q -380.796 132.577 -327.582 80.89 L -330.755 20.619 L -1223.714 26.963 Q -1226.106 87.375 -1211.025 115.783 C -1182.331 169.835 -1119.448 170.049 -1063.52 182.398 C -1023.008 191.344 -985.928 177.708 -946.151 190.329 Q -921.832 198.045 -881.122 222.05 Q -857.404 311.94 -849.4 361.625 C -838.988 426.261 -837.688 481.835 -835.126 547.195 C -831.61 636.896 -823.88 713.655 -838.298 802.553 Q -846.965 855.992 -876.364 951.644 Q -953.151 978.418 -995.319 969.091 C -1022.832 963.005 -1038.473 937.679 -1066.693 934.197 C -1110.515 928.791 -1135.829 972.697 -1177.718 980.193 C -1217.507 987.314 -1252.413 967.651 -1291.915 977.021 Q -1321.954 984.147 -1371.219 1013.501 L -1372.805 1168.936 L -253.037 1178.452 L -276.828 977.021 Z " fill="rgb(0,111,29)"/><path d=" M -792.302 945.3 Q -710.765 903.572 -662.244 907.234 C -629.772 909.684 -608.009 938.341 -575.01 935.783 C -535.976 932.758 -522 883.512 -483.018 880.271 Q -448.721 877.419 -392.611 910.406 Q -345.003 827.443 -327.582 778.762 C -294.959 687.593 -295.051 603.767 -292.689 507.543 C -291.127 443.922 -290.973 389.712 -300.619 326.731 Q -307.912 279.112 -332.341 193.501 Q -409.781 155.824 -454.468 142.747 C -522.112 122.951 -588.882 151.41 -652.727 118.955 Q -688.334 100.855 -741.548 49.168 L -738.375 -11.103 L 154.584 -4.758 Q 156.976 55.654 141.895 84.062 C 113.201 138.114 50.318 138.328 -5.61 150.677 C -46.122 159.622 -83.202 145.986 -122.979 158.607 Q -147.298 166.324 -188.008 190.329 Q -211.726 280.218 -219.729 329.903 C -230.142 394.54 -231.442 450.114 -234.004 515.474 C -237.52 605.174 -245.25 681.934 -230.832 770.832 Q -222.165 824.27 -192.766 919.923 Q -115.979 946.696 -73.811 937.369 C -46.298 931.284 -30.657 905.957 -2.437 902.476 C 41.385 897.069 66.699 940.975 108.588 948.472 C 148.378 955.593 183.283 935.929 222.785 945.3 Q 252.824 952.425 302.089 981.779 L 303.675 1137.214 L -816.093 1146.731 L -792.302 945.3 Z " fill="rgb(0,111,29)"/><path d=" M 785.841 953.23 Q 704.304 911.503 655.783 915.164 C 623.311 917.615 601.548 946.271 568.549 943.714 C 529.515 940.689 515.539 891.442 476.557 888.201 Q 442.26 885.349 386.151 918.336 Q 338.542 835.374 321.122 786.692 C 288.498 695.524 288.59 611.697 286.228 515.474 C 284.666 451.852 284.512 397.642 294.158 334.661 Q 301.451 287.043 325.88 201.431 Q 403.32 163.754 448.007 150.677 C 515.651 130.882 582.421 159.34 646.267 126.886 Q 681.873 108.786 735.087 57.099 L 731.915 -3.172 L -161.045 3.172 Q -163.437 63.584 -148.356 91.992 C -119.662 146.044 -56.779 146.258 -0.851 158.607 C 39.661 167.553 76.741 153.916 116.518 166.538 Q 140.837 174.254 181.547 198.259 Q 205.265 288.149 213.269 337.834 C 223.681 402.47 224.981 458.044 227.543 523.404 C 231.059 613.105 238.789 689.864 224.371 778.762 Q 215.704 832.2 186.305 927.853 Q 109.518 954.627 67.35 945.3 C 39.837 939.214 24.196 913.888 -4.023 910.406 C -47.846 904.999 -73.16 948.906 -115.049 956.402 C -154.838 963.523 -189.744 943.86 -229.246 953.23 Q -259.285 960.356 -308.55 989.71 L -310.136 1145.145 L 809.632 1154.661 L 785.841 953.23 Z " fill="rgb(0,111,29)"/></g></g><defs><clipPath id="_clipPath_spZZYx6sVIgJ99rOXjLqcbei0gh2Mg70"><rect width="1920" height="1080"/></clipPath></defs><g clip-path="url(#_clipPath_spZZYx6sVIgJ99rOXjLqcbei0gh2Mg70)"><rect width="1920" height="1080" style="fill:rgb(9,132,0)"/><path d=" M 1202.544 1063.914 Q 1121.007 1009.951 1072.486 1014.686 C 1040.014 1017.856 1018.251 1054.914 985.252 1051.607 C 946.218 1047.695 932.242 984.009 893.26 979.817 Q 858.963 976.129 802.854 1018.789 Q 755.245 911.5 737.825 848.545 C 705.201 730.645 705.293 622.239 702.931 497.802 C 701.369 415.525 701.215 345.421 710.861 263.973 Q 718.154 202.392 742.583 91.678 Q 820.023 42.953 864.71 26.042 C 932.354 0.442 999.124 37.245 1062.97 -4.725 Q 1098.576 -28.132 1151.79 -94.975 L 1148.618 -172.918 L 149.091 -164.713 Q 146.699 -86.588 161.779 -49.85 C 190.473 20.051 253.356 20.327 309.284 36.297 C 349.797 47.866 386.876 30.231 426.654 46.553 Q 450.972 56.532 491.683 87.576 Q 515.4 203.822 523.404 268.075 C 533.817 351.664 535.117 423.533 537.679 508.057 C 541.195 624.059 548.925 723.325 534.507 838.289 Q 525.839 907.397 496.441 1031.096 Q 419.653 1065.72 377.485 1053.658 C 349.973 1045.788 334.332 1013.035 306.112 1008.533 C 262.29 1001.541 236.976 1058.321 195.087 1068.016 C 155.297 1077.225 120.392 1051.796 80.89 1063.914 Q 50.851 1073.129 1.586 1111.09 L 0 1312.1 L 1226.335 1324.407 L 1202.544 1063.914 Z " fill="rgb(0,91,76)"/><path d=" M 749.494 1088.104 Q 831.031 1034.141 879.552 1038.877 C 912.024 1042.046 933.786 1079.104 966.786 1075.797 C 1005.82 1071.885 1019.796 1008.199 1058.778 1004.007 Q 1093.075 1000.319 1149.184 1042.979 Q 1196.793 935.69 1214.213 872.735 C 1246.837 754.835 1246.745 646.429 1249.107 521.992 C 1250.668 439.715 1250.822 369.611 1241.176 288.163 Q 1233.883 226.582 1209.455 115.868 Q 1132.014 67.143 1087.327 50.232 C 1019.684 24.632 952.913 61.436 889.068 19.465 Q 853.462 -3.942 800.248 -70.785 L 803.42 -148.728 L 1802.947 -140.523 Q 1805.339 -62.398 1790.258 -25.66 C 1761.564 44.241 1698.681 44.517 1642.753 60.487 C 1602.241 72.056 1565.161 54.421 1525.384 70.743 Q 1501.065 80.722 1460.355 111.766 Q 1436.637 228.012 1428.633 292.265 C 1418.221 375.854 1416.921 447.723 1414.359 532.247 C 1410.843 648.249 1403.113 747.516 1417.531 862.479 Q 1426.198 931.587 1455.597 1055.286 Q 1532.384 1089.91 1574.552 1077.848 C 1602.065 1069.978 1617.706 1037.226 1645.925 1032.723 C 1689.748 1025.731 1715.062 1082.511 1756.951 1092.206 C 1796.74 1101.415 1831.646 1075.986 1871.148 1088.104 Q 1901.187 1097.319 1950.452 1135.28 L 1952.038 1336.29 L 725.703 1348.597 L 749.494 1088.104 Z " fill="rgb(0,91,76)"/><path d=" M 2539.046 994.367 Q 2457.509 940.405 2408.988 945.14 C 2376.516 948.309 2354.754 985.368 2321.754 982.06 C 2282.72 978.148 2268.744 914.462 2229.762 910.271 Q 2195.465 906.583 2139.356 949.242 Q 2091.747 841.954 2074.327 778.998 C 2041.703 661.098 2041.795 552.692 2039.433 428.255 C 2037.871 345.979 2037.717 275.874 2047.363 194.426 Q 2054.657 132.845 2079.085 22.131 Q 2156.526 -26.593 2201.213 -43.505 C 2268.856 -69.104 2335.627 -32.301 2399.472 -74.272 Q 2435.078 -97.679 2488.292 -164.522 L 2485.12 -242.464 L 1485.593 -234.26 Q 1483.201 -156.135 1498.282 -119.397 C 1526.976 -49.496 1589.859 -49.219 1645.787 -33.249 C 1686.299 -21.681 1723.379 -39.315 1763.156 -22.994 Q 1787.475 -13.015 1828.185 18.029 Q 1851.903 134.275 1859.906 198.529 C 1870.319 282.117 1871.619 353.987 1874.181 438.511 C 1877.697 554.512 1885.427 653.779 1871.009 768.743 Q 1862.342 837.85 1832.943 961.549 Q 1756.156 996.173 1713.988 984.111 C 1686.475 976.242 1670.834 943.489 1642.614 938.987 C 1598.792 931.995 1573.478 988.775 1531.589 998.469 C 1491.799 1007.678 1456.894 982.249 1417.392 994.367 Q 1387.353 1003.582 1338.088 1041.543 L 1336.502 1242.554 L 2562.837 1254.861 L 2539.046 994.367 Z " fill="rgb(0,91,76)"/><path d=" M -717.456 1063.914 Q -798.993 1009.951 -847.514 1014.686 C -879.986 1017.856 -901.749 1054.914 -934.748 1051.607 C -973.782 1047.695 -987.758 984.009 -1026.74 979.817 Q -1061.037 976.129 -1117.146 1018.789 Q -1164.755 911.5 -1182.175 848.545 C -1214.799 730.645 -1214.707 622.239 -1217.069 497.802 C -1218.631 415.525 -1218.785 345.421 -1209.139 263.973 Q -1201.846 202.392 -1177.417 91.678 Q -1099.977 42.953 -1055.29 26.042 C -987.646 0.442 -920.876 37.245 -857.03 -4.725 Q -821.424 -28.132 -768.21 -94.975 L -771.382 -172.918 L -1770.909 -164.713 Q -1773.301 -86.588 -1758.221 -49.85 C -1729.527 20.051 -1666.644 20.327 -1610.716 36.297 C -1570.203 47.866 -1533.124 30.231 -1493.346 46.553 Q -1469.028 56.532 -1428.317 87.576 Q -1404.6 203.822 -1396.596 268.075 C -1386.183 351.664 -1384.883 423.533 -1382.321 508.057 C -1378.805 624.059 -1371.075 723.325 -1385.493 838.289 Q -1394.161 907.397 -1423.559 1031.096 Q -1500.347 1065.72 -1542.515 1053.658 C -1570.027 1045.788 -1585.668 1013.035 -1613.888 1008.533 C -1657.71 1001.541 -1683.024 1058.321 -1724.913 1068.016 C -1764.703 1077.225 -1799.608 1051.796 -1839.11 1063.914 Q -1869.149 1073.129 -1918.414 1111.09 L -1920 1312.1 L -693.665 1324.407 L -717.456 1063.914 Z " fill="rgb(0,91,76)"/><path d=" M -1170.506 1088.104 Q -1088.969 1034.141 -1040.448 1038.877 C -1007.976 1042.046 -986.214 1079.104 -953.214 1075.797 C -914.18 1071.885 -900.204 1008.199 -861.222 1004.007 Q -826.925 1000.319 -770.816 1042.979 Q -723.207 935.69 -705.787 872.735 C -673.163 754.835 -673.255 646.429 -670.893 521.992 C -669.332 439.715 -669.178 369.611 -678.824 288.163 Q -686.117 226.582 -710.545 115.868 Q -787.986 67.143 -832.673 50.232 C -900.316 24.632 -967.087 61.436 -1030.932 19.465 Q -1066.538 -3.942 -1119.752 -70.785 L -1116.58 -148.728 L -117.053 -140.523 Q -114.661 -62.398 -129.742 -25.66 C -158.436 44.241 -221.319 44.517 -277.247 60.487 C -317.759 72.056 -354.839 54.421 -394.616 70.743 Q -418.935 80.722 -459.645 111.766 Q -483.363 228.012 -491.367 292.265 C -501.779 375.854 -503.079 447.723 -505.641 532.247 C -509.157 648.249 -516.887 747.516 -502.469 862.479 Q -493.802 931.587 -464.403 1055.286 Q -387.616 1089.91 -345.448 1077.848 C -317.935 1069.978 -302.294 1037.226 -274.075 1032.723 C -230.252 1025.731 -204.938 1082.511 -163.049 1092.206 C -123.26 1101.415 -88.354 1075.986 -48.852 1088.104 Q -18.813 1097.319 30.452 1135.28 L 32.038 1336.29 L -1194.297 1348.597 L -1170.506 1088.104 Z " fill="rgb(0,91,76)"/><path d=" M 619.046 994.367 Q 537.509 940.405 488.988 945.14 C 456.516 948.309 434.754 985.368 401.754 982.06 C 362.72 978.148 348.744 914.462 309.762 910.271 Q 275.465 906.583 219.356 949.242 Q 171.747 841.954 154.327 778.998 C 121.703 661.098 121.795 552.692 119.433 428.255 C 117.871 345.979 117.717 275.874 127.363 194.426 Q 134.657 132.845 159.085 22.131 Q 236.526 -26.593 281.213 -43.505 C 348.856 -69.104 415.627 -32.301 479.472 -74.272 Q 515.078 -97.679 568.292 -164.522 L 565.12 -242.464 L -434.407 -234.26 Q -436.799 -156.135 -421.718 -119.397 C -393.024 -49.496 -330.141 -49.219 -274.213 -33.249 C -233.701 -21.681 -196.621 -39.315 -156.844 -22.994 Q -132.525 -13.015 -91.815 18.029 Q -68.097 134.275 -60.094 198.529 C -49.681 282.117 -48.381 353.987 -45.819 438.511 C -42.303 554.512 -34.573 653.779 -48.991 768.743 Q -57.658 837.85 -87.057 961.549 Q -163.844 996.173 -206.012 984.111 C -233.525 976.242 -249.166 943.489 -277.386 938.987 C -321.208 931.995 -346.522 988.775 -388.411 998.469 C -428.201 1007.678 -463.106 982.249 -502.608 994.367 Q -532.647 1003.582 -581.912 1041.543 L -583.498 1242.554 L 642.837 1254.861 L 619.046 994.367 Z " fill="rgb(0,91,76)"/></g></svg>