<?xml version="1.0" standalone="no"?><!-- Generator: Gravit.io --><svg xmlns="http://www.w3.org/2000/svg" xmlns:xlink="http://www.w3.org/1999/xlink" style="isolation:isolate" viewBox="0 0 24 24" width="24" height="24"><defs><clipPath id="_clipPath_VyNmy106Ek8lOvLKhKQS1vLay9f3mWHo"><rect width="24" height="24"/></clipPath></defs><g clip-path="url(#_clipPath_VyNmy106Ek8lOvLKhKQS1vLay9f3mWHo)"><radialGradient id="_rgradient_6" fx="50%" fy="50%" cx="50%" cy="50%" r="50%"><stop offset="21.304347826086957%" stop-opacity="1" style="stop-color:rgb(255,116,78)"/><stop offset="100%" stop-opacity="0" style="stop-color:rgb(255,0,0)"/></radialGradient><path d=" M 0 12 C 0 5.377 5.377 0 12 0 C 18.623 0 24 5.377 24 12 C 24 18.623 18.623 24 12 24 C 5.377 24 0 18.623 0 12 Z " fill="url(#_rgradient_6)"/><path d=" M 0.521 0.521 L 12 10.701 L 23.479 0.521 L 13.299 12 L 23.479 23.479 L 12 13.299 L 0.521 23.479 L 10.701 12 L 0.521 0.521 Z " fill="rgb(255,255,255)"/><radialGradient id="_rgradient_7" fx="50%" fy="50%" cx="50%" cy="50%" r="50%"><stop offset="42.173913043478265%" stop-opacity="1" style="stop-color:rgb(255,255,255)"/><stop offset="100%" stop-opacity="0" style="stop-color:rgb(255,255,255)"/></radialGradient><path d=" M 6.491 12 C 6.491 8.96 8.96 6.491 12 6.491 C 15.04 6.491 17.509 8.96 17.509 12 C 17.509 15.04 15.04 17.509 12 17.509 C 8.96 17.509 6.491 15.04 6.491 12 Z " fill="url(#_rgradient_7)"/></g></svg>