<?xml version="1.0" standalone="no"?><!-- Generator: Gravit.io --><svg xmlns="http://www.w3.org/2000/svg" xmlns:xlink="http://www.w3.org/1999/xlink" style="isolation:isolate" viewBox="0 0 24 24" width="24" height="24"><defs><clipPath id="_clipPath_tqZ0u60ZHxUzHDTIeeU2pLsAWNgfA7Mr"><rect width="24" height="24"/></clipPath></defs><g clip-path="url(#_clipPath_tqZ0u60ZHxUzHDTIeeU2pLsAWNgfA7Mr)"><radialGradient id="_rgradient_4" fx="50%" fy="50%" cx="50%" cy="50%" r="50%"><stop offset="20.869565217391305%" stop-opacity="1" style="stop-color:rgb(0,255,234)"/><stop offset="100%" stop-opacity="0" style="stop-color:rgb(0,60,255)"/></radialGradient><path d=" M 0 11.94 C 0 5.317 5.377 -0.06 12 -0.06 C 18.623 -0.06 24 5.317 24 11.94 C 24 18.563 18.623 23.94 12 23.94 C 5.377 23.94 0 18.563 0 11.94 Z " fill="url(#_rgradient_4)"/><path d=" M 0.521 0.521 L 12 10.701 L 23.479 0.521 L 13.299 12 L 23.479 23.479 L 12 13.299 L 0.521 23.479 L 10.701 12 L 0.521 0.521 Z " fill="rgb(255,255,255)"/><radialGradient id="_rgradient_5" fx="50%" fy="50%" cx="50%" cy="50%" r="50%"><stop offset="42.173913043478265%" stop-opacity="1" style="stop-color:rgb(255,255,255)"/><stop offset="100%" stop-opacity="0" style="stop-color:rgb(255,255,255)"/></radialGradient><path d=" M 6.491 12 C 6.491 8.96 8.96 6.491 12 6.491 C 15.04 6.491 17.509 8.96 17.509 12 C 17.509 15.04 15.04 17.509 12 17.509 C 8.96 17.509 6.491 15.04 6.491 12 Z " fill="url(#_rgradient_5)"/></g></svg>