<?xml version="1.0" standalone="no"?><!-- Generator: Gravit.io --><svg xmlns="http://www.w3.org/2000/svg" xmlns:xlink="http://www.w3.org/1999/xlink" style="isolation:isolate" viewBox="0 0 96 240" width="96" height="240"><defs><clipPath id="_clipPath_MVKJtN5CGNTNEVyuTNxWxHEYRrWQFvv5"><rect width="96" height="240"/></clipPath></defs><g clip-path="url(#_clipPath_MVKJtN5CGNTNEVyuTNxWxHEYRrWQFvv5)"><g id="Group"><path d=" M 24.019 13.442 C 28.011 13.428 31.621 14.133 34.818 15.528 L 42.855 20.927 C 44.431 21.164 45.877 21.552 47.161 22.062 C 45.662 22.573 44.448 23.573 43.489 25.032 C 45.555 25.101 46.643 26.088 47.32 27.319 Q 43.839 28.85 42.148 30.016 C 40.348 31.257 39.063 32.61 37.544 34.175 C 36.367 35.387 35.399 36.445 34.375 37.79 C 33.56 38.859 33.214 40.025 32.227 40.953 C 31.089 42.022 29.857 42.605 28.371 43.064 Q 26.893 43.52 24.019 43.496 C 16.027 34.875 16.037 24.867 24.019 13.442 Z " fill="rgb(255,128,0)"/><path d=" M 24.019 32.47 Q 26.228 32.255 27.275 32.795 C 28.284 33.316 28.327 34.704 29.385 35.149 C 30.302 35.534 31.189 35.392 32.145 35.19 C 33.594 34.883 34.603 34.031 35.677 33.038 C 37.015 31.802 37.54 30.287 38.477 28.736 C 39.654 26.788 40.344 25.448 43.489 25.032 C 45.555 25.101 46.547 26.112 47.272 27.319 Q 43.825 28.856 42.148 30.016 C 40.35 31.26 39.063 32.61 37.544 34.175 C 36.367 35.387 35.399 36.445 34.375 37.79 C 33.56 38.859 33.214 40.025 32.227 40.953 C 31.089 42.022 29.857 42.605 28.371 43.064 Q 26.893 43.52 24.019 43.496 C 22.436 40.387 22.446 36.722 24.019 32.47 Z " fill="rgb(255,255,255)"/><path d=" M 24.019 13.442 C 28.011 13.428 31.621 14.133 34.818 15.528 L 42.855 20.927 C 44.431 21.164 45.877 21.552 47.161 22.062 C 45.662 22.573 44.448 23.573 43.489 25.032 C 45.555 25.101 46.643 26.088 47.32 27.319 Q 43.839 28.85 42.148 30.016 C 40.348 31.257 39.063 32.61 37.544 34.175 C 36.367 35.387 35.399 36.445 34.375 37.79 C 33.56 38.859 33.214 40.025 32.227 40.953 C 31.089 42.022 29.857 42.605 28.371 43.064 Q 26.893 43.52 24.019 43.496" fill="none" vector-effect="non-scaling-stroke" stroke-width="1" stroke="rgb(0,0,0)" stroke-linejoin="round" stroke-linecap="round" stroke-miterlimit="3"/><path d=" M 27.789 29.898 Q 29.251 29.867 29.919 30.264 C 30.255 30.463 30.526 30.672 30.75 30.994 Q 31.212 31.656 30.994 33.184 Q 30.906 31.779 30.324 31.339 C 30.075 31.15 29.814 31.071 29.513 30.994 Q 28.932 30.844 27.83 31.055 L 27.789 29.898 Z " fill="rgb(79,12,0)"/><path d=" M 24.019 35.529 Q 26.09 34.576 26.854 33.628 C 27.432 32.912 28.106 32.248 27.985 31.29 C 27.914 30.729 27.649 30.299 27.279 29.877 Q 26.448 28.932 24.019 28.962 C 21.836 31.193 21.856 33.402 24.019 35.529 Z " fill="rgb(49,49,49)"/><path d=" M 24.019 35.529 Q 26.09 34.576 26.854 33.628 C 27.432 32.912 28.106 32.248 27.985 31.29 C 27.914 30.729 27.649 30.299 27.279 29.877 Q 26.448 28.932 24.019 28.962" fill="rgb(49,49,49)" vector-effect="non-scaling-stroke" stroke-width="1" stroke="rgb(0,0,0)" stroke-linejoin="round" stroke-linecap="round" stroke-miterlimit="3"/><path d=" M 32.276 17.024 C 34.666 13.28 38.464 9.386 43.642 5.314 C 44.177 11.643 43.793 17.639 42.461 23.273" fill="rgb(255,128,0)" vector-effect="non-scaling-stroke" stroke-width="1" stroke="rgb(0,0,0)" stroke-linejoin="round" stroke-linecap="round" stroke-miterlimit="3"/><path d=" M 40.149 21.174 L 41.426 20.607 C 40.61 20.02 39.473 19.651 37.986 19.472 C 40.73 11.54 42.694 8.051 43.85 8.975 C 43.991 13.966 43.534 18.737 42.461 23.273 C 41.75 22.315 40.989 21.625 40.149 21.174 Z " fill="rgb(255,255,255)"/><path d=" M 32.276 17.024 C 34.666 13.28 38.464 9.386 43.642 5.314 C 44.177 11.643 43.793 17.639 42.461 23.273" fill="none" vector-effect="non-scaling-stroke" stroke-width="1" stroke="rgb(0,0,0)" stroke-linejoin="round" stroke-linecap="round" stroke-miterlimit="3"/><path d=" M 26.41 27.14 Q 27.728 23.274 29.452 21.967 Q 31.644 20.306 36.876 20.832 Q 36.232 25.454 34.3 26.937 Q 31.948 28.743 26.41 27.14 Z " fill="rgb(0,0,0)" vector-effect="non-scaling-stroke" stroke-width="1" stroke="rgb(0,0,0)" stroke-linejoin="round" stroke-linecap="round" stroke-miterlimit="3"/><path d=" M 23.981 13.442 C 19.989 13.428 16.379 14.133 13.182 15.528 L 5.145 20.927 C 3.569 21.164 2.123 21.552 0.839 22.062 C 2.338 22.573 3.552 23.573 4.511 25.032 C 2.445 25.101 1.357 26.088 0.68 27.319 Q 4.161 28.85 5.852 30.016 C 7.652 31.257 8.937 32.61 10.456 34.175 C 11.633 35.387 12.601 36.445 13.625 37.79 C 14.44 38.859 14.786 40.025 15.773 40.953 C 16.911 42.022 18.143 42.605 19.629 43.064 Q 21.107 43.52 23.981 43.496" fill="rgb(255,128,0)" vector-effect="non-scaling-stroke" stroke-width="1" stroke="rgb(0,0,0)" stroke-linejoin="round" stroke-linecap="round" stroke-miterlimit="3"/><path d=" M 23.906 35.311 C 23.877 34.412 23.991 33.441 23.981 32.47 Q 21.772 32.255 20.725 32.795 C 19.716 33.316 19.673 34.704 18.615 35.149 C 17.698 35.534 16.811 35.392 15.855 35.19 C 14.406 34.883 13.397 34.031 12.323 33.038 C 10.985 31.802 10.46 30.287 9.523 28.736 C 8.346 26.788 7.656 25.448 4.511 25.032 C 2.445 25.101 1.453 26.112 0.728 27.319 Q 4.175 28.856 5.852 30.016 C 7.65 31.26 8.937 32.61 10.456 34.175 C 11.633 35.387 12.601 36.445 13.625 37.79 C 14.44 38.859 14.786 40.025 15.773 40.953 C 16.911 42.022 18.143 42.605 19.629 43.064 Q 21.107 43.52 23.981 43.496 C 24.207 41.424 24.891 37.416 23.906 35.311 Z " fill="rgb(255,255,255)"/><path d=" M 23.981 13.442 C 19.989 13.428 16.379 14.133 13.182 15.528 L 5.145 20.927 C 3.569 21.164 2.123 21.552 0.839 22.062 C 2.338 22.573 3.552 23.573 4.511 25.032 C 2.445 25.101 1.357 26.088 0.68 27.319 Q 4.161 28.85 5.852 30.016 C 7.652 31.257 8.937 32.61 10.456 34.175 C 11.633 35.387 12.601 36.445 13.625 37.79 C 14.44 38.859 14.786 40.025 15.773 40.953 C 16.911 42.022 18.143 42.605 19.629 43.064 Q 21.107 43.52 23.981 43.496" fill="none" vector-effect="non-scaling-stroke" stroke-width="1" stroke="rgb(0,0,0)" stroke-linejoin="round" stroke-linecap="round" stroke-miterlimit="3"/><path d=" M 20.211 29.898 Q 18.749 29.867 18.081 30.264 C 17.745 30.463 17.474 30.672 17.25 30.994 Q 16.788 31.656 17.006 33.184 Q 17.094 31.779 17.676 31.339 C 17.925 31.15 18.186 31.071 18.487 30.994 Q 19.068 30.844 20.17 31.055 L 20.211 29.898 Z " fill="rgb(79,12,0)"/><path d=" M 23.981 35.529 Q 21.91 34.576 21.146 33.628 C 20.568 32.912 19.894 32.248 20.015 31.29 C 20.086 30.729 20.351 30.299 20.721 29.877 Q 21.552 28.932 23.981 28.962 C 24.289 31.298 24.299 33.497 23.981 35.529 Z " fill="rgb(49,49,49)"/><path d=" M 23.981 35.529 Q 21.91 34.576 21.146 33.628 C 20.568 32.912 19.894 32.248 20.015 31.29 C 20.086 30.729 20.351 30.299 20.721 29.877 Q 21.552 28.932 23.981 28.962" fill="rgb(49,49,49)" vector-effect="non-scaling-stroke" stroke-width="1" stroke="rgb(0,0,0)" stroke-linejoin="round" stroke-linecap="round" stroke-miterlimit="3"/><path d=" M 15.724 17.024 C 13.334 13.28 9.536 9.386 4.358 5.314 C 3.823 11.643 4.207 17.639 5.539 23.273" fill="rgb(255,128,0)" vector-effect="non-scaling-stroke" stroke-width="1" stroke="rgb(0,0,0)" stroke-linejoin="round" stroke-linecap="round" stroke-miterlimit="3"/><path d=" M 7.851 21.174 L 6.574 20.607 C 7.39 20.02 8.527 19.651 10.014 19.472 C 7.27 11.54 5.306 8.051 4.15 8.975 C 4.009 13.966 4.466 18.737 5.539 23.273 C 6.25 22.315 7.011 21.625 7.851 21.174 Z " fill="rgb(255,255,255)"/><path d=" M 15.724 17.024 C 13.334 13.28 9.536 9.386 4.358 5.314 C 3.823 11.643 4.207 17.639 5.539 23.273" fill="none" vector-effect="non-scaling-stroke" stroke-width="1" stroke="rgb(0,0,0)" stroke-linejoin="round" stroke-linecap="round" stroke-miterlimit="3"/><path d=" M 21.59 27.14 Q 20.272 23.274 18.548 21.967 Q 16.356 20.306 11.124 20.832 Q 11.768 25.454 13.7 26.937 Q 16.052 28.743 21.59 27.14 Z " fill="rgb(0,0,0)" vector-effect="non-scaling-stroke" stroke-width="1" stroke="rgb(0,0,0)" stroke-linejoin="round" stroke-linecap="round" stroke-miterlimit="3"/></g><g id="Group"><path d=" M 74.41 27.14 Q 75.728 23.274 77.452 21.967 Q 79.644 20.306 84.876 20.832 Q 84.232 25.454 82.3 26.937 Q 79.948 28.743 74.41 27.14 Z " fill="rgb(153,105,0)" vector-effect="non-scaling-stroke" stroke-width="1" stroke="rgb(0,0,0)" stroke-linejoin="round" stroke-linecap="round" stroke-miterlimit="3"/><path d=" M 75.52 24.476 C 75.51 24.619 75.506 24.763 75.506 24.91 C 75.506 25.894 75.715 26.807 76.073 27.56 Q 79.43 28.271 81.372 27.468 C 81.703 26.733 81.896 25.854 81.896 24.91 C 81.896 23.184 81.252 21.676 80.295 20.87 Q 78.516 21.161 77.452 21.967 Q 76.412 22.756 75.52 24.476 Z " fill="rgb(255,191,53)"/><path d=" M 74.41 27.14 Q 75.728 23.274 77.452 21.967 Q 79.644 20.306 84.876 20.832 Q 84.232 25.454 82.3 26.937 Q 79.948 28.743 74.41 27.14 Z " fill="none" vector-effect="non-scaling-stroke" stroke-width="1" stroke="rgb(0,0,0)" stroke-linejoin="round" stroke-linecap="round" stroke-miterlimit="3"/><path d=" M 69.59 27.14 Q 68.272 23.274 66.548 21.967 Q 64.356 20.306 59.124 20.832 Q 59.768 25.454 61.7 26.937 Q 64.052 28.743 69.59 27.14 Z " fill="rgb(153,105,0)" vector-effect="non-scaling-stroke" stroke-width="1" stroke="rgb(0,0,0)" stroke-linejoin="round" stroke-linecap="round" stroke-miterlimit="3"/><path d=" M 68.48 24.476 C 68.49 24.619 68.494 24.763 68.494 24.91 C 68.494 25.894 68.285 26.807 67.927 27.56 Q 64.57 28.271 62.628 27.468 C 62.297 26.733 62.104 25.854 62.104 24.91 C 62.104 23.184 62.748 21.676 63.705 20.87 Q 65.484 21.161 66.548 21.967 Q 67.588 22.756 68.48 24.476 Z " fill="rgb(255,191,53)"/><path d=" M 69.59 27.14 Q 68.272 23.274 66.548 21.967 Q 64.356 20.306 59.124 20.832 Q 59.768 25.454 61.7 26.937 Q 64.052 28.743 69.59 27.14 Z " fill="none" vector-effect="non-scaling-stroke" stroke-width="1" stroke="rgb(0,0,0)" stroke-linejoin="round" stroke-linecap="round" stroke-miterlimit="3"/></g><g id="Group"><path d=" M 26.65 88.041 C 27.819 87.842 28.772 87.515 29.903 87.165 C 31.454 86.685 32.754 86.234 34.24 85.58 C 35.753 84.915 37.082 84.405 38.411 83.411 C 39.368 82.696 40.119 82.005 40.872 81.076 C 41.681 80.077 42.194 79.105 42.748 77.948 C 43.296 76.805 43.675 75.795 43.999 74.57 C 44.399 73.064 44.585 71.748 44.625 70.191 C 44.663 68.748 44.729 67.489 44.291 66.104 C 43.94 64.991 43.435 64.124 42.748 63.184 C 42.012 62.176 41.297 61.364 40.246 60.682 C 39.037 59.897 37.81 59.641 36.409 59.347 C 33.832 58.806 31.576 59.204 28.985 59.556 Q 27.21 59.797 24 60.609 C 23.307 69.749 23.317 78.987 24 88.292 Q 25.727 88.198 26.65 88.041 Z " fill="rgb(0,255,47)"/><path d=" M 21.35 88.041 C 20.181 87.842 19.228 87.515 18.097 87.165 C 16.546 86.685 15.246 86.234 13.76 85.58 C 12.247 84.915 10.918 84.405 9.589 83.411 C 8.632 82.696 7.881 82.005 7.128 81.076 C 6.319 80.077 5.806 79.105 5.252 77.948 C 4.704 76.805 4.325 75.795 4.001 74.57 C 3.601 73.064 3.415 71.748 3.375 70.191 C 3.337 68.748 3.271 67.489 3.709 66.104 C 4.06 64.991 4.565 64.124 5.252 63.184 C 5.988 62.176 6.703 61.364 7.754 60.682 C 8.963 59.897 10.19 59.641 11.591 59.347 C 14.168 58.806 16.424 59.204 19.015 59.556 Q 20.79 59.797 24 60.609 C 24.693 69.749 24.683 78.987 24 88.292 Q 22.273 88.198 21.35 88.041 Z " fill="rgb(0,255,47)"/><path d=" M 26.65 88.041 C 27.819 87.842 28.772 87.515 29.903 87.165 C 31.454 86.685 32.754 86.234 34.24 85.58 C 35.753 84.915 37.082 84.405 38.411 83.411 C 39.368 82.696 40.119 82.005 40.872 81.076 C 41.681 80.077 42.194 79.105 42.748 77.948 C 43.296 76.805 43.675 75.795 43.999 74.57 C 44.399 73.064 44.828 71.751 44.625 70.191 C 44.47 68.996 44.497 67.755 43.499 66.979 C 42.294 66.043 40.837 66.603 39.495 67.104 C 37.647 67.795 36.896 69.502 35.742 71.025 C 34.386 72.813 34 74.805 32.614 76.572 C 31.466 78.035 30.561 79.461 28.86 80.283 Q 27.282 81.047 24 80.992 C 23.641 83.62 23.651 86.063 24 88.292 Q 25.727 88.198 26.65 88.041 Z " fill="rgb(247,223,140)"/><path d=" M 21.35 88.041 C 20.181 87.842 19.228 87.515 18.097 87.165 C 16.546 86.685 15.246 86.234 13.76 85.58 C 12.247 84.915 10.918 84.405 9.589 83.411 C 8.632 82.696 7.881 82.005 7.128 81.076 C 6.319 80.077 5.806 79.105 5.252 77.948 C 4.704 76.805 4.325 75.795 4.001 74.57 C 3.601 73.064 3.172 71.751 3.375 70.191 C 3.53 68.996 3.503 67.755 4.501 66.979 C 5.706 66.043 7.163 66.603 8.505 67.104 C 10.353 67.795 11.104 69.502 12.258 71.025 C 13.614 72.813 14 74.805 15.386 76.572 C 16.534 78.035 17.439 79.461 19.14 80.283 Q 20.718 81.047 24 80.992 C 24.359 83.62 24.349 86.063 24 88.292 Q 22.273 88.198 21.35 88.041 Z " fill="rgb(247,223,140)"/><path d=" M 24 88.292 Q 22.273 88.198 21.35 88.041 C 20.181 87.842 19.228 87.515 18.097 87.165 C 16.546 86.685 15.246 86.234 13.76 85.58 C 12.247 84.915 10.918 84.405 9.589 83.411 C 8.632 82.696 7.881 82.005 7.128 81.076 C 6.319 80.077 5.806 79.105 5.252 77.948 C 4.704 76.805 4.325 75.795 4.001 74.57 C 3.601 73.064 3.415 71.748 3.375 70.191 C 3.337 68.748 3.271 67.489 3.709 66.104 C 4.06 64.991 4.565 64.124 5.252 63.184 C 5.988 62.176 6.703 61.364 7.754 60.682 C 8.963 59.897 10.19 59.641 11.591 59.347 C 14.168 58.806 16.424 59.204 19.015 59.556 Q 20.79 59.797 24 60.609" fill="none" vector-effect="non-scaling-stroke" stroke-width="1" stroke="rgb(0,0,0)" stroke-linejoin="round" stroke-linecap="round" stroke-miterlimit="3"/><path d=" M 24 88.292 Q 25.727 88.198 26.65 88.041 C 27.819 87.842 28.772 87.515 29.903 87.165 C 31.454 86.685 32.754 86.234 34.24 85.58 C 35.753 84.915 37.082 84.405 38.411 83.411 C 39.368 82.696 40.119 82.005 40.872 81.076 C 41.681 80.077 42.194 79.105 42.748 77.948 C 43.296 76.805 43.675 75.795 44 74.57 C 44.399 73.064 44.585 71.748 44.625 70.191 C 44.663 68.748 44.729 67.489 44.291 66.104 C 43.94 64.991 43.435 64.124 42.748 63.184 C 42.012 62.176 41.297 61.364 40.246 60.682 C 39.037 59.897 37.81 59.641 36.409 59.347 C 33.832 58.806 31.576 59.204 28.985 59.556 Q 27.21 59.797 24 60.609" fill="none" vector-effect="non-scaling-stroke" stroke-width="1" stroke="rgb(0,0,0)" stroke-linejoin="round" stroke-linecap="round" stroke-miterlimit="3"/><path d=" M 28.524 75.543 Q 28.663 72.934 29.079 71.588 C 29.332 70.771 29.623 70.104 30.019 69.346 C 30.675 68.094 31.325 67.061 32.358 66.091 Q 33.225 65.276 35.155 64.21" fill="none" vector-effect="non-scaling-stroke" stroke-width="1" stroke="rgb(0,174,41)" stroke-linejoin="round" stroke-linecap="round" stroke-miterlimit="3"/><path d=" M 33.609 74.372 C 32.054 73.671 31.759 71.965 31.604 70.361 C 31.466 68.926 31.783 67.67 32.532 66.441 C 33.464 64.911 34.731 63.726 36.542 63.508 C 37.152 63.434 37.689 63.413 38.278 63.597 C 39.328 63.925 40.243 64.616 40.493 65.662 C 40.959 67.613 41.215 69.822 40.672 71.528 C 40.319 72.641 39.307 73.255 38.278 73.833 C 37.344 74.357 36.451 74.673 35.375 74.671 C 34.743 74.67 34.189 74.633 33.609 74.372 Z " fill="rgb(0,0,0)" vector-effect="non-scaling-stroke" stroke-width="1" stroke="rgb(0,0,0)" stroke-linejoin="round" stroke-linecap="round" stroke-miterlimit="3"/><path d=" M 19.476 75.543 Q 19.337 72.934 18.921 71.588 C 18.668 70.771 18.377 70.104 17.981 69.346 C 17.325 68.094 16.675 67.061 15.642 66.091 Q 14.775 65.276 12.845 64.21" fill="none" vector-effect="non-scaling-stroke" stroke-width="1" stroke="rgb(0,174,41)" stroke-linejoin="round" stroke-linecap="round" stroke-miterlimit="3"/><path d=" M 14.391 74.372 C 15.946 73.671 16.241 71.965 16.396 70.361 C 16.534 68.926 16.217 67.67 15.468 66.441 C 14.536 64.911 13.269 63.727 11.458 63.508 C 10.848 63.434 10.311 63.413 9.722 63.597 C 8.672 63.925 7.757 64.616 7.507 65.662 C 7.041 67.613 6.785 69.822 7.328 71.528 C 7.681 72.641 8.693 73.255 9.722 73.833 C 10.656 74.357 11.549 74.673 12.625 74.671 C 13.257 74.67 13.811 74.633 14.391 74.372 Z " fill="rgb(0,0,0)" vector-effect="non-scaling-stroke" stroke-width="1" stroke="rgb(0,0,0)" stroke-linejoin="round" stroke-linecap="round" stroke-miterlimit="3"/></g><g id="Group"><path d=" M 81.609 74.372 C 80.054 73.671 79.759 71.965 79.604 70.361 C 79.466 68.926 79.783 67.67 80.532 66.441 C 81.464 64.911 82.731 63.727 84.542 63.508 C 85.152 63.434 85.689 63.413 86.278 63.597 C 87.328 63.925 88.243 64.616 88.493 65.662 C 88.959 67.613 89.215 69.822 88.672 71.528 C 88.319 72.641 87.307 73.255 86.278 73.833 C 85.344 74.357 84.451 74.673 83.375 74.671 C 82.743 74.67 82.189 74.633 81.609 74.372 Z " fill="rgb(0,115,52)" vector-effect="non-scaling-stroke" stroke-width="1" stroke="rgb(0,0,0)" stroke-linejoin="round" stroke-linecap="round" stroke-miterlimit="3"/><path d=" M 83.841 63.637 C 85.148 64.314 86.094 66.262 86.094 68.557 C 86.094 71.411 84.63 73.729 82.828 73.729 C 81.185 73.729 79.824 71.803 79.601 69.297 C 79.656 68.285 79.975 67.355 80.532 66.441 C 81.34 65.115 82.399 64.049 83.841 63.637 Z " fill="rgb(89,255,139)"/><path d=" M 81.609 74.372 C 80.054 73.671 79.759 71.965 79.604 70.361 C 79.466 68.926 79.783 67.67 80.532 66.441 C 81.464 64.911 82.731 63.727 84.542 63.508 C 85.152 63.434 85.689 63.413 86.278 63.597 C 87.328 63.925 88.243 64.616 88.493 65.662 C 88.959 67.613 89.215 69.822 88.672 71.528 C 88.319 72.641 87.307 73.255 86.278 73.833 C 85.344 74.357 84.451 74.673 83.375 74.671 C 82.743 74.67 82.189 74.633 81.609 74.372 Z " fill="none" vector-effect="non-scaling-stroke" stroke-width="1" stroke="rgb(0,0,0)" stroke-linejoin="round" stroke-linecap="round" stroke-miterlimit="3"/><path d=" M 62.391 74.372 C 63.946 73.671 64.241 71.965 64.396 70.361 C 64.534 68.926 64.217 67.67 63.468 66.441 C 62.536 64.911 61.269 63.727 59.458 63.508 C 58.848 63.434 58.311 63.413 57.722 63.597 C 56.672 63.925 55.757 64.616 55.507 65.662 C 55.041 67.613 54.785 69.822 55.328 71.528 C 55.681 72.641 56.693 73.255 57.722 73.833 C 58.656 74.357 59.549 74.673 60.625 74.671 C 61.257 74.67 61.811 74.633 62.391 74.372 Z " fill="rgb(0,115,52)" vector-effect="non-scaling-stroke" stroke-width="1" stroke="rgb(0,0,0)" stroke-linejoin="round" stroke-linecap="round" stroke-miterlimit="3"/><path d=" M 60.159 63.637 C 58.852 64.314 57.906 66.262 57.906 68.557 C 57.906 71.411 59.37 73.729 61.172 73.729 C 62.815 73.729 64.176 71.803 64.399 69.297 C 64.344 68.285 64.025 67.355 63.468 66.441 C 62.66 65.115 61.601 64.049 60.159 63.637 Z " fill="rgb(89,255,139)"/><path d=" M 62.391 74.372 C 63.946 73.671 64.241 71.965 64.396 70.361 C 64.534 68.926 64.217 67.67 63.468 66.441 C 62.536 64.911 61.269 63.727 59.458 63.508 C 58.848 63.434 58.311 63.413 57.722 63.597 C 56.672 63.925 55.757 64.616 55.507 65.662 C 55.041 67.613 54.785 69.822 55.328 71.528 C 55.681 72.641 56.693 73.255 57.722 73.833 C 58.656 74.357 59.549 74.673 60.625 74.671 C 61.257 74.67 61.811 74.633 62.391 74.372 Z " fill="none" vector-effect="non-scaling-stroke" stroke-width="1" stroke="rgb(0,0,0)" stroke-linejoin="round" stroke-linecap="round" stroke-miterlimit="3"/></g><g id="Group"><path d=" M 24 100.438 Q 28.104 100.192 30.313 100.438 Q 32.44 100.674 36.25 101.75 Q 36.814 100.156 37.438 99.5 C 38.139 98.761 38.94 98.328 39.938 98.125 C 40.902 97.928 41.808 97.906 42.688 98.375 C 43.458 98.786 43.879 99.443 44.313 100.188 C 44.825 101.066 45.016 101.93 45.125 102.938 C 45.257 104.155 45.187 105.227 44.75 106.375 Q 44.314 107.521 42.75 109.188 Q 43.906 110.673 44.25 111.625 C 44.637 112.695 44.612 113.683 44.625 114.813 C 44.637 115.85 44.528 116.725 44.375 117.75 C 44.209 118.863 44.125 119.833 43.688 120.875 C 43.225 121.977 42.565 122.766 41.813 123.688 C 41.026 124.652 40.203 125.321 39.313 126.188 C 38.467 127.011 37.652 127.609 36.875 128.5 C 35.992 129.512 35.361 130.464 34.688 131.625 C 34.194 132.475 33.781 133.203 33.438 134.125 C 33.097 135.04 33.261 135.966 32.75 136.813 C 32.328 137.51 31.746 137.92 31.125 138.438 C 30.28 139.141 29.481 139.631 28.5 140.125 C 27.493 140.632 26.63 141.121 25.5 141.25 Q 24.975 141.31 24 141.25 C 22.319 126.543 22.329 112.949 24 100.438 Z " fill="rgb(132,80,45)"/><path d=" M 24 100.438 Q 19.896 100.192 17.688 100.438 Q 15.56 100.674 11.75 101.75 Q 11.186 100.156 10.563 99.5 C 9.861 98.761 9.06 98.328 8.063 98.125 C 7.098 97.928 6.192 97.906 5.313 98.375 C 4.542 98.786 4.121 99.443 3.688 100.188 C 3.175 101.066 2.984 101.93 2.875 102.938 C 2.743 104.155 2.813 105.227 3.25 106.375 Q 3.686 107.521 5.25 109.188 Q 4.094 110.673 3.75 111.625 C 3.363 112.695 3.388 113.683 3.375 114.813 C 3.363 115.85 3.472 116.725 3.625 117.75 C 3.791 118.863 3.875 119.833 4.313 120.875 C 4.775 121.977 5.435 122.766 6.188 123.688 C 6.974 124.652 7.797 125.321 8.688 126.188 C 9.533 127.011 10.348 127.609 11.125 128.5 C 12.008 129.512 12.639 130.464 13.313 131.625 C 13.806 132.475 14.219 133.203 14.563 134.125 C 14.903 135.04 14.739 135.966 15.25 136.813 C 15.672 137.51 16.254 137.92 16.875 138.438 C 17.72 139.141 18.519 139.631 19.5 140.125 C 20.507 140.632 21.37 141.121 22.5 141.25 Q 23.025 141.31 24 141.25 C 25.681 126.543 25.671 112.949 24 100.438 Z " fill="rgb(132,80,45)"/><path d=" M 24 100.438 Q 28.104 100.192 30.313 100.438 Q 32.44 100.674 36.25 101.75 Q 36.814 100.156 37.438 99.5 C 38.139 98.761 38.94 98.328 39.938 98.125 C 40.902 97.928 41.808 97.906 42.688 98.375 C 43.458 98.786 43.879 99.443 44.313 100.188 C 44.825 101.066 45.016 101.93 45.125 102.938 C 45.257 104.155 45.187 105.227 44.75 106.375 Q 44.314 107.521 42.75 109.188 Q 43.906 110.673 44.25 111.625 C 44.637 112.695 44.612 113.683 44.625 114.813 C 44.637 115.85 44.528 116.725 44.375 117.75 C 44.209 118.863 44.125 119.833 43.688 120.875 C 43.225 121.977 42.565 122.766 41.813 123.688 C 41.026 124.652 40.203 125.321 39.313 126.188 C 38.467 127.011 37.652 127.609 36.875 128.5 C 35.992 129.512 35.361 130.464 34.688 131.625 C 34.194 132.475 33.781 133.203 33.438 134.125 C 33.097 135.04 33.261 135.966 32.75 136.813 C 32.328 137.51 31.746 137.92 31.125 138.438 C 30.28 139.141 29.481 139.631 28.5 140.125 C 27.493 140.632 26.63 141.121 25.5 141.25 Q 24.975 141.31 24 141.25" fill="none" vector-effect="non-scaling-stroke" stroke-width="1" stroke="rgb(0,0,0)" stroke-linejoin="round" stroke-linecap="round" stroke-miterlimit="3"/><path d=" M 24 100.438 Q 19.896 100.192 17.688 100.438 Q 15.56 100.674 11.75 101.75 Q 11.186 100.156 10.563 99.5 C 9.861 98.761 9.06 98.328 8.063 98.125 C 7.098 97.928 6.192 97.906 5.313 98.375 C 4.542 98.786 4.121 99.443 3.688 100.188 C 3.175 101.066 2.984 101.93 2.875 102.938 C 2.743 104.155 2.813 105.227 3.25 106.375 Q 3.686 107.521 5.25 109.188 Q 4.094 110.673 3.75 111.625 C 3.363 112.695 3.388 113.683 3.375 114.813 C 3.363 115.85 3.472 116.725 3.625 117.75 C 3.791 118.863 3.875 119.833 4.313 120.875 C 4.775 121.977 5.435 122.766 6.188 123.688 C 6.974 124.652 7.797 125.321 8.688 126.188 C 9.533 127.011 10.348 127.609 11.125 128.5 C 12.008 129.512 12.639 130.464 13.313 131.625 C 13.806 132.475 14.219 133.203 14.563 134.125 C 14.903 135.04 14.739 135.966 15.25 136.813 C 15.672 137.51 16.254 137.92 16.875 138.438 C 17.72 139.141 18.519 139.631 19.5 140.125 C 20.507 140.632 21.37 141.121 22.5 141.25 Q 23.025 141.31 24 141.25" fill="none" vector-effect="non-scaling-stroke" stroke-width="1" stroke="rgb(0,0,0)" stroke-linejoin="round" stroke-linecap="round" stroke-miterlimit="3"/><path d=" M 24 137.403 Q 24.982 137.321 25.493 137.174 C 26.038 137.017 26.488 136.83 26.964 136.52 C 27.402 136.235 27.789 135.983 28.075 135.54 C 28.422 135.003 28.435 134.433 28.5 133.808 C 28.551 133.327 28.582 132.912 28.5 132.435 C 28.411 131.913 28.205 131.505 27.977 131.029 C 27.728 130.508 27.538 130.037 27.128 129.624 C 26.75 129.243 26.343 129.02 25.853 128.807 Q 25.238 128.54 24 128.415 C 23.463 131.785 23.473 134.791 24 137.403 Z " fill="rgb(45,45,45)"/><path d=" M 24 137.403 Q 23.018 137.321 22.507 137.174 C 21.962 137.017 21.512 136.83 21.036 136.52 C 20.598 136.235 20.211 135.983 19.925 135.54 C 19.578 135.003 19.565 134.433 19.5 133.808 C 19.449 133.327 19.418 132.912 19.5 132.435 C 19.589 131.913 19.795 131.505 20.023 131.029 C 20.272 130.508 20.462 130.037 20.872 129.624 C 21.25 129.243 21.657 129.02 22.147 128.807 Q 22.762 128.54 24 128.415 C 24.537 131.785 24.527 134.791 24 137.403 Z " fill="rgb(45,45,45)"/><path d=" M 24 137.403 Q 24.982 137.321 25.493 137.174 C 26.038 137.017 26.488 136.83 26.964 136.52 C 27.402 136.235 27.789 135.983 28.075 135.54 C 28.422 135.003 28.435 134.433 28.5 133.808 C 28.551 133.327 28.582 132.912 28.5 132.435 C 28.411 131.913 28.205 131.505 27.977 131.029 C 27.728 130.508 27.538 130.037 27.128 129.624 C 26.75 129.243 26.343 129.02 25.853 128.807 Q 25.238 128.54 24 128.415" fill="none" vector-effect="non-scaling-stroke" stroke-width="1" stroke="rgb(0,0,0)" stroke-linejoin="round" stroke-linecap="round" stroke-miterlimit="3"/><path d=" M 24 137.403 Q 23.018 137.321 22.507 137.174 C 21.962 137.017 21.512 136.83 21.036 136.52 C 20.598 136.235 20.211 135.983 19.925 135.54 C 19.578 135.003 19.565 134.433 19.5 133.808 C 19.449 133.327 19.418 132.912 19.5 132.435 C 19.589 131.913 19.795 131.505 20.023 131.029 C 20.272 130.508 20.462 130.037 20.872 129.624 C 21.25 129.243 21.657 129.02 22.147 128.807 Q 22.762 128.54 24 128.415" fill="none" vector-effect="non-scaling-stroke" stroke-width="1" stroke="rgb(0,0,0)" stroke-linejoin="round" stroke-linecap="round" stroke-miterlimit="3"/><path d=" M 30.956 118.081 Q 30.302 117.081 30.182 116.451 C 30.04 115.704 30.179 115.047 30.426 114.333 C 30.664 113.649 30.961 113.086 31.485 112.582 C 32.042 112.047 32.667 111.789 33.4 111.564 C 34.065 111.359 34.661 111.23 35.355 111.319 C 35.865 111.385 36.337 111.433 36.74 111.767 C 37.037 112.014 37.204 112.309 37.351 112.663 C 37.58 113.216 37.524 113.745 37.473 114.333 C 37.419 114.955 37.293 115.479 37.025 116.044 C 36.755 116.615 36.452 117.074 35.971 117.487 C 35.422 117.958 34.826 118.172 34.133 118.366 C 33.451 118.556 32.839 118.712 32.137 118.569 Q 31.694 118.479 30.956 118.081 Z " fill="rgb(0,0,0)" vector-effect="non-scaling-stroke" stroke-width="1" stroke="rgb(0,0,0)" stroke-linejoin="round" stroke-linecap="round" stroke-miterlimit="3"/><path d=" M 17.044 118.081 Q 17.698 117.081 17.818 116.451 C 17.96 115.704 17.821 115.047 17.574 114.333 C 17.336 113.649 17.039 113.086 16.515 112.582 C 15.958 112.047 15.333 111.789 14.6 111.564 C 13.935 111.359 13.339 111.23 12.645 111.319 C 12.135 111.385 11.663 111.433 11.26 111.767 C 10.963 112.014 10.796 112.309 10.649 112.663 C 10.42 113.216 10.476 113.745 10.527 114.333 C 10.581 114.955 10.707 115.479 10.975 116.044 C 11.245 116.615 11.548 117.074 12.029 117.487 C 12.578 117.958 13.174 118.172 13.867 118.366 C 14.549 118.556 15.161 118.712 15.863 118.569 Q 16.306 118.479 17.044 118.081 Z " fill="rgb(0,0,0)" vector-effect="non-scaling-stroke" stroke-width="1" stroke="rgb(0,0,0)" stroke-linejoin="round" stroke-linecap="round" stroke-miterlimit="3"/></g><g id="Group"><path d=" M 78.956 117.717 Q 78.302 116.717 78.182 116.088 C 78.04 115.341 78.179 114.683 78.426 113.97 C 78.664 113.285 78.961 112.723 79.485 112.218 C 80.042 111.683 80.667 111.425 81.4 111.2 C 82.065 110.996 82.661 110.867 83.355 110.956 C 83.865 111.021 84.337 111.069 84.74 111.404 C 85.037 111.65 85.204 111.945 85.351 112.3 C 85.58 112.853 85.524 113.381 85.473 113.97 C 85.419 114.592 85.293 115.116 85.025 115.681 C 84.755 116.251 84.452 116.71 83.971 117.123 C 83.422 117.595 82.826 117.809 82.133 118.002 C 81.451 118.193 80.839 118.349 80.137 118.206 Q 79.694 118.116 78.956 117.717 Z " fill="rgb(108,0,0)" vector-effect="non-scaling-stroke" stroke-width="1" stroke="rgb(0,0,0)" stroke-linejoin="round" stroke-linecap="round" stroke-miterlimit="3"/><path d=" M 78.948 112.898 C 78.869 113.307 78.826 113.747 78.826 114.205 C 78.826 116.269 79.695 117.978 80.824 118.252 C 81.19 118.243 81.545 118.162 81.918 118.062 C 82.822 117.505 83.471 115.987 83.471 114.205 C 83.471 112.881 83.113 111.702 82.557 110.959 C 82.171 110.982 81.798 111.078 81.4 111.2 C 80.667 111.425 80.042 111.683 79.485 112.218 C 79.266 112.43 79.086 112.651 78.948 112.898 Z " fill="rgb(251,84,65)"/><path d=" M 78.956 117.717 Q 78.302 116.717 78.182 116.088 C 78.04 115.341 78.179 114.683 78.426 113.97 C 78.664 113.285 78.961 112.723 79.485 112.218 C 80.042 111.683 80.667 111.425 81.4 111.2 C 82.065 110.996 82.661 110.867 83.355 110.956 C 83.865 111.021 84.337 111.069 84.74 111.404 C 85.037 111.65 85.204 111.945 85.351 112.3 C 85.58 112.853 85.524 113.381 85.473 113.97 C 85.419 114.592 85.293 115.116 85.025 115.681 C 84.755 116.251 84.452 116.71 83.971 117.123 C 83.422 117.595 82.826 117.809 82.133 118.002 C 81.451 118.193 80.839 118.349 80.137 118.206 Q 79.694 118.116 78.956 117.717 Z " fill="none" vector-effect="non-scaling-stroke" stroke-width="1" stroke="rgb(0,0,0)" stroke-linejoin="round" stroke-linecap="round" stroke-miterlimit="3"/><path d=" M 65.044 117.717 Q 65.698 116.717 65.818 116.088 C 65.96 115.341 65.821 114.683 65.574 113.97 C 65.336 113.285 65.039 112.723 64.515 112.218 C 63.958 111.683 63.333 111.425 62.6 111.2 C 61.935 110.996 61.339 110.867 60.645 110.956 C 60.135 111.021 59.663 111.069 59.26 111.404 C 58.963 111.65 58.796 111.945 58.649 112.3 C 58.42 112.853 58.476 113.381 58.527 113.97 C 58.581 114.592 58.707 115.116 58.975 115.681 C 59.245 116.251 59.548 116.71 60.029 117.123 C 60.578 117.595 61.174 117.809 61.867 118.002 C 62.549 118.193 63.161 118.349 63.863 118.206 Q 64.306 118.116 65.044 117.717 Z " fill="rgb(108,0,0)" vector-effect="non-scaling-stroke" stroke-width="1" stroke="rgb(0,0,0)" stroke-linejoin="round" stroke-linecap="round" stroke-miterlimit="3"/><path d=" M 65.052 112.898 C 65.131 113.307 65.174 113.747 65.174 114.205 C 65.174 116.269 64.305 117.978 63.176 118.252 C 62.81 118.243 62.455 118.162 62.082 118.062 C 61.178 117.505 60.529 115.987 60.529 114.205 C 60.529 112.881 60.887 111.702 61.443 110.959 C 61.829 110.982 62.202 111.078 62.6 111.2 C 63.333 111.425 63.958 111.683 64.515 112.218 C 64.734 112.43 64.914 112.651 65.052 112.898 Z " fill="rgb(251,84,65)"/><path d=" M 65.044 117.717 Q 65.698 116.717 65.818 116.088 C 65.96 115.341 65.821 114.683 65.574 113.97 C 65.336 113.285 65.039 112.723 64.515 112.218 C 63.958 111.683 63.333 111.425 62.6 111.2 C 61.935 110.996 61.339 110.867 60.645 110.956 C 60.135 111.021 59.663 111.069 59.26 111.404 C 58.963 111.65 58.796 111.945 58.649 112.3 C 58.42 112.853 58.476 113.381 58.527 113.97 C 58.581 114.592 58.707 115.116 58.975 115.681 C 59.245 116.251 59.548 116.71 60.029 117.123 C 60.578 117.595 61.174 117.809 61.867 118.002 C 62.549 118.193 63.161 118.349 63.863 118.206 Q 64.306 118.116 65.044 117.717 Z " fill="none" vector-effect="non-scaling-stroke" stroke-width="1" stroke="rgb(0,0,0)" stroke-linejoin="round" stroke-linecap="round" stroke-miterlimit="3"/></g><g id="Group"><path d=" M 24 156.657 C 26.088 156.614 28.067 156.661 29.908 156.767 Q 31.692 154.793 32.779 153.848 C 33.658 153.085 34.449 152.493 35.411 151.838 C 36.323 151.218 37.076 150.647 38.091 150.211 Q 39.491 149.61 42.302 149.302 Q 42.706 152.839 42.638 154.764 C 42.583 156.317 42.5 157.641 42.138 159.155 C 41.825 160.46 41.452 161.541 40.867 162.749 Q 40.396 163.721 39.288 165.381 Q 41.361 165.313 42.398 165.716 Q 42.997 165.948 43.977 166.625 Q 43.618 167.745 43.307 168.3 Q 42.785 169.232 41.297 170.549 L 43.546 171.363 Q 43.353 173.209 43.116 174.186 C 42.86 175.242 42.586 176.127 42.111 177.105 C 41.387 178.596 40.544 179.755 39.326 180.879 C 38.022 182.083 36.654 182.773 35.029 183.469 C 33.705 184.036 32.518 184.34 31.113 184.648 C 29.551 184.99 28.203 185.164 26.606 185.24 Q 25.691 185.284 24 185.24 C 22.571 176.748 22.581 167.23 24 156.657 Z " fill="rgb(134,134,134)"/><path d=" M 24 156.657 C 21.912 156.614 19.933 156.661 18.092 156.767 Q 16.308 154.793 15.221 153.848 C 14.342 153.085 13.551 152.493 12.589 151.838 C 11.677 151.219 10.924 150.647 9.909 150.211 Q 8.509 149.61 5.698 149.302 Q 5.294 152.839 5.362 154.764 C 5.417 156.317 5.5 157.641 5.862 159.155 C 6.175 160.46 6.548 161.541 7.133 162.749 Q 7.604 163.721 8.712 165.381 Q 6.639 165.313 5.602 165.716 Q 5.003 165.948 4.023 166.625 Q 4.382 167.745 4.693 168.3 Q 5.215 169.232 6.703 170.549 L 4.454 171.363 Q 4.647 173.209 4.884 174.186 C 5.14 175.242 5.414 176.127 5.889 177.105 C 6.613 178.596 7.456 179.755 8.674 180.879 C 9.978 182.083 11.346 182.773 12.971 183.469 C 14.295 184.036 15.482 184.34 16.887 184.648 C 18.449 184.99 19.797 185.164 21.394 185.24 Q 22.309 185.284 24 185.24 C 25.429 176.748 25.419 167.23 24 156.657 Z " fill="rgb(134,134,134)"/><path d=" M 24 160.004 C 26.088 159.961 26.557 160.62 28.8 162.906 C 30.268 164.403 31.657 165.545 32.801 167.303 C 33.719 168.715 34.341 170.013 34.868 171.612 C 35.308 172.95 35.661 174.112 35.703 175.525 C 35.749 177.087 35.558 178.434 34.956 179.878 C 34.43 181.14 33.811 182.161 32.801 183.088 C 31.056 184.691 28.922 185.02 26.606 185.24 Q 25.693 185.327 24 185.24 C 23.178 174.994 23.188 166.592 24 160.004 Z " fill="rgb(210,210,210)"/><path d=" M 24 160.004 C 21.912 159.961 21.443 160.62 19.2 162.906 C 17.732 164.403 16.343 165.545 15.199 167.303 C 14.281 168.715 13.659 170.013 13.132 171.612 C 12.692 172.95 12.339 174.112 12.297 175.526 C 12.251 177.087 12.442 178.434 13.044 179.878 C 13.57 181.14 14.189 182.161 15.199 183.088 C 16.944 184.691 19.078 185.02 21.394 185.24 Q 22.307 185.327 24 185.24 C 24.822 174.994 24.812 166.592 24 160.004 Z " fill="rgb(210,210,210)"/><path d=" M 42.448 151.288 Q 40.918 152.02 40.207 152.597 C 39.524 153.151 39.06 153.743 38.521 154.435 C 37.869 155.27 37.365 156.02 36.909 156.977 Q 36.524 157.785 36.053 159.369 C 36.917 159.258 37.716 159.302 38.42 159.47 L 37.74 160.527 C 39.392 160.339 40.535 160.66 41.139 161.459 L 42.272 158.11 L 42.75 154.712 L 42.448 151.288 Z " fill="rgb(210,210,210)"/><path d=" M 5.552 151.288 Q 7.082 152.02 7.793 152.597 C 8.476 153.151 8.94 153.743 9.479 154.435 C 10.131 155.27 10.635 156.02 11.091 156.977 Q 11.476 157.785 11.947 159.369 C 11.083 159.258 10.284 159.302 9.58 159.47 L 10.26 160.527 C 8.608 160.339 7.465 160.66 6.861 161.459 L 5.728 158.11 L 5.25 154.712 L 5.552 151.288 Z " fill="rgb(210,210,210)"/><path d=" M 24 156.657 C 26.088 156.614 28.067 156.661 29.908 156.767 Q 31.692 154.793 32.779 153.848 C 33.658 153.085 34.449 152.493 35.411 151.838 C 36.323 151.219 37.076 150.647 38.091 150.211 Q 39.491 149.61 42.302 149.302 Q 42.706 152.839 42.638 154.764 C 42.583 156.317 42.5 157.641 42.138 159.155 C 41.825 160.46 41.452 161.541 40.867 162.749 Q 40.396 163.721 39.288 165.381 Q 41.361 165.313 42.398 165.716 Q 42.997 165.948 43.977 166.625 Q 43.618 167.745 43.307 168.3 Q 42.785 169.232 41.297 170.549 L 43.546 171.363 Q 43.353 173.209 43.116 174.186 C 42.86 175.242 42.586 176.127 42.111 177.105 C 41.387 178.596 40.544 179.755 39.326 180.879 C 38.022 182.083 36.654 182.773 35.029 183.469 C 33.705 184.036 32.518 184.34 31.113 184.648 C 29.551 184.99 28.203 185.164 26.606 185.24 Q 25.691 185.284 24 185.24" fill="none" vector-effect="non-scaling-stroke" stroke-width="1" stroke="rgb(0,0,0)" stroke-linejoin="round" stroke-linecap="round" stroke-miterlimit="3"/><path d=" M 24 156.657 C 21.912 156.614 19.933 156.661 18.092 156.767 Q 16.308 154.793 15.221 153.848 C 14.342 153.085 13.551 152.493 12.589 151.838 C 11.677 151.219 10.924 150.647 9.909 150.211 Q 8.509 149.61 5.698 149.302 Q 5.294 152.839 5.362 154.764 C 5.417 156.317 5.5 157.641 5.862 159.155 C 6.175 160.46 6.548 161.541 7.133 162.749 Q 7.604 163.721 8.712 165.381 Q 6.639 165.313 5.602 165.716 Q 5.003 165.948 4.023 166.625 Q 4.382 167.745 4.693 168.3 Q 5.215 169.232 6.703 170.549 L 4.454 171.363 Q 4.647 173.209 4.884 174.186 C 5.14 175.242 5.414 176.127 5.889 177.105 C 6.613 178.596 7.456 179.755 8.674 180.879 C 9.978 182.083 11.346 182.773 12.971 183.469 C 14.295 184.036 15.482 184.34 16.887 184.648 C 18.449 184.99 19.797 185.164 21.394 185.24 Q 22.309 185.284 24 185.24" fill="none" vector-effect="non-scaling-stroke" stroke-width="1" stroke="rgb(0,0,0)" stroke-linejoin="round" stroke-linecap="round" stroke-miterlimit="3"/><path d=" M 24 172.335 Q 25.244 172.274 25.907 172.386 C 26.397 172.468 26.804 172.583 27.266 172.763 Q 27.78 172.964 28.651 173.493 Q 28.429 174.807 28.123 175.457 C 27.81 176.12 27.465 176.658 26.914 177.144 C 26.393 177.604 25.863 177.889 25.202 178.101 Q 24.792 178.232 24 178.327 C 23.67 176.374 23.68 174.387 24 172.335 Z " fill="rgb(255,166,208)"/><path d=" M 24 172.335 Q 22.756 172.274 22.093 172.386 C 21.603 172.468 21.196 172.583 20.734 172.763 Q 20.22 172.964 19.349 173.493 Q 19.571 174.807 19.877 175.457 C 20.19 176.12 20.535 176.658 21.086 177.144 C 21.607 177.604 22.137 177.889 22.798 178.101 Q 23.208 178.232 24 178.327 C 24.33 176.374 24.32 174.387 24 172.335 Z " fill="rgb(255,166,208)"/><path d=" M 24 172.335 Q 25.244 172.274 25.907 172.386 C 26.397 172.468 26.804 172.583 27.266 172.763 Q 27.78 172.964 28.651 173.493 Q 28.429 174.808 28.123 175.457 C 27.81 176.12 27.465 176.658 26.914 177.144 C 26.393 177.604 25.863 177.889 25.202 178.101 Q 24.792 178.232 24 178.327" fill="none" vector-effect="non-scaling-stroke" stroke-width="1" stroke="rgb(0,0,0)" stroke-linejoin="round" stroke-linecap="round" stroke-miterlimit="3"/><path d=" M 24 172.335 Q 22.756 172.274 22.093 172.386 C 21.603 172.468 21.196 172.583 20.734 172.763 Q 20.22 172.964 19.349 173.493 Q 19.571 174.807 19.877 175.457 C 20.19 176.12 20.535 176.658 21.086 177.144 C 21.607 177.604 22.137 177.889 22.798 178.101 Q 23.208 178.232 24 178.327" fill="none" vector-effect="non-scaling-stroke" stroke-width="1" stroke="rgb(0,0,0)" stroke-linejoin="round" stroke-linecap="round" stroke-miterlimit="3"/><path d=" M 28.426 168.606 C 28.235 167.949 28.207 167.365 28.182 166.684 C 28.158 166.029 27.987 165.431 28.274 164.823 C 28.504 164.336 28.859 164.015 29.311 163.725 C 29.889 163.355 30.487 163.23 31.171 163.237 C 31.761 163.244 32.28 163.326 32.788 163.634 C 33.345 163.972 33.619 164.485 33.947 165.037 C 34.227 165.509 34.427 165.936 34.557 166.471 C 34.72 167.142 34.768 167.746 34.618 168.423 C 34.489 169.003 34.322 169.506 33.916 169.948 C 33.547 170.349 33.119 170.568 32.605 170.741 C 32.212 170.872 31.859 170.907 31.446 170.924 C 30.894 170.945 30.392 170.993 29.89 170.741 C 29.478 170.533 29.208 170.231 28.945 169.856 C 28.67 169.463 28.56 169.063 28.426 168.606 Z " fill="rgb(0,0,0)" vector-effect="non-scaling-stroke" stroke-width="1" stroke="rgb(0,0,0)" stroke-linejoin="round" stroke-linecap="round" stroke-miterlimit="3"/><path d=" M 19.574 168.606 C 19.765 167.949 19.793 167.365 19.818 166.684 C 19.842 166.029 20.013 165.431 19.726 164.824 C 19.496 164.336 19.141 164.015 18.689 163.725 C 18.111 163.355 17.513 163.23 16.829 163.237 C 16.239 163.244 15.72 163.326 15.212 163.634 C 14.655 163.972 14.381 164.485 14.053 165.037 C 13.773 165.509 13.573 165.936 13.443 166.471 C 13.28 167.142 13.232 167.746 13.382 168.423 C 13.511 169.003 13.678 169.506 14.084 169.948 C 14.453 170.349 14.881 170.568 15.395 170.741 C 15.788 170.872 16.141 170.907 16.554 170.924 C 17.106 170.945 17.608 170.993 18.11 170.741 C 18.522 170.533 18.792 170.231 19.055 169.856 C 19.33 169.463 19.44 169.063 19.574 168.606 Z " fill="rgb(0,0,0)" vector-effect="non-scaling-stroke" stroke-width="1" stroke="rgb(0,0,0)" stroke-linejoin="round" stroke-linecap="round" stroke-miterlimit="3"/></g><g id="Group"><path d=" M 76.426 168.606 C 76.235 167.949 76.207 167.365 76.182 166.684 C 76.158 166.029 75.987 165.431 76.274 164.824 C 76.504 164.336 76.859 164.015 77.311 163.725 C 77.889 163.355 78.487 163.23 79.171 163.237 C 79.761 163.244 80.28 163.326 80.788 163.634 C 81.345 163.972 81.619 164.485 81.947 165.037 C 82.227 165.509 82.427 165.936 82.557 166.471 C 82.72 167.142 82.768 167.746 82.618 168.423 C 82.489 169.003 82.322 169.506 81.916 169.948 C 81.547 170.349 81.119 170.568 80.605 170.741 C 80.212 170.872 79.859 170.907 79.446 170.924 C 78.894 170.945 78.392 170.993 77.89 170.741 C 77.478 170.533 77.208 170.231 76.945 169.856 C 76.67 169.463 76.56 169.063 76.426 168.606 Z " fill="rgb(59,135,147)" vector-effect="non-scaling-stroke" stroke-width="1" stroke="rgb(0,0,0)" stroke-linejoin="round" stroke-linecap="round" stroke-miterlimit="3"/><path d=" M 77.599 166.763 C 77.599 164.931 77.955 163.444 78.393 163.444 C 78.83 163.444 79.186 164.931 79.186 166.763 C 79.186 168.595 78.83 170.082 78.393 170.082 C 77.955 170.082 77.599 168.595 77.599 166.763 Z " fill="rgb(151,241,255)"/><path d=" M 76.426 168.606 C 76.235 167.949 76.207 167.365 76.182 166.684 C 76.158 166.029 75.987 165.431 76.274 164.824 C 76.504 164.336 76.859 164.015 77.311 163.725 C 77.889 163.355 78.487 163.23 79.171 163.237 C 79.761 163.244 80.28 163.326 80.788 163.634 C 81.345 163.972 81.619 164.485 81.947 165.037 C 82.227 165.509 82.427 165.936 82.557 166.471 C 82.72 167.142 82.768 167.746 82.618 168.423 C 82.489 169.003 82.322 169.506 81.916 169.948 C 81.547 170.349 81.119 170.568 80.605 170.741 C 80.212 170.872 79.859 170.907 79.446 170.924 C 78.894 170.945 78.392 170.993 77.89 170.741 C 77.478 170.533 77.208 170.231 76.945 169.856 C 76.67 169.463 76.56 169.063 76.426 168.606 Z " fill="none" vector-effect="non-scaling-stroke" stroke-width="1" stroke="rgb(0,0,0)" stroke-linejoin="round" stroke-linecap="round" stroke-miterlimit="3"/><path d=" M 67.574 168.606 C 67.765 167.949 67.793 167.365 67.818 166.684 C 67.842 166.029 68.013 165.431 67.726 164.824 C 67.496 164.336 67.141 164.015 66.689 163.725 C 66.111 163.355 65.513 163.23 64.829 163.237 C 64.239 163.244 63.72 163.326 63.212 163.634 C 62.655 163.972 62.381 164.485 62.053 165.037 C 61.773 165.509 61.573 165.936 61.443 166.471 C 61.28 167.142 61.232 167.746 61.382 168.423 C 61.511 169.003 61.678 169.506 62.084 169.948 C 62.453 170.349 62.881 170.568 63.395 170.741 C 63.788 170.872 64.141 170.907 64.554 170.924 C 65.106 170.945 65.608 170.993 66.11 170.741 C 66.522 170.533 66.792 170.231 67.055 169.856 C 67.33 169.463 67.44 169.063 67.574 168.606 Z " fill="rgb(59,135,147)" vector-effect="non-scaling-stroke" stroke-width="1" stroke="rgb(0,0,0)" stroke-linejoin="round" stroke-linecap="round" stroke-miterlimit="3"/><path d=" M 66.401 166.763 C 66.401 164.931 66.045 163.444 65.607 163.444 C 65.17 163.444 64.814 164.931 64.814 166.763 C 64.814 168.595 65.17 170.082 65.607 170.082 C 66.045 170.082 66.401 168.595 66.401 166.763 Z " fill="rgb(151,241,255)"/><path d=" M 67.574 168.606 C 67.765 167.949 67.793 167.365 67.818 166.684 C 67.842 166.029 68.013 165.431 67.726 164.824 C 67.496 164.336 67.141 164.015 66.689 163.725 C 66.111 163.355 65.513 163.23 64.829 163.237 C 64.239 163.244 63.72 163.326 63.212 163.634 C 62.655 163.972 62.381 164.485 62.053 165.037 C 61.773 165.509 61.573 165.936 61.443 166.471 C 61.28 167.142 61.232 167.746 61.382 168.423 C 61.511 169.003 61.678 169.506 62.084 169.948 C 62.453 170.349 62.881 170.568 63.395 170.741 C 63.788 170.872 64.141 170.907 64.554 170.924 C 65.106 170.945 65.608 170.993 66.11 170.741 C 66.522 170.533 66.792 170.231 67.055 169.856 C 67.33 169.463 67.44 169.063 67.574 168.606 Z " fill="none" vector-effect="non-scaling-stroke" stroke-width="1" stroke="rgb(0,0,0)" stroke-linejoin="round" stroke-linecap="round" stroke-miterlimit="3"/></g><g id="Group"><path d=" M 29.12 203.155 Q 30.668 201.651 31.453 200.785 C 32.327 199.824 33.049 198.993 33.812 197.941 C 34.385 197.15 34.846 196.462 35.331 195.615 Q 35.794 194.806 36.516 193.245 Q 37.325 195.261 37.879 196.297 C 38.359 197.195 38.783 197.951 39.399 198.762 C 40.194 199.81 41.04 200.547 42.01 201.431 C 42.798 202.15 43.521 202.692 44.344 203.37 Q 45.236 204.106 46.893 205.453 Q 44.863 205.243 43.795 204.966 C 42.771 204.701 41.935 204.371 40.968 203.945 C 40.179 203.597 39.484 203.337 38.783 202.83 C 38.071 202.315 37.588 201.738 37.019 201.072 Q 36.656 200.648 36.049 199.816 Q 34.8 201.082 34.362 201.934 Q 33.892 202.847 33.608 204.735 L 29.12 203.155 Z " fill="rgb(94,94,94)" vector-effect="non-scaling-stroke" stroke-width="1" stroke="rgb(0,0,0)" stroke-linejoin="round" stroke-linecap="round" stroke-miterlimit="3"/><path d=" M 26.009 231.45 Q 27.526 232.409 28.165 233.135 C 28.771 233.824 29.293 234.457 29.512 235.358 C 29.67 236.008 29.667 236.589 29.546 237.245 Q 29.445 237.793 29.007 238.727 Q 30.533 238.861 31.332 238.66 C 32.32 238.411 33.014 237.847 33.825 237.245 C 34.627 236.649 35.265 236.08 35.88 235.291 C 36.508 234.485 36.954 233.728 37.295 232.764 C 37.696 231.63 37.715 230.591 37.766 229.395 C 37.816 228.233 37.838 227.235 37.598 226.094 Q 37.343 224.881 36.318 222.826 L 26.009 231.45 Z " fill="rgb(158,166,159)" vector-effect="non-scaling-stroke" stroke-width="1" stroke="rgb(0,0,0)" stroke-linejoin="round" stroke-linecap="round" stroke-miterlimit="3"/><path d=" M 24 202.479 Q 27.609 202.293 29.505 202.739 C 31.556 203.22 33.372 203.754 34.92 205.218 C 36.401 206.619 36.977 208.332 37.653 210.229 C 38.611 212.917 38.702 215.386 38.614 218.225 C 38.543 220.551 38.532 222.599 37.602 224.753 C 36.909 226.362 36.004 227.568 34.819 228.853 C 33.666 230.102 32.573 231.08 31.074 231.889 C 29.681 232.641 28.373 233.008 26.823 233.306 Q 25.842 233.495 24 233.61 C 23.299 222.888 23.309 212.521 24 202.479 Z " fill="rgb(94,94,94)"/><path d=" M 18.88 203.155 Q 17.332 201.651 16.547 200.785 C 15.673 199.824 14.951 198.993 14.188 197.941 C 13.615 197.15 13.154 196.462 12.669 195.615 Q 12.206 194.806 11.484 193.245 Q 10.675 195.261 10.121 196.297 C 9.641 197.195 9.217 197.951 8.601 198.762 C 7.806 199.81 6.96 200.547 5.99 201.431 C 5.202 202.15 4.479 202.692 3.656 203.37 Q 2.764 204.106 1.107 205.453 Q 3.137 205.243 4.205 204.966 C 5.229 204.701 6.065 204.371 7.032 203.945 C 7.821 203.597 8.516 203.337 9.217 202.83 C 9.929 202.315 10.412 201.738 10.981 201.072 Q 11.344 200.648 11.951 199.816 Q 13.2 201.082 13.638 201.934 Q 14.108 202.847 14.392 204.735 L 18.88 203.155 Z " fill="rgb(94,94,94)" vector-effect="non-scaling-stroke" stroke-width="1" stroke="rgb(0,0,0)" stroke-linejoin="round" stroke-linecap="round" stroke-miterlimit="3"/><path d=" M 21.991 231.45 Q 20.474 232.409 19.835 233.135 C 19.229 233.824 18.707 234.457 18.488 235.358 C 18.33 236.008 18.333 236.589 18.454 237.245 Q 18.555 237.793 18.993 238.727 Q 17.467 238.861 16.668 238.66 C 15.68 238.411 14.986 237.847 14.175 237.245 C 13.373 236.649 12.735 236.08 12.12 235.291 C 11.492 234.485 11.046 233.728 10.705 232.764 C 10.304 231.63 10.285 230.591 10.234 229.395 C 10.184 228.233 10.162 227.235 10.402 226.094 Q 10.657 224.881 11.682 222.826 L 21.991 231.45 Z " fill="rgb(158,166,159)" vector-effect="non-scaling-stroke" stroke-width="1" stroke="rgb(0,0,0)" stroke-linejoin="round" stroke-linecap="round" stroke-miterlimit="3"/><path d=" M 24 202.479 Q 20.391 202.293 18.495 202.739 C 16.444 203.22 14.628 203.754 13.08 205.218 C 11.599 206.619 11.023 208.332 10.347 210.229 C 9.389 212.917 9.298 215.386 9.386 218.225 C 9.457 220.551 9.468 222.599 10.398 224.753 C 11.091 226.362 11.996 227.568 13.181 228.853 C 14.334 230.102 15.427 231.08 16.926 231.889 C 18.319 232.641 19.627 233.008 21.177 233.306 Q 22.158 233.495 24 233.61 C 24.701 222.888 24.691 212.521 24 202.479 Z " fill="rgb(94,94,94)"/><path d=" M 24 203.771 Q 26.172 203.717 27.326 203.928 C 28.759 204.191 30.103 204.339 31.207 205.335 C 32.285 206.309 32.529 207.611 32.995 208.954 C 33.605 210.711 33.672 212.308 33.889 214.148 C 34.119 216.099 34.815 217.807 34.23 219.725 C 33.853 220.961 33.216 221.883 32.399 222.876 C 31.608 223.837 30.885 224.664 29.759 225.217 C 28.773 225.702 27.819 225.768 26.737 225.899 Q 25.78 226.014 24 225.984 C 23.388 219.304 23.398 211.91 24 203.771 Z " fill="rgb(158,166,159)"/><path d=" M 24 203.771 Q 21.828 203.717 20.674 203.928 C 19.241 204.191 17.897 204.339 16.793 205.335 C 15.715 206.309 15.471 207.611 15.005 208.954 C 14.395 210.711 14.328 212.308 14.111 214.148 C 13.881 216.099 13.185 217.807 13.77 219.725 C 14.147 220.961 14.784 221.883 15.601 222.876 C 16.392 223.837 17.115 224.664 18.241 225.217 C 19.227 225.702 20.181 225.768 21.263 225.899 Q 22.22 226.014 24 225.984 C 24.612 219.304 24.602 211.91 24 203.771 Z " fill="rgb(158,166,159)"/><path d=" M 24 205.045 Q 25.421 205.102 26.183 205.25 C 27.096 205.427 27.885 205.561 28.738 206.059 C 29.557 206.538 30.231 207.062 30.866 207.932 C 31.462 208.748 31.975 209.517 32.186 210.657 C 32.397 211.799 32.269 212.839 31.973 213.935 C 31.636 215.184 31.021 215.995 30.313 216.873 C 29.483 217.901 28.619 218.483 27.588 219.044 C 26.878 219.431 26.257 219.697 25.502 219.853 Q 24.978 219.961 24 219.981 C 23.296 214.968 23.306 209.999 24 205.045 Z " fill="rgb(189,255,172)"/><path d=" M 24 205.045 Q 22.579 205.102 21.817 205.25 C 20.904 205.427 20.115 205.561 19.262 206.059 C 18.443 206.538 17.769 207.062 17.134 207.932 C 16.538 208.748 16.025 209.517 15.814 210.657 C 15.603 211.799 15.731 212.839 16.027 213.935 C 16.364 215.184 16.979 215.995 17.687 216.873 C 18.517 217.901 19.381 218.483 20.412 219.044 C 21.122 219.431 21.743 219.697 22.498 219.853 Q 23.022 219.961 24 219.981 C 24.704 214.968 24.694 209.999 24 205.045 Z " fill="rgb(189,255,172)"/><path d=" M 24 202.479 Q 27.609 202.293 29.505 202.739 C 31.556 203.22 33.372 203.754 34.92 205.218 C 36.401 206.619 36.977 208.332 37.653 210.229 C 38.611 212.917 38.702 215.386 38.614 218.225 C 38.543 220.551 38.532 222.599 37.602 224.753 C 36.909 226.362 36.004 227.568 34.819 228.853 C 33.666 230.102 32.573 231.08 31.074 231.889 C 29.681 232.641 28.373 233.008 26.823 233.306 Q 25.842 233.495 24 233.61" fill="none" vector-effect="non-scaling-stroke" stroke-width="1" stroke="rgb(0,0,0)" stroke-linejoin="round" stroke-linecap="round" stroke-miterlimit="3"/><path d=" M 31.722 213.652 C 31.731 212.252 31.762 211.012 32.374 209.738 C 32.904 208.636 33.463 207.647 34.576 207.088 C 35.29 206.729 35.985 206.669 36.778 206.639 C 37.665 206.606 38.444 206.652 39.265 207.006 C 40.241 207.427 40.884 208.113 41.507 208.963 C 42.122 209.803 42.44 210.647 42.69 211.654 C 42.975 212.803 42.908 213.821 42.853 214.998 C 42.802 216.068 42.726 216.98 42.445 218.015 C 42.185 218.973 41.995 219.83 41.385 220.625 C 40.833 221.343 40.21 221.836 39.387 222.215 C 38.675 222.543 38.014 222.82 37.226 222.704 C 36.399 222.582 35.864 222.038 35.228 221.522 C 34.41 220.857 33.881 220.121 33.312 219.238 C 32.782 218.418 32.375 217.686 32.089 216.751 C 31.765 215.697 31.714 214.752 31.722 213.652 Z " fill="rgb(0,0,0)" vector-effect="non-scaling-stroke" stroke-width="1" stroke="rgb(0,0,0)" stroke-linejoin="round" stroke-linecap="round" stroke-miterlimit="3"/><path d=" M 24 202.479 Q 20.391 202.293 18.495 202.739 C 16.444 203.22 14.628 203.754 13.08 205.218 C 11.599 206.619 11.023 208.332 10.347 210.229 C 9.389 212.917 9.298 215.386 9.386 218.225 C 9.457 220.551 9.468 222.599 10.398 224.753 C 11.091 226.362 11.996 227.568 13.181 228.853 C 14.334 230.102 15.427 231.08 16.926 231.889 C 18.319 232.641 19.627 233.008 21.177 233.306 Q 22.158 233.495 24 233.61" fill="none" vector-effect="non-scaling-stroke" stroke-width="1" stroke="rgb(0,0,0)" stroke-linejoin="round" stroke-linecap="round" stroke-miterlimit="3"/><path d=" M 16.278 213.652 C 16.269 212.252 16.238 211.012 15.626 209.738 C 15.096 208.636 14.537 207.647 13.424 207.088 C 12.71 206.729 12.015 206.669 11.222 206.639 C 10.335 206.606 9.556 206.652 8.735 207.006 C 7.759 207.427 7.116 208.113 6.493 208.963 C 5.878 209.803 5.56 210.647 5.31 211.654 C 5.025 212.803 5.092 213.821 5.147 214.998 C 5.198 216.068 5.274 216.98 5.555 218.015 C 5.815 218.973 6.005 219.83 6.615 220.625 C 7.167 221.343 7.79 221.836 8.613 222.215 C 9.325 222.543 9.986 222.82 10.774 222.704 C 11.601 222.582 12.136 222.038 12.772 221.522 C 13.59 220.857 14.119 220.121 14.688 219.238 C 15.218 218.418 15.625 217.686 15.911 216.751 C 16.235 215.697 16.286 214.752 16.278 213.652 Z " fill="rgb(0,0,0)" vector-effect="non-scaling-stroke" stroke-width="1" stroke="rgb(0,0,0)" stroke-linejoin="round" stroke-linecap="round" stroke-miterlimit="3"/></g><g id="Group"><path d=" M 79.722 213.652 C 79.731 212.252 79.762 211.012 80.374 209.738 C 80.904 208.636 81.463 207.647 82.576 207.088 C 83.29 206.729 83.985 206.669 84.778 206.639 C 85.665 206.606 86.444 206.652 87.265 207.006 C 88.241 207.427 88.884 208.113 89.507 208.963 C 90.122 209.803 90.44 210.647 90.69 211.654 C 90.975 212.803 90.908 213.821 90.853 214.998 C 90.802 216.068 90.726 216.98 90.445 218.015 C 90.185 218.973 89.995 219.83 89.385 220.625 C 88.833 221.343 88.21 221.836 87.387 222.215 C 86.675 222.543 86.014 222.82 85.226 222.704 C 84.399 222.582 83.864 222.038 83.228 221.522 C 82.41 220.857 81.881 220.121 81.312 219.238 C 80.782 218.418 80.375 217.686 80.089 216.751 C 79.765 215.697 79.714 214.752 79.722 213.652 Z " fill="rgb(176,166,166)" vector-effect="non-scaling-stroke" stroke-width="1" stroke="rgb(0,0,0)" stroke-linejoin="round" stroke-linecap="round" stroke-miterlimit="3"/><path d=" M 79.451 215.102 C 79.451 212.056 81.386 209.583 83.769 209.583 C 86.153 209.583 88.088 212.056 88.088 215.102 C 88.088 218.148 86.153 220.621 83.769 220.621 C 81.386 220.621 79.451 218.148 79.451 215.102 Z " fill="rgb(255,255,255)"/><path d=" M 79.722 213.652 C 79.731 212.252 79.762 211.012 80.374 209.738 C 80.904 208.636 81.463 207.647 82.576 207.088 C 83.29 206.729 83.985 206.669 84.778 206.639 C 85.665 206.606 86.444 206.652 87.265 207.006 C 88.241 207.427 88.884 208.113 89.507 208.963 C 90.122 209.803 90.44 210.647 90.69 211.654 C 90.975 212.803 90.908 213.821 90.853 214.998 C 90.802 216.068 90.726 216.98 90.445 218.015 C 90.185 218.973 89.995 219.83 89.385 220.625 C 88.833 221.343 88.21 221.836 87.387 222.215 C 86.675 222.543 86.014 222.82 85.226 222.704 C 84.399 222.582 83.864 222.038 83.228 221.522 C 82.41 220.857 81.881 220.121 81.312 219.238 C 80.782 218.418 80.375 217.686 80.089 216.751 C 79.765 215.697 79.714 214.752 79.722 213.652 Z " fill="none" vector-effect="non-scaling-stroke" stroke-width="1" stroke="rgb(0,0,0)" stroke-linejoin="round" stroke-linecap="round" stroke-miterlimit="3"/><path d=" M 64.278 213.652 C 64.269 212.252 64.238 211.012 63.626 209.738 C 63.096 208.636 62.537 207.647 61.424 207.088 C 60.71 206.729 60.015 206.669 59.222 206.639 C 58.335 206.606 57.556 206.652 56.735 207.006 C 55.759 207.427 55.116 208.113 54.493 208.963 C 53.878 209.803 53.56 210.647 53.31 211.654 C 53.025 212.803 53.092 213.821 53.147 214.998 C 53.198 216.068 53.274 216.98 53.555 218.015 C 53.815 218.973 54.005 219.83 54.615 220.625 C 55.167 221.343 55.79 221.836 56.613 222.215 C 57.325 222.543 57.986 222.82 58.774 222.704 C 59.601 222.582 60.136 222.038 60.772 221.522 C 61.59 220.857 62.119 220.121 62.688 219.238 C 63.218 218.418 63.625 217.686 63.911 216.751 C 64.235 215.697 64.286 214.752 64.278 213.652 Z " fill="rgb(176,166,166)" vector-effect="non-scaling-stroke" stroke-width="1" stroke="rgb(0,0,0)" stroke-linejoin="round" stroke-linecap="round" stroke-miterlimit="3"/><path d=" M 64.549 215.102 C 64.549 212.056 62.614 209.583 60.231 209.583 C 57.847 209.583 55.912 212.056 55.912 215.102 C 55.912 218.148 57.847 220.621 60.231 220.621 C 62.614 220.621 64.549 218.148 64.549 215.102 Z " fill="rgb(255,255,255)"/><path d=" M 64.278 213.652 C 64.269 212.252 64.238 211.012 63.626 209.738 C 63.096 208.636 62.537 207.647 61.424 207.088 C 60.71 206.729 60.015 206.669 59.222 206.639 C 58.335 206.606 57.556 206.652 56.735 207.006 C 55.759 207.427 55.116 208.113 54.493 208.963 C 53.878 209.803 53.56 210.647 53.31 211.654 C 53.025 212.803 53.092 213.821 53.147 214.998 C 53.198 216.068 53.274 216.98 53.555 218.015 C 53.815 218.973 54.005 219.83 54.615 220.625 C 55.167 221.343 55.79 221.836 56.613 222.215 C 57.325 222.543 57.986 222.82 58.774 222.704 C 59.601 222.582 60.136 222.038 60.772 221.522 C 61.59 220.857 62.119 220.121 62.688 219.238 C 63.218 218.418 63.625 217.686 63.911 216.751 C 64.235 215.697 64.286 214.752 64.278 213.652 Z " fill="none" vector-effect="non-scaling-stroke" stroke-width="1" stroke="rgb(0,0,0)" stroke-linejoin="round" stroke-linecap="round" stroke-miterlimit="3"/></g></g></svg>