<?xml version="1.0" standalone="no"?><!-- Generator: Gravit.io --><svg xmlns="http://www.w3.org/2000/svg" xmlns:xlink="http://www.w3.org/1999/xlink" style="isolation:isolate" viewBox="0 0 144 144" width="144" height="144"><defs><clipPath id="_clipPath_3HSHsYOX5dRIfddQNJHliydKQETNp8KE"><rect width="144" height="144"/></clipPath></defs><g clip-path="url(#_clipPath_3HSHsYOX5dRIfddQNJHliydKQETNp8KE)"><path d=" M 4.353 79.3 L 0 57.069 L 0.335 44.793 L 6.363 35.502 L 6.363 26.544 L 2.344 15.926 L 7.702 8.295 L 16.744 1.327 L 27.46 0 L 43.87 7.963 L 52.912 2.986 L 64.633 6.968 L 70.66 2.654 L 82.047 6.968 L 89.079 4.977 L 101.805 5.972 L 109.172 3.318 L 118.549 0.995 L 128.26 4.645 L 137.972 8.959 L 139.981 15.926 L 142.995 23.558 L 137.972 29.53 L 141.991 39.484 L 141.656 43.134 L 141.991 50.433 L 138.977 57.069 L 142.995 66.691 L 140.986 71.336 L 138.977 75.982 L 138.977 83.281 L 137.972 90.581 L 141.656 97.217 L 141.991 101.862 L 144 110.82 L 141.991 116.461 L 138.642 123.429 L 139.647 135.705 L 133.953 141.346 L 127.926 144 L 118.884 143.336 L 113.526 139.355 L 102.809 143.668 L 97.116 137.696 L 92.428 142.009 L 85.73 142.673 L 76.353 142.341 L 72.335 137.364 L 64.967 143.336 L 56.93 139.023 L 40.856 142.341 L 31.479 141.014 L 27.46 138.691 L 25.451 135.041 L 17.749 134.378 L 11.051 141.677 L 2.344 142.673 L 2.679 134.71 L 5.023 126.415 L 7.367 114.802 L 7.033 107.171 L 3.684 100.203 L 6.363 89.585 L 4.353 79.3 Z " fill="rgb(53,56,62)"/><g id="Group"><path d=" M 31.995 103.413 L 51.611 25.711 L 72.18 9.142 L 83.797 28.186 L 64.562 109.698 L 41.327 129.505 L 31.995 103.413 Z " fill="rgb(114,213,143)"/><path d=" M 70.656 13.331 L 54.087 26.472 L 33.9 103.032 L 36.757 103.604 L 61.515 28.186 L 70.656 13.331 Z " fill="rgb(194,255,212)"/><path d=" M 65.895 26.663 L 80.75 29.519 L 62.277 108.175 L 42.851 124.934 L 51.231 106.27 L 69.323 28.948 L 65.895 26.663 Z " fill="rgb(91,174,116)"/></g><g id="Group"><path d=" M 64.87 114.389 L 74.783 56.264 L 88.915 42.926 L 98.534 56.226 L 89.12 117.123 L 73.218 132.99 L 64.87 114.389 Z " fill="rgb(114,213,143)"/><path d=" M 88.039 46.087 L 76.643 56.68 L 66.245 114 L 68.373 114.254 L 82.19 57.51 L 88.039 46.087 Z " fill="rgb(194,255,212)"/><path d=" M 85.315 56.14 L 96.375 57.379 L 87.356 116.137 L 74.072 129.549 L 79.144 115.376 L 87.961 57.619 L 85.315 56.14 Z " fill="rgb(91,174,116)"/></g><g id="Group"><path d=" M 22.854 61.178 L 32.414 23.311 L 42.437 15.236 L 48.099 24.517 L 38.725 64.241 L 27.402 73.894 L 22.854 61.178 Z " fill="rgb(114,213,143)"/><path d=" M 41.695 17.278 L 33.62 23.682 L 23.782 60.993 L 25.174 61.271 L 37.24 24.517 L 41.695 17.278 Z " fill="rgb(194,255,212)"/><path d=" M 39.375 23.775 L 46.614 25.167 L 37.611 63.499 L 28.144 71.666 L 32.228 62.571 L 41.045 24.888 L 39.375 23.775 Z " fill="rgb(91,174,116)"/></g><g id="Group"><path d=" M 102.587 80.815 L 103.235 36.819 L 112.127 25.364 L 120.744 34.069 L 120.782 80.052 L 110.874 93.574 L 102.587 80.815 Z " fill="rgb(114,213,143)"/><path d=" M 111.844 27.795 L 104.654 36.913 L 103.556 80.371 L 105.155 80.315 L 108.839 36.889 L 111.844 27.795 Z " fill="rgb(194,255,212)"/><path d=" M 110.987 35.52 L 119.285 35.167 L 119.368 79.528 L 111.11 90.94 L 113.225 79.908 L 113.107 36.308 L 110.987 35.52 Z " fill="rgb(91,174,116)"/></g><g id="Group"><path d=" M 11.998 62.869 L 0.762 71.058 L 0 86.485 L 3.428 106.863 L 0.381 126.669 L 3.619 138.096 L 9.713 142.857 L 16.188 139.81 L 22.092 140.572 L 35.995 144 L 46.088 140.953 L 65.514 143.619 L 80.369 142.476 L 84.94 138.287 L 83.416 129.145 L 67.8 119.051 L 66.466 112.957 L 46.088 109.148 L 36.376 93.722 L 41.327 89.532 L 40.375 84.771 L 25.711 74.296 L 23.616 65.535 L 18.283 60.965 L 14.665 59.631 L 11.998 62.869 Z " fill="rgb(84,91,102)"/><path d=" M 15.617 62.086 L 13.331 65.324 L 3.238 72.751 L 3.047 82.845 L 5.904 95.224 L 10.094 96.748 L 17.902 92.177 L 26.853 93.32 L 32.376 92.367 L 35.995 86.844 L 31.043 81.321 L 21.521 77.132 L 21.14 67.99 L 15.617 62.086 Z " fill="rgb(124,135,151)"/><path d=" M 34.281 96.938 L 38.661 103.985 L 41.518 111.222 L 55.611 114.84 L 62.467 117.126 L 64.943 121.506 L 60.753 124.744 L 48.374 123.41 L 40.756 126.648 L 38.28 135.599 L 35.423 140.17 L 23.044 137.123 L 22.663 128.933 L 30.091 119.411 L 30.853 112.174 L 30.091 102.652 L 34.281 96.938 Z " fill="rgb(124,135,151)"/><path d=" M 27.425 97.509 L 20.378 95.795 L 8.761 102.842 L 6.094 111.031 L 4.19 122.839 L 6.856 134.456 L 12.95 137.313 L 17.712 132.933 L 16.569 125.124 L 23.996 120.554 L 25.52 111.222 L 27.425 97.509 Z " fill="rgb(124,135,151)"/><path d=" M 45.517 129.505 L 52.183 127.029 L 60.563 129.314 L 68.371 124.172 L 76.179 128.172 L 81.893 132.933 L 79.798 138.456 L 67.8 141.503 L 51.611 138.646 L 43.232 138.646 L 45.517 129.505 Z " fill="rgb(124,135,151)"/></g><g id="Group"><path d=" M 86.675 124.384 L 93.722 132.192 L 88.389 140.953 L 88.96 143.238 L 93.531 140.953 L 99.054 140.191 L 102.673 143.429 L 109.338 141.715 L 119.051 144 L 126.669 144 L 132.954 141.143 L 140.191 141.524 L 142.667 137.525 L 143.429 130.097 L 141.334 125.146 L 144 116.385 L 140.001 108.196 L 127.812 103.435 L 120.194 97.34 L 117.337 85.532 L 107.243 76.01 L 100.006 78.486 L 101.149 91.436 L 94.483 98.102 L 86.294 100.768 L 78.486 108.767 L 79.819 117.147 L 86.104 118.861 L 86.675 124.384 Z " fill="rgb(84,91,102)"/><path d=" M 83.226 110.841 L 85.702 105.508 L 92.939 101.699 L 98.271 104.747 L 94.843 112.174 L 88.939 116.935 L 82.845 114.65 L 83.226 110.841 Z " fill="rgb(124,135,151)"/><path d=" M 90.082 123.41 L 91.225 119.03 L 97.509 112.745 L 101.128 107.794 L 104.175 111.031 L 104.556 120.744 L 109.698 127.219 L 119.03 127.791 L 126.648 135.409 L 127.219 139.789 L 118.459 140.17 L 109.317 137.313 L 104.937 140.17 L 98.652 136.361 L 95.034 136.742 L 96.748 132.362 L 90.082 123.41 Z " fill="rgb(124,135,151)"/><path d=" M 103.985 81.893 L 109.127 82.464 L 114.84 89.13 L 117.697 101.128 L 127.791 107.794 L 137.504 111.793 L 139.789 118.459 L 137.694 124.553 L 128.743 127.791 L 121.887 122.649 L 114.65 121.887 L 108.365 116.935 L 107.032 108.746 L 99.224 102.271 L 101.509 96.557 L 105.889 92.367 L 103.985 81.893 Z " fill="rgb(124,135,151)"/><path d=" M 129.124 131.028 L 138.075 127.791 L 139.979 134.266 L 136.932 137.694 L 130.457 138.837 L 129.124 131.028 Z " fill="rgb(124,135,151)"/></g><g id="Group"><path d=" M 96.578 43.803 L 91.246 51.611 L 96.578 65.705 L 100.197 71.989 L 107.243 69.133 L 113.147 68.561 L 122.86 78.465 L 127.431 89.13 L 136.382 90.082 L 144 82.845 L 141.143 77.132 L 142.667 67.8 L 139.62 60.943 L 132.764 54.278 L 120.765 55.801 L 117.147 48.183 L 108.577 49.136 L 101.53 46.279 L 96.578 43.803 Z " fill="rgb(84,91,102)"/><path d=" M 98.081 49.707 L 96.176 53.135 L 101.318 66.086 L 108.746 64.752 L 112.364 59.61 L 110.841 53.516 L 98.081 49.707 Z " fill="rgb(124,135,151)"/><path d=" M 116.554 56.182 L 121.125 59.61 L 130.267 58.277 L 135.599 60.943 L 139.218 67.228 L 138.837 73.513 L 139.979 79.988 L 137.313 85.892 L 130.267 87.035 L 126.077 79.417 L 119.982 70.466 L 114.078 65.895 L 117.316 61.705 L 116.554 56.182 Z " fill="rgb(124,135,151)"/></g><g id="Group"><path d=" M 78.105 2.476 L 73.534 7.237 L 81.152 18.093 L 77.724 26.282 L 80.771 33.9 L 87.818 38.851 L 94.483 36.757 L 106.291 43.613 L 116.766 38.471 L 125.907 43.803 L 132.383 50.088 L 137.144 48.374 L 141.905 42.851 L 139.81 33.9 L 143.81 28.758 L 143.238 21.711 L 142.476 14.474 L 144 7.047 L 141.524 2.285 L 135.62 0 L 124.384 2.285 L 116.195 0.762 L 107.624 1.524 L 101.72 6.475 L 96.198 6.856 L 91.246 0.952 L 84.009 0 L 78.105 2.476 Z " fill="rgb(84,91,102)"/><path d=" M 84.178 19.616 L 82.083 26.091 L 85.321 31.805 L 88.368 27.044 L 92.748 20.949 L 100.176 16.95 L 101.318 10.665 L 93.891 10.094 L 90.272 3.999 L 84.749 4.19 L 78.084 9.142 L 84.178 19.616 Z " fill="rgb(124,135,151)"/><path d=" M 104.937 8.38 L 109.127 4.571 L 115.412 4.38 L 124.744 7.427 L 134.076 4.952 L 140.17 7.047 L 139.027 11.808 L 140.17 20.759 L 140.36 27.996 L 132.742 26.853 L 127.029 21.14 L 121.506 21.33 L 115.983 23.616 L 110.841 26.853 L 104.175 25.901 L 98.462 23.044 L 105.127 18.664 L 104.937 8.38 Z " fill="rgb(124,135,151)"/><path d=" M 91.415 31.424 L 94.843 25.711 L 104.175 29.9 L 111.222 29.139 L 120.363 25.901 L 126.267 26.282 L 131.028 31.424 L 135.028 31.805 L 138.837 39.042 L 138.456 43.994 L 133.123 46.85 L 128.553 39.804 L 119.792 35.423 L 115.793 35.233 L 106.841 39.042 L 100.747 37.137 L 98.081 33.328 L 90.844 35.233 L 91.415 31.424 Z " fill="rgb(124,135,151)"/></g><g id="Group"><path d=" M 3.809 23.616 L 0.762 9.142 L 2.285 3.999 L 8.38 7.618 L 14.665 3.238 L 22.282 0 L 33.138 1.143 L 47.231 5.523 L 55.42 0.952 L 68.752 1.524 L 68.18 8.38 L 64.181 12.95 L 64.181 25.139 L 55.23 32.376 L 42.66 29.329 L 32.186 31.805 L 29.519 43.613 L 21.711 46.85 L 19.045 53.897 L 9.903 53.135 L 4.571 58.277 L 0 51.04 L 0.381 36.757 L 3.809 23.616 Z " fill="rgb(84,91,102)"/><path d=" M 63.991 5.142 L 59.61 10.856 L 61.515 22.092 L 55.42 28.567 L 47.422 26.091 L 39.232 25.52 L 38.661 19.426 L 47.802 16.379 L 54.659 19.807 L 54.659 11.808 L 57.706 6.094 L 63.991 5.142 Z " fill="rgb(124,135,151)"/><path d=" M 50.659 12.379 L 47.993 8.189 L 36.947 5.713 L 24.377 3.428 L 18.093 6.094 L 15.236 10.284 L 19.426 17.712 L 26.472 21.902 L 34.662 25.139 L 34.852 16.95 L 41.518 14.284 L 50.659 12.379 Z " fill="rgb(124,135,151)"/><path d=" M 30.853 27.044 L 27.615 39.232 L 22.663 42.47 L 17.712 45.517 L 16.95 49.517 L 11.617 48.945 L 5.713 50.85 L 3.428 47.231 L 4.571 38.851 L 10.665 32.567 L 17.712 30.853 L 24.377 33.138 L 30.853 27.044 Z " fill="rgb(124,135,151)"/><path d=" M 27.996 23.996 L 23.806 28.567 L 17.902 26.663 L 9.903 28.758 L 6.856 20.949 L 5.333 10.284 L 10.475 11.808 L 13.903 19.235 L 20.188 21.902 L 27.996 23.996 Z " fill="rgb(124,135,151)"/></g></g></svg>