<?xml version="1.0" standalone="no"?><!-- Generator: Gravit.io --><svg xmlns="http://www.w3.org/2000/svg" xmlns:xlink="http://www.w3.org/1999/xlink" style="isolation:isolate" viewBox="0 -0.019 144 144" width="144" height="144"><rect x="5.258" y="5.258" width="131.234" height="131.234" transform="matrix(1,0,0,1,0,0)" fill="rgb(67,28,83)"/><rect x="-96" y="96" width="48" height="48" transform="matrix(1,0,0,1,0,0)" fill="rgb(235,235,235)"/><rect x="96" y="-96" width="48" height="48" transform="matrix(1,0,0,1,0,0)" fill="rgb(235,235,235)"/><rect x="-96" y="48" width="48" height="48" transform="matrix(1,0,0,1,0,0)" fill="rgb(235,235,235)"/><rect x="0" y="-96" width="48" height="48" transform="matrix(1,0,0,1,0,0)" fill="rgb(235,235,235)"/><rect x="-96" y="0" width="48" height="48" transform="matrix(1,0,0,1,0,0)" fill="rgb(235,235,235)"/><rect x="48" y="-96" width="48" height="48" transform="matrix(1,0,0,1,0,0)" fill="rgb(235,235,235)"/><g id="Group"><linearGradient id="_lgradient_8" x1="50%" y1="100%" x2="50.000000000000014%" y2="0%"><stop offset="0%" stop-opacity="1" style="stop-color:rgb(67,28,83)"/><stop offset="100%" stop-opacity="1" style="stop-color:rgb(87,38,106)"/></linearGradient><rect x="48" y="4" width="48" height="44" transform="matrix(1,0,0,1,0,0)" fill="url(#_lgradient_8)"/><path d=" M 63.684 36.865 Q 62.516 36.532 62.024 36.106 C 60.91 35.142 60.768 33.653 61.205 32.284 C 61.674 30.818 63.007 30.171 64.373 29.592 C 66.1 28.86 67.857 28.725 69.58 29.502 C 70.497 29.916 71.277 30.381 71.825 31.238 Q 72.201 31.828 72.467 33.103 Q 71.517 32.602 70.966 32.421 C 69.596 31.97 68.293 31.738 66.917 32.226 C 66.008 32.548 65.275 32.994 64.672 33.752 Q 63.941 34.67 63.684 36.865 Z " fill="rgb(87,38,106)"/><path d=" M 56.009 42.235 C 57.114 42.298 58.189 43.126 58.028 44.282 C 57.866 45.443 56.594 45.92 55.511 45.692 C 54.603 45.502 53.774 44.864 53.796 43.894 C 53.821 42.776 54.955 42.174 56.009 42.235 Z " fill="rgb(87,38,106)"/><path d=" M 75.158 42.881 C 75.292 42.378 75.814 42.14 76.314 42.217 C 76.884 42.305 77.35 42.822 77.21 43.402 C 77.068 43.989 76.402 44.235 75.852 44.037 C 75.369 43.864 75.022 43.392 75.158 42.881 Z " fill="rgb(87,38,106)"/><path d=" M 81.757 38.526 Q 81.019 37.371 81.075 36.651 C 81.186 35.241 82.666 34.817 83.905 34.469 C 85.431 34.04 86.922 34.34 88.167 35.321 Q 88.926 35.92 89.735 37.537 Q 87.82 37.189 86.769 37.196 C 85.728 37.204 84.834 37.265 83.837 37.571 Q 83.066 37.808 81.757 38.526 Z " fill="rgb(87,38,106)"/><path d=" M 48.84 30.281 C 49.866 32.209 52.029 32.6 54.114 32.625 C 56.894 32.657 60.105 31.786 60.61 28.815 C 60.886 27.192 60.32 25.741 59.242 24.517 C 57.842 22.927 55.84 22.506 53.772 22.759 C 51.704 23.013 49.809 23.864 48.888 25.787 C 48.185 27.258 48.066 28.827 48.84 30.281 Z " fill="rgb(87,38,106)"/><path d=" M 62.808 27.79 Q 61.182 25.487 61.391 24.029 C 61.623 22.416 62.828 21.409 64.224 20.659 C 65.867 19.776 67.592 19.88 69.352 20.415 C 71.387 21.034 73.722 21.868 73.894 24.176 Q 74.037 26.09 71.062 28.376 Q 68.232 27.731 66.666 27.643 Q 65.309 27.567 62.808 27.79 Z " fill="rgb(94,43,115)"/><path d=" M 77.942 32.748 C 80.157 34.081 82.806 33.027 84.304 31.033 C 85.136 29.926 85.658 28.704 85.355 27.327 C 84.702 24.362 81.017 24.077 78.551 25.28 C 77.057 26.009 75.84 27.173 75.73 28.876 C 75.622 30.532 76.54 31.904 77.942 32.748 Z " fill="rgb(87,38,106)"/><path d=" M 91.882 26.774 C 93.771 27.02 94.837 28.93 94.538 30.757 C 94.271 32.382 93.02 33.749 91.329 33.688 C 89.62 33.627 88.454 32.143 88.342 30.48 C 88.206 28.459 89.805 26.502 91.882 26.774 Z " fill="rgb(87,38,106)"/><path d=" M 75.121 21.74 C 76.682 24.302 79.812 23.975 82.589 23.952 C 85.218 23.931 88.542 24.604 89.67 21.85 C 90.941 18.746 87.428 16.908 85.023 15.323 C 82.66 13.766 79.977 12.127 77.334 13.608 C 74.457 15.22 73.397 18.909 75.121 21.74 Z " fill="rgb(109,51,132)"/><path d=" M 91.716 20.961 C 92.374 22.715 94.204 23.332 96 23.34 C 96.007 15.957 96.007 23.344 96 15.927 C 93.406 16.07 90.724 18.315 91.716 20.961 Z " fill="rgb(94,43,115)"/><path d=" M 48.016 23.34 C 50.196 23.349 52.569 22.334 52.804 20.021 C 53.067 17.436 50.455 15.792 48.016 15.927 C 48.005 23.298 48.005 15.893 48.016 23.34 Z " fill="rgb(94,43,115)"/><path d=" M 53.963 14.113 C 53.047 15.988 53.527 18.007 54.754 19.648 C 55.958 21.26 57.718 22.164 59.735 21.981 C 62.135 21.762 64.137 20.15 64.558 17.75 C 65.024 15.095 63.233 12.801 60.763 11.9 C 58.219 10.971 55.194 11.595 53.963 14.113 Z " fill="rgb(109,51,132)"/><path d=" M 66.258 16.406 C 67.24 17.691 68.2 19.058 69.895 19.134 C 71.932 19.225 72.97 17.372 74.046 15.813 C 75.265 14.048 76.322 12.169 75.667 10.041 C 74.999 7.874 73.172 6.544 70.962 6.167 C 68.615 5.767 66.34 6.593 64.993 8.579 C 63.269 11.12 64.495 14.101 66.258 16.406 Z " fill="rgb(121,61,145)"/><path d=" M 81.141 8.674 C 80.697 12.647 89.178 16.724 91.625 16.043 C 93.151 15.618 94.222 14.435 94.783 12.927 C 95.736 10.367 94.166 7.979 92.131 6.358 C 89.669 4.398 86.421 4.296 83.751 5.937 C 82.606 6.641 81.29 7.334 81.141 8.674 Z " fill="rgb(121,61,145)"/><path d=" M 52.207 12.907 C 50.85 12.659 49.835 11.84 49.178 10.636 C 47.848 8.199 49.672 5.75 51.666 4.146 C 53.164 2.942 55.17 1.063 56.786 2.668 C 57.972 3.846 57.17 5.477 56.822 6.959 C 56.197 9.614 55.408 13.493 52.207 12.907 Z " fill="rgb(121,61,145)"/><path d=" M 48 1.414 Q 51.303 0.125 53.208 0 Q 55.74 -0.166 60.203 1.414 Q 63.656 0.011 65.636 0 C 70.93 -0.03 71.032 -0.147 73.702 0.958 Q 74.68 1.363 76.352 2.381 Q 77.932 1.301 78.882 0.893 C 80.774 0.08 82.183 -0.03 84.612 0 Q 86.193 0.019 89.003 0.893 Q 90.875 0.03 91.979 0 Q 93.51 -0.042 96 1.414 L 96 10.939 C 94.703 9.428 93.968 7.677 93.765 5.656 C 92.506 8.777 90.68 11.342 88.259 13.321 C 89.034 11.103 89.043 8.955 88.259 6.846 C 87.529 8.993 86.299 10.441 84.538 11.163 C 83.743 9.436 82.364 8.231 80.37 7.516 C 79.368 10.318 79.403 12.833 80.445 15.032 C 77.689 13.039 75.69 10.394 74.417 7.07 C 73.001 8.925 72.416 10.919 72.631 13.023 C 70.713 10.858 69.557 8.66 69.133 6.4 C 68.896 7.827 68.088 8.854 66.678 9.451 C 66.747 7.87 66.037 6.59 64.52 5.581 C 63.763 8.247 63.798 11.308 64.594 14.735 C 62.071 12.969 60.543 10.97 59.98 8.707 C 59.339 9.865 58.109 10.644 56.259 11.014 C 57.008 9.534 57.216 7.807 56.855 5.805 C 55.65 7.453 54.147 8.604 52.315 9.228 C 52.237 7.505 51.403 6.175 49.785 5.209 C 48.755 7.194 48.17 9.114 48 10.939 L 48 1.414 Z " fill="rgb(0,195,137)"/><path d=" M 48 3.232 Q 50.032 2.424 51.199 2.242 C 52.878 1.979 54.318 2.306 55.995 2.503 Q 56.953 2.615 58.706 2.92 Q 60.63 2.471 61.626 2.085 C 62.659 1.686 63.367 0.968 64.441 0.678 C 65.316 0.441 66.093 0.444 66.996 0.417 C 68.042 0.385 68.937 0.381 69.968 0.574 C 70.836 0.735 71.539 0.998 72.366 1.303 C 73.683 1.789 74.615 2.624 75.964 3.024 Q 76.415 3.158 77.267 3.337 Q 79.208 2.989 80.239 2.711 C 81.056 2.491 81.696 2.12 82.533 1.981 C 83.587 1.807 84.501 1.899 85.557 2.033 Q 86.471 2.149 88.112 2.607 Q 89.909 2.015 90.927 1.929 C 91.659 1.867 92.283 1.907 93.012 1.981 C 93.735 2.055 94.406 1.972 95.046 2.346 Q 95.444 2.579 96 3.232 L 96 5.209 Q 95.005 4.739 94.42 4.64 C 93.44 4.475 92.544 4.545 91.657 5.005 Q 91.075 5.307 90.249 6.204 Q 89.031 5.376 88.268 5.162 C 87.341 4.901 86.484 4.831 85.557 5.109 C 84.932 5.297 84.575 5.835 83.941 5.996 Q 83.201 6.183 81.803 5.891 Q 80.988 5.222 80.447 5.057 C 79.636 4.81 78.919 5.137 78.101 5.266 Q 77.416 5.374 76.172 5.683 Q 74.202 5.481 73.2 5.109 C 72.422 4.821 71.92 4.232 71.115 4.015 C 70.149 3.754 69.24 3.638 68.299 4.015 Q 67.709 4.251 66.84 5.057 Q 64.89 4.666 63.816 4.64 C 62.859 4.617 61.987 4.429 61.105 4.849 Q 60.464 5.154 59.593 6.152 Q 58.033 5.085 57.038 4.901 C 56.368 4.777 55.781 4.798 55.109 4.901 Q 54.215 5.038 52.711 5.787 Q 51.637 4.974 50.938 4.797 Q 49.902 4.534 48 5.209 L 48 3.232 Z " fill="rgb(19,215,163)"/></g><g id="Group"><linearGradient id="_lgradient_9" x1="50%" y1="100%" x2="50.000000000000014%" y2="0%"><stop offset="0%" stop-opacity="1" style="stop-color:rgb(67,28,83)"/><stop offset="100%" stop-opacity="1" style="stop-color:rgb(87,38,106)"/></linearGradient><rect x="2" y="50" width="48" height="44" transform="matrix(0,-1,1,0,-46,98)" fill="url(#_lgradient_9)"/><path d=" M 36.865 80.316 Q 36.532 81.484 36.106 81.976 C 35.142 83.09 33.653 83.232 32.284 82.795 C 30.818 82.326 30.171 80.993 29.592 79.627 C 28.86 77.9 28.725 76.143 29.502 74.42 C 29.916 73.503 30.381 72.723 31.238 72.175 Q 31.828 71.799 33.103 71.533 Q 32.602 72.483 32.421 73.034 C 31.97 74.404 31.738 75.707 32.226 77.083 C 32.548 77.992 32.994 78.725 33.752 79.328 Q 34.67 80.059 36.865 80.316 Z " fill="rgb(87,38,106)"/><path d=" M 42.235 87.991 C 42.298 86.886 43.126 85.811 44.282 85.972 C 45.443 86.134 45.92 87.406 45.692 88.489 C 45.502 89.397 44.864 90.226 43.894 90.204 C 42.776 90.179 42.174 89.045 42.235 87.991 Z " fill="rgb(87,38,106)"/><path d=" M 42.881 68.842 C 42.378 68.708 42.14 68.186 42.217 67.686 C 42.305 67.116 42.822 66.65 43.402 66.79 C 43.989 66.932 44.235 67.598 44.037 68.148 C 43.864 68.631 43.392 68.978 42.881 68.842 Z " fill="rgb(87,38,106)"/><path d=" M 38.526 62.243 Q 37.371 62.981 36.651 62.925 C 35.241 62.814 34.817 61.334 34.469 60.095 C 34.04 58.569 34.34 57.078 35.321 55.833 Q 35.92 55.074 37.537 54.265 Q 37.189 56.18 37.196 57.231 C 37.204 58.272 37.265 59.166 37.571 60.163 Q 37.808 60.934 38.526 62.243 Z " fill="rgb(87,38,106)"/><path d=" M 30.281 95.16 C 32.209 94.134 32.6 91.971 32.625 89.886 C 32.657 87.106 31.786 83.895 28.815 83.39 C 27.192 83.114 25.741 83.68 24.517 84.758 C 22.927 86.158 22.506 88.16 22.759 90.228 C 23.013 92.296 23.864 94.191 25.787 95.112 C 27.258 95.815 28.827 95.934 30.281 95.16 Z " fill="rgb(87,38,106)"/><path d=" M 27.79 81.192 Q 25.487 82.818 24.029 82.609 C 22.416 82.377 21.409 81.172 20.659 79.776 C 19.776 78.133 19.88 76.408 20.415 74.648 C 21.034 72.613 21.868 70.278 24.176 70.106 Q 26.09 69.963 28.376 72.938 Q 27.731 75.768 27.643 77.334 Q 27.567 78.691 27.79 81.192 Z " fill="rgb(94,43,115)"/><path d=" M 32.748 66.058 C 34.081 63.843 33.027 61.194 31.033 59.696 C 29.926 58.864 28.704 58.342 27.327 58.645 C 24.362 59.298 24.077 62.983 25.28 65.449 C 26.009 66.943 27.173 68.16 28.876 68.27 C 30.532 68.378 31.904 67.46 32.748 66.058 Z " fill="rgb(87,38,106)"/><path d=" M 26.774 52.118 C 27.02 50.229 28.93 49.163 30.757 49.462 C 32.382 49.729 33.749 50.98 33.688 52.671 C 33.627 54.38 32.143 55.546 30.48 55.658 C 28.459 55.794 26.502 54.195 26.774 52.118 Z " fill="rgb(87,38,106)"/><path d=" M 21.74 68.879 C 24.302 67.318 23.975 64.188 23.952 61.411 C 23.931 58.782 24.604 55.458 21.85 54.33 C 18.746 53.059 16.908 56.572 15.323 58.977 C 13.766 61.34 12.127 64.023 13.608 66.666 C 15.22 69.543 18.909 70.603 21.74 68.879 Z " fill="rgb(109,51,132)"/><path d=" M 20.961 52.284 C 22.715 51.626 23.332 49.796 23.34 48 C 15.957 47.993 23.344 47.993 15.927 48 C 16.07 50.594 18.315 53.276 20.961 52.284 Z " fill="rgb(94,43,115)"/><path d=" M 23.34 95.984 C 23.349 93.804 22.334 91.431 20.021 91.196 C 17.436 90.933 15.792 93.545 15.927 95.984 C 23.298 95.995 15.893 95.995 23.34 95.984 Z " fill="rgb(94,43,115)"/><path d=" M 14.113 90.037 C 15.988 90.953 18.007 90.473 19.648 89.246 C 21.26 88.042 22.164 86.282 21.981 84.265 C 21.762 81.865 20.15 79.863 17.75 79.442 C 15.095 78.976 12.801 80.767 11.9 83.237 C 10.971 85.781 11.595 88.806 14.113 90.037 Z " fill="rgb(109,51,132)"/><path d=" M 16.406 77.742 C 17.691 76.76 19.058 75.8 19.134 74.105 C 19.225 72.068 17.372 71.03 15.813 69.954 C 14.048 68.735 12.169 67.678 10.041 68.333 C 7.874 69.001 6.544 70.828 6.167 73.038 C 5.767 75.385 6.593 77.66 8.579 79.007 C 11.12 80.731 14.101 79.505 16.406 77.742 Z " fill="rgb(121,61,145)"/><path d=" M 8.674 62.859 C 12.647 63.303 16.724 54.822 16.043 52.375 C 15.618 50.849 14.435 49.778 12.927 49.217 C 10.367 48.264 7.979 49.834 6.358 51.869 C 4.398 54.331 4.296 57.579 5.937 60.249 C 6.641 61.394 7.334 62.71 8.674 62.859 Z " fill="rgb(121,61,145)"/><path d=" M 1.263 48 Q 0.902 48.97 0.301 51.978 C -0.149 54.229 0.413 56.194 0.541 58.475 C 0.68 60.952 0.995 63.034 1.083 65.514 C 1.158 67.627 1.249 69.42 1.083 71.53 C 0.952 73.191 0.461 74.554 0.421 76.222 C 0.394 77.366 0.639 78.327 0.602 79.471 C 0.566 80.557 0.294 81.454 0.241 82.539 C 0.167 84.02 0.279 85.275 0.421 86.75 C 0.559 88.176 0.729 89.379 1.023 90.781 Q 1.805 94.511 1.263 96 L 4.151 96 L 4.151 48 L 1.263 48 Z " fill="rgb(87,38,106)"/><path d=" M 12.907 91.793 C 12.659 93.15 11.84 94.165 10.636 94.822 C 8.199 96.152 5.75 94.328 4.146 92.334 C 2.942 90.836 1.063 88.83 2.668 87.214 C 3.846 86.028 5.477 86.83 6.959 87.178 C 9.614 87.803 13.493 88.592 12.907 91.793 Z " fill="rgb(121,61,145)"/><path d=" M 3.331 78.084 C 1.939 78.922 1.461 80.494 1.666 82.071 C 1.802 83.123 2.271 83.959 3.028 84.696 C 4.629 86.253 7.075 86.624 8.883 85.251 C 9.74 84.601 10.449 83.829 10.499 82.727 C 10.558 81.415 9.506 80.631 8.581 79.8 C 7.095 78.465 5.217 76.949 3.331 78.084 Z " fill="rgb(121,61,145)"/><path d=" M 5.065 73.224 C 4.383 74.733 4.289 77.875 2.227 76.935 C 0.637 76.211 1.631 74.284 1.79 72.831 C 2.092 70.071 1.916 64.278 5.589 66.15 C 8.414 67.591 6.113 70.906 5.065 73.224 Z " fill="rgb(121,61,145)"/><path d=" M 12.169 65.191 C 11.922 64.013 10.588 63.668 9.494 63.92 C 8.461 64.159 7.474 64.946 7.656 66.06 C 7.848 67.244 9.166 67.644 10.263 67.431 C 11.359 67.218 12.414 66.357 12.169 65.191 Z " fill="rgb(121,61,145)"/><path d=" M 4.618 65.027 C 6.339 64.702 5.565 62.589 5.282 61.232 C 5.058 60.159 4.941 58.886 3.795 58.543 C 1.591 57.884 1.742 61.037 2.214 62.623 C 2.569 63.816 3.237 65.287 4.618 65.027 Z " fill="rgb(121,61,145)"/><path d=" M 5.387 49.142 C 7.222 50.1 5.236 52.068 4.609 53.512 C 4.174 54.514 4.215 56.086 2.933 56.115 C 1.775 56.142 1.372 54.92 1.047 53.931 C 0.497 52.252 1.14 50.463 2.664 49.561 C 3.517 49.056 4.469 48.663 5.387 49.142 Z " fill="rgb(121,61,145)"/></g><g id="Group"><linearGradient id="_lgradient_10" x1="50%" y1="100%" x2="50.000000000000014%" y2="0%"><stop offset="0%" stop-opacity="1" style="stop-color:rgb(67,28,83)"/><stop offset="100%" stop-opacity="1" style="stop-color:rgb(87,38,106)"/></linearGradient><rect x="48.005" y="96" width="48" height="44" transform="matrix(-1,0,0,-1,144.01,236)" fill="url(#_lgradient_10)"/><path d=" M 80.321 107.135 Q 81.489 107.468 81.981 107.894 C 83.095 108.858 83.237 110.347 82.8 111.716 C 82.331 113.182 80.998 113.829 79.632 114.408 C 77.905 115.14 76.148 115.275 74.425 114.498 C 73.508 114.084 72.728 113.619 72.18 112.762 Q 71.804 112.172 71.538 110.897 Q 72.488 111.398 73.039 111.579 C 74.409 112.03 75.712 112.262 77.088 111.774 C 77.997 111.452 78.73 111.006 79.333 110.248 Q 80.064 109.33 80.321 107.135 Z " fill="rgb(87,38,106)"/><path d=" M 87.996 101.765 C 86.891 101.702 85.816 100.874 85.977 99.718 C 86.139 98.557 87.411 98.08 88.494 98.308 C 89.402 98.498 90.231 99.136 90.209 100.106 C 90.184 101.224 89.051 101.826 87.996 101.765 Z " fill="rgb(87,38,106)"/><path d=" M 68.847 101.119 C 68.713 101.622 68.191 101.86 67.691 101.783 C 67.121 101.695 66.655 101.178 66.795 100.598 C 66.937 100.011 67.603 99.765 68.154 99.963 C 68.636 100.136 68.983 100.608 68.847 101.119 Z " fill="rgb(87,38,106)"/><path d=" M 62.248 105.474 Q 62.986 106.629 62.93 107.349 C 62.819 108.759 61.339 109.183 60.1 109.531 C 58.574 109.96 57.083 109.66 55.838 108.679 Q 55.079 108.08 54.27 106.463 Q 56.185 106.811 57.236 106.804 C 58.277 106.796 59.171 106.735 60.168 106.429 Q 60.939 106.192 62.248 105.474 Z " fill="rgb(87,38,106)"/><path d=" M 95.165 113.719 C 94.139 111.791 91.976 111.4 89.891 111.375 C 87.111 111.343 83.9 112.214 83.395 115.185 C 83.119 116.808 83.685 118.259 84.763 119.483 C 86.163 121.073 88.165 121.494 90.233 121.241 C 92.301 120.987 94.196 120.136 95.117 118.213 C 95.82 116.742 95.939 115.173 95.165 113.719 Z " fill="rgb(87,38,106)"/><path d=" M 81.197 116.21 Q 82.823 118.513 82.614 119.971 C 82.382 121.584 81.177 122.591 79.781 123.341 C 78.138 124.224 76.413 124.12 74.653 123.585 C 72.618 122.966 70.283 122.132 70.111 119.824 Q 69.968 117.91 72.943 115.624 Q 75.773 116.269 77.339 116.357 Q 78.696 116.433 81.197 116.21 Z " fill="rgb(94,43,115)"/><path d=" M 66.063 111.252 C 63.848 109.919 61.199 110.973 59.701 112.967 C 58.869 114.074 58.347 115.296 58.65 116.673 C 59.303 119.638 62.988 119.923 65.454 118.72 C 66.948 117.991 68.165 116.827 68.275 115.124 C 68.383 113.468 67.465 112.096 66.063 111.252 Z " fill="rgb(87,38,106)"/><path d=" M 52.123 117.226 C 50.234 116.98 49.168 115.07 49.467 113.243 C 49.734 111.618 50.985 110.251 52.676 110.312 C 54.385 110.373 55.551 111.857 55.663 113.52 C 55.799 115.541 54.2 117.498 52.123 117.226 Z " fill="rgb(87,38,106)"/><path d=" M 68.884 122.26 C 67.323 119.698 64.193 120.025 61.416 120.048 C 58.787 120.069 55.463 119.396 54.335 122.15 C 53.064 125.254 56.577 127.092 58.982 128.677 C 61.345 130.234 64.028 131.873 66.671 130.392 C 69.548 128.78 70.608 125.091 68.884 122.26 Z " fill="rgb(109,51,132)"/><path d=" M 52.289 123.039 C 51.631 121.285 49.801 120.668 48.005 120.66 C 47.998 128.043 47.998 120.656 48.005 128.073 C 50.599 127.93 53.281 125.685 52.289 123.039 Z " fill="rgb(94,43,115)"/><path d=" M 95.989 120.66 C 93.809 120.651 91.436 121.666 91.201 123.979 C 90.938 126.564 93.55 128.208 95.989 128.073 C 96 120.702 96 128.107 95.989 120.66 Z " fill="rgb(94,43,115)"/><path d=" M 90.042 129.887 C 90.958 128.012 90.478 125.993 89.251 124.352 C 88.047 122.74 86.287 121.836 84.27 122.019 C 81.87 122.238 79.868 123.85 79.447 126.25 C 78.981 128.905 80.772 131.199 83.242 132.1 C 85.786 133.029 88.811 132.405 90.042 129.887 Z " fill="rgb(109,51,132)"/><path d=" M 77.747 127.594 C 76.765 126.309 75.805 124.942 74.11 124.866 C 72.073 124.775 71.035 126.628 69.959 128.187 C 68.74 129.952 67.683 131.831 68.338 133.959 C 69.006 136.126 70.833 137.456 73.043 137.833 C 75.39 138.233 77.665 137.407 79.012 135.421 C 80.736 132.88 79.51 129.899 77.747 127.594 Z " fill="rgb(121,61,145)"/><path d=" M 62.864 135.326 C 63.308 131.353 54.827 127.276 52.38 127.957 C 50.854 128.382 49.783 129.565 49.222 131.073 C 48.269 133.633 49.839 136.021 51.874 137.642 C 54.336 139.602 57.584 139.704 60.254 138.063 C 61.399 137.359 62.715 136.666 62.864 135.326 Z " fill="rgb(121,61,145)"/><path d=" M 48.005 142.737 Q 48.975 143.098 51.983 143.699 C 54.234 144.149 56.199 143.587 58.48 143.459 C 60.957 143.32 63.039 143.005 65.519 142.917 C 67.632 142.842 69.425 142.751 71.535 142.917 C 73.196 143.048 74.559 143.539 76.227 143.579 C 77.371 143.606 78.332 143.361 79.476 143.398 C 80.562 143.434 81.459 143.706 82.544 143.759 C 84.025 143.833 85.28 143.721 86.755 143.579 C 88.181 143.441 89.384 143.271 90.786 142.977 Q 94.516 142.195 96.005 142.737 L 96.005 139.849 L 48.005 139.849 L 48.005 142.737 Z " fill="rgb(87,38,106)"/><path d=" M 91.798 131.093 C 93.155 131.341 94.17 132.16 94.827 133.364 C 96.157 135.801 94.333 138.25 92.339 139.854 C 90.841 141.058 88.835 142.937 87.219 141.332 C 86.033 140.154 86.835 138.523 87.183 137.041 C 87.808 134.386 88.597 130.507 91.798 131.093 Z " fill="rgb(121,61,145)"/><path d=" M 78.089 140.669 C 78.927 142.061 80.499 142.539 82.076 142.334 C 83.128 142.198 83.964 141.729 84.701 140.972 C 86.258 139.371 86.629 136.925 85.256 135.117 C 84.606 134.26 83.834 133.551 82.732 133.501 C 81.42 133.442 80.636 134.494 79.805 135.419 C 78.47 136.905 76.954 138.783 78.089 140.669 Z " fill="rgb(121,61,145)"/><path d=" M 73.229 138.935 C 74.738 139.617 77.88 139.711 76.94 141.773 C 76.216 143.363 74.289 142.369 72.836 142.21 C 70.076 141.908 64.283 142.084 66.155 138.411 C 67.596 135.586 70.911 137.887 73.229 138.935 Z " fill="rgb(121,61,145)"/><path d=" M 65.196 131.831 C 64.018 132.078 63.673 133.412 63.925 134.506 C 64.164 135.539 64.951 136.526 66.065 136.344 C 67.249 136.152 67.649 134.834 67.436 133.737 C 67.223 132.641 66.362 131.586 65.196 131.831 Z " fill="rgb(121,61,145)"/><path d=" M 65.032 139.382 C 64.707 137.661 62.594 138.435 61.237 138.718 C 60.164 138.942 58.891 139.059 58.548 140.205 C 57.889 142.409 61.042 142.258 62.628 141.786 C 63.821 141.431 65.292 140.763 65.032 139.382 Z " fill="rgb(121,61,145)"/><path d=" M 49.147 138.613 C 50.105 136.778 52.073 138.764 53.517 139.391 C 54.519 139.826 56.091 139.785 56.12 141.067 C 56.147 142.225 54.925 142.628 53.936 142.953 C 52.257 143.503 50.468 142.86 49.566 141.336 C 49.061 140.483 48.668 139.531 49.147 138.613 Z " fill="rgb(121,61,145)"/></g><g id="Group"><linearGradient id="_lgradient_11" x1="50%" y1="100%" x2="50.000000000000014%" y2="0%"><stop offset="0%" stop-opacity="1" style="stop-color:rgb(67,28,83)"/><stop offset="100%" stop-opacity="1" style="stop-color:rgb(87,38,106)"/></linearGradient><rect x="94" y="50" width="48" height="44" transform="matrix(0,1,-1,0,190,-46)" fill="url(#_lgradient_11)"/><path d=" M 107.135 80.316 Q 107.468 81.484 107.894 81.976 C 108.858 83.09 110.347 83.232 111.716 82.795 C 113.182 82.326 113.829 80.993 114.408 79.627 C 115.14 77.9 115.275 76.143 114.498 74.42 C 114.084 73.503 113.619 72.723 112.762 72.175 Q 112.172 71.799 110.897 71.533 Q 111.398 72.483 111.579 73.034 C 112.03 74.404 112.262 75.707 111.774 77.083 C 111.452 77.992 111.006 78.725 110.248 79.328 Q 109.33 80.059 107.135 80.316 Z " fill="rgb(87,38,106)"/><path d=" M 101.765 87.991 C 101.702 86.886 100.874 85.811 99.718 85.972 C 98.557 86.134 98.08 87.406 98.308 88.489 C 98.498 89.397 99.136 90.226 100.106 90.204 C 101.224 90.179 101.826 89.045 101.765 87.991 Z " fill="rgb(87,38,106)"/><path d=" M 101.119 68.842 C 101.622 68.708 101.86 68.186 101.783 67.686 C 101.695 67.116 101.178 66.65 100.598 66.79 C 100.011 66.932 99.765 67.598 99.963 68.148 C 100.136 68.631 100.608 68.978 101.119 68.842 Z " fill="rgb(87,38,106)"/><path d=" M 105.474 62.243 Q 106.629 62.981 107.349 62.925 C 108.759 62.814 109.183 61.334 109.531 60.095 C 109.96 58.569 109.66 57.078 108.679 55.833 Q 108.08 55.074 106.463 54.265 Q 106.811 56.18 106.804 57.231 C 106.796 58.272 106.735 59.166 106.429 60.163 Q 106.192 60.934 105.474 62.243 Z " fill="rgb(87,38,106)"/><path d=" M 113.719 95.16 C 111.791 94.134 111.4 91.971 111.375 89.886 C 111.343 87.106 112.214 83.895 115.185 83.39 C 116.808 83.114 118.259 83.68 119.483 84.758 C 121.073 86.158 121.494 88.16 121.241 90.228 C 120.987 92.296 120.136 94.191 118.213 95.112 C 116.742 95.815 115.173 95.934 113.719 95.16 Z " fill="rgb(87,38,106)"/><path d=" M 116.21 81.192 Q 118.513 82.818 119.971 82.609 C 121.584 82.377 122.591 81.172 123.341 79.776 C 124.224 78.133 124.12 76.408 123.585 74.648 C 122.966 72.613 122.132 70.278 119.824 70.106 Q 117.91 69.963 115.624 72.938 Q 116.269 75.768 116.357 77.334 Q 116.433 78.691 116.21 81.192 Z " fill="rgb(94,43,115)"/><path d=" M 111.252 66.058 C 109.919 63.843 110.973 61.194 112.967 59.696 C 114.074 58.864 115.296 58.342 116.673 58.645 C 119.638 59.298 119.923 62.983 118.72 65.449 C 117.991 66.943 116.827 68.16 115.124 68.27 C 113.468 68.378 112.096 67.46 111.252 66.058 Z " fill="rgb(87,38,106)"/><path d=" M 117.226 52.118 C 116.98 50.229 115.07 49.163 113.243 49.462 C 111.618 49.729 110.251 50.98 110.312 52.671 C 110.373 54.38 111.857 55.546 113.52 55.658 C 115.541 55.794 117.498 54.195 117.226 52.118 Z " fill="rgb(87,38,106)"/><path d=" M 122.26 68.879 C 119.698 67.318 120.025 64.188 120.048 61.411 C 120.069 58.782 119.396 55.458 122.15 54.33 C 125.254 53.059 127.092 56.572 128.677 58.977 C 130.234 61.34 131.873 64.023 130.392 66.666 C 128.78 69.543 125.091 70.603 122.26 68.879 Z " fill="rgb(109,51,132)"/><path d=" M 123.039 52.284 C 121.285 51.626 120.668 49.796 120.66 48 C 128.043 47.993 120.656 47.993 128.073 48 C 127.93 50.594 125.685 53.276 123.039 52.284 Z " fill="rgb(94,43,115)"/><path d=" M 120.66 95.984 C 120.651 93.804 121.666 91.431 123.979 91.196 C 126.564 90.933 128.208 93.545 128.073 95.984 C 120.702 95.995 128.107 95.995 120.66 95.984 Z " fill="rgb(94,43,115)"/><path d=" M 129.887 90.037 C 128.012 90.953 125.993 90.473 124.352 89.246 C 122.74 88.042 121.836 86.282 122.019 84.265 C 122.238 81.865 123.85 79.863 126.25 79.442 C 128.905 78.976 131.199 80.767 132.1 83.237 C 133.029 85.781 132.405 88.806 129.887 90.037 Z " fill="rgb(109,51,132)"/><path d=" M 127.594 77.742 C 126.309 76.76 124.942 75.8 124.866 74.105 C 124.775 72.068 126.628 71.03 128.187 69.954 C 129.952 68.735 131.831 67.678 133.959 68.333 C 136.126 69.001 137.456 70.828 137.833 73.038 C 138.233 75.385 137.407 77.66 135.421 79.007 C 132.88 80.731 129.899 79.505 127.594 77.742 Z " fill="rgb(121,61,145)"/><path d=" M 135.326 62.859 C 131.353 63.303 127.276 54.822 127.957 52.375 C 128.382 50.849 129.565 49.778 131.073 49.217 C 133.633 48.264 136.021 49.834 137.642 51.869 C 139.602 54.331 139.704 57.579 138.063 60.249 C 137.359 61.394 136.666 62.71 135.326 62.859 Z " fill="rgb(121,61,145)"/><path d=" M 142.737 48 Q 143.098 48.97 143.699 51.978 C 144.149 54.229 143.587 56.194 143.459 58.475 C 143.32 60.952 143.005 63.034 142.917 65.514 C 142.842 67.627 142.751 69.42 142.917 71.53 C 143.048 73.191 143.539 74.554 143.579 76.222 C 143.606 77.366 143.361 78.327 143.398 79.471 C 143.434 80.557 143.706 81.454 143.759 82.539 C 143.833 84.02 143.721 85.275 143.579 86.75 C 143.441 88.176 143.271 89.379 142.977 90.781 Q 142.195 94.511 142.737 96 L 139.849 96 L 139.849 48 L 142.737 48 Z " fill="rgb(87,38,106)"/><path d=" M 131.093 91.793 C 131.341 93.15 132.16 94.165 133.364 94.822 C 135.801 96.152 138.25 94.328 139.854 92.334 C 141.058 90.836 142.937 88.83 141.332 87.214 C 140.154 86.028 138.523 86.83 137.041 87.178 C 134.386 87.803 130.507 88.592 131.093 91.793 Z " fill="rgb(121,61,145)"/><path d=" M 140.669 78.084 C 142.061 78.922 142.539 80.494 142.334 82.071 C 142.198 83.123 141.729 83.959 140.972 84.696 C 139.371 86.253 136.925 86.624 135.117 85.251 C 134.26 84.601 133.551 83.829 133.501 82.727 C 133.442 81.415 134.494 80.631 135.419 79.8 C 136.905 78.465 138.783 76.949 140.669 78.084 Z " fill="rgb(121,61,145)"/><path d=" M 138.935 73.224 C 139.617 74.733 139.711 77.875 141.773 76.935 C 143.363 76.211 142.369 74.284 142.21 72.831 C 141.908 70.071 142.084 64.278 138.411 66.15 C 135.586 67.591 137.887 70.906 138.935 73.224 Z " fill="rgb(121,61,145)"/><path d=" M 131.831 65.191 C 132.078 64.013 133.412 63.668 134.506 63.92 C 135.539 64.159 136.526 64.946 136.344 66.06 C 136.152 67.244 134.834 67.644 133.737 67.431 C 132.641 67.218 131.586 66.357 131.831 65.191 Z " fill="rgb(121,61,145)"/><path d=" M 139.382 65.027 C 137.661 64.702 138.435 62.589 138.718 61.232 C 138.942 60.159 139.059 58.886 140.205 58.543 C 142.409 57.884 142.258 61.037 141.786 62.623 C 141.431 63.816 140.763 65.287 139.382 65.027 Z " fill="rgb(121,61,145)"/><path d=" M 138.613 49.142 C 136.778 50.1 138.764 52.068 139.391 53.512 C 139.826 54.514 139.785 56.086 141.067 56.115 C 142.225 56.142 142.628 54.92 142.953 53.931 C 143.503 52.252 142.86 50.463 141.336 49.561 C 140.483 49.056 139.531 48.663 138.613 49.142 Z " fill="rgb(121,61,145)"/></g><g id="Group"><radialGradient id="_rgradient_8" fx="50%" fy="50%" cx="50%" cy="50%" r="50%" gradientTransform="matrix(1.858904708328252 0.0021708136613588953 0.015394655969591041 2.122291710142356 -0.9380842900241051 -0.06050542871105905)"><stop offset="0%" stop-opacity="1" style="stop-color:rgb(67,28,83)"/><stop offset="100%" stop-opacity="1" style="stop-color:rgb(87,38,106)"/></radialGradient><rect x="3.993" y="3.979" width="44.015" height="44" transform="matrix(0,-1,1,0,0.021,51.979)" fill="url(#_rgradient_8)"/><path d=" M 30.281 47.147 C 32.209 46.12 32.6 43.957 32.625 41.872 C 32.657 39.092 31.786 35.882 28.815 35.377 C 27.192 35.101 25.741 35.666 24.517 36.744 C 22.927 38.145 22.506 40.146 22.759 42.214 C 23.013 44.282 23.864 46.178 25.787 47.098 C 27.258 47.801 28.827 47.921 30.281 47.147 Z " fill="rgb(87,38,106)"/><path d=" M 27.79 33.179 Q 25.487 34.805 24.029 34.595 C 22.416 34.363 21.409 33.158 20.659 31.762 C 19.776 30.12 19.88 28.394 20.415 26.634 C 21.034 24.599 21.868 22.264 24.176 22.092 Q 26.09 21.95 28.376 24.925 Q 27.731 27.754 27.643 29.321 Q 27.567 30.677 27.79 33.179 Z " fill="rgb(94,43,115)"/><path d=" M 21.74 20.865 C 24.302 19.305 23.975 16.174 23.952 13.397 C 23.931 10.768 24.604 7.444 21.85 6.317 C 18.746 5.046 16.908 8.558 15.323 10.963 C 13.766 13.327 12.127 16.009 13.608 18.653 C 15.22 21.529 18.909 22.589 21.74 20.865 Z " fill="rgb(109,51,132)"/><path d=" M 23.34 47.971 C 23.349 45.791 22.334 43.417 20.021 43.182 C 17.436 42.92 15.792 45.531 15.927 47.971 C 23.298 47.981 15.893 47.981 23.34 47.971 Z " fill="rgb(94,43,115)"/><path d=" M 14.113 42.023 C 15.988 42.939 18.007 42.459 19.648 41.233 C 21.26 40.028 22.164 38.269 21.981 36.252 C 21.762 33.852 20.15 31.85 17.75 31.429 C 15.095 30.962 12.801 32.754 11.9 35.224 C 10.971 37.767 11.595 40.793 14.113 42.023 Z " fill="rgb(109,51,132)"/><path d=" M 31.864 35.069 C 33.461 35.85 35.182 35.441 36.58 34.396 C 37.954 33.369 38.724 31.87 38.567 30.152 C 38.381 28.107 37.007 26.401 34.963 26.042 C 32.701 25.645 30.746 27.171 29.978 29.276 C 29.187 31.443 29.718 34.021 31.864 35.069 Z " fill="rgb(87,38,106)"/><path d=" M 16.406 29.729 C 17.691 28.746 19.058 27.787 19.134 26.092 C 19.225 24.054 17.372 23.017 15.813 21.941 C 14.048 20.722 12.169 19.665 10.041 20.32 C 7.874 20.987 6.544 22.815 6.167 25.024 C 5.767 27.372 6.593 29.647 8.579 30.994 C 11.12 32.717 14.101 31.491 16.406 29.729 Z " fill="rgb(121,61,145)"/><path d=" M 8.674 14.846 C 12.647 15.29 16.724 6.808 16.043 4.361 C 15.618 2.835 13.774 3.449 12.469 3.251 C 10.313 2.924 7.938 1.875 6.358 3.856 C 4.396 6.317 4.296 9.566 5.937 12.235 C 6.641 13.38 7.334 14.696 8.674 14.846 Z " fill="rgb(121,61,145)"/><path d=" M 0.301 3.964 C -0.149 6.215 0.413 8.181 0.541 10.462 C 0.68 12.938 0.995 15.021 1.083 17.5 C 1.158 19.613 1.249 21.407 1.083 23.516 C 0.952 25.177 0.461 26.54 0.421 28.209 C 0.394 29.353 0.639 30.313 0.602 31.457 C 0.566 32.543 0.294 33.44 0.241 34.525 C 0.167 36.007 0.279 37.262 0.421 38.737 C 0.559 40.163 0.729 41.365 1.023 42.767 Q 1.805 46.497 1.263 47.986 L 4.151 47.986 L 4.151 4.526 Q 0.902 0.956 0.301 3.964 Z " fill="rgb(87,38,106)"/><path d=" M 12.907 43.78 C 12.659 45.136 11.84 46.151 10.636 46.808 C 8.199 48.138 5.75 46.315 4.146 44.32 C 2.942 42.823 1.063 40.817 2.668 39.201 C 3.846 38.014 5.477 38.816 6.959 39.165 C 9.614 39.789 13.493 40.578 12.907 43.78 Z " fill="rgb(121,61,145)"/><path d=" M 3.331 30.07 C 1.939 30.908 1.461 32.481 1.666 34.058 C 1.802 35.11 2.271 35.945 3.028 36.682 C 4.629 38.239 7.075 38.61 8.883 37.238 C 9.74 36.588 10.449 35.815 10.499 34.714 C 10.558 33.402 9.506 32.617 8.581 31.786 C 7.095 30.452 5.217 28.936 3.331 30.07 Z " fill="rgb(121,61,145)"/><path d=" M 5.065 25.21 C 4.383 26.719 4.289 29.861 2.227 28.922 C 0.637 28.198 1.631 26.27 1.79 24.817 C 2.092 22.057 1.916 16.264 5.589 18.137 C 8.414 19.577 6.113 22.892 5.065 25.21 Z " fill="rgb(121,61,145)"/><path d=" M 12.169 17.177 C 11.922 16 10.588 15.654 9.494 15.907 C 8.461 16.146 7.474 16.932 7.656 18.046 C 7.848 19.23 9.166 19.63 10.263 19.417 C 11.359 19.205 12.414 18.343 12.169 17.177 Z " fill="rgb(121,61,145)"/><path d=" M 4.618 17.013 C 6.339 16.689 5.565 14.576 5.282 13.218 C 5.058 12.145 4.941 10.872 3.795 10.53 C 1.591 9.871 1.742 13.024 2.214 14.61 C 2.569 15.803 3.237 17.274 4.618 17.013 Z " fill="rgb(121,61,145)"/><path d=" M 29.448 12.248 C 31.741 11.816 30.71 9.001 30.333 7.192 C 30.035 5.763 29.878 4.067 28.353 3.611 C 25.417 2.733 25.617 6.933 26.246 9.046 C 26.719 10.635 27.608 12.595 29.448 12.248 Z " fill="rgb(121,61,145)"/><path d=" M 5.387 1.129 C 7.222 2.086 5.236 4.055 4.609 5.498 C 4.174 6.5 4.215 8.072 2.933 8.102 C 1.775 8.128 1.372 6.906 1.047 5.917 C 0.497 4.238 1.14 2.45 2.664 1.548 C 3.517 1.042 4.469 0.649 5.387 1.129 Z " fill="rgb(121,61,145)"/><path d=" M 33.136 8.863 C 32.692 12.835 41.173 16.913 43.62 16.231 C 45.146 15.806 46.217 14.624 46.778 13.115 C 47.731 10.555 46.161 8.168 44.126 6.547 C 41.664 4.586 38.416 4.485 35.746 6.126 C 34.601 6.829 33.285 7.522 33.136 8.863 Z " fill="rgb(121,61,145)"/><path d=" M 0 1.432 Q 3.303 0.144 5.208 0.019 Q 7.74 -0.148 12.203 1.432 Q 15.656 0.03 17.636 0.019 C 22.93 -0.011 23.032 -0.128 25.702 0.977 Q 26.68 1.382 28.352 2.4 Q 29.932 1.32 30.882 0.912 C 32.774 0.099 34.183 -0.011 36.612 0.019 Q 38.193 0.038 41.003 0.912 Q 42.875 0.049 43.979 0.019 Q 45.51 -0.024 48 1.432 L 48 10.958 C 46.703 9.447 45.968 7.695 45.765 5.674 C 44.506 8.796 42.68 11.361 40.259 13.339 C 41.034 11.122 41.043 8.974 40.259 6.865 C 39.529 9.011 38.299 10.46 36.538 11.181 C 35.743 9.455 34.364 8.249 32.37 7.535 C 31.368 10.336 31.403 12.852 32.445 15.051 C 29.689 13.057 27.69 10.413 26.417 7.088 C 25.001 8.943 24.416 10.938 24.631 13.042 C 22.713 10.876 21.557 8.679 21.133 6.418 C 20.896 7.845 20.088 8.872 18.678 9.47 C 18.747 7.888 18.037 6.608 16.52 5.6 C 15.763 8.266 15.798 11.327 16.594 14.753 C 14.071 12.988 12.543 10.989 11.98 8.725 C 11.339 9.884 10.109 10.663 8.259 11.032 C 9.008 9.552 9.216 7.826 8.855 5.823 C 7.65 7.472 6.147 8.623 4.315 9.246 C 4.237 7.523 3.403 6.194 1.785 5.228 C 0.755 7.213 0.17 9.133 0 10.958 L 0 1.432 Z " fill="rgb(0,195,137)"/><path d=" M 0 3.251 Q 2.032 2.443 3.199 2.26 C 4.878 1.998 6.318 2.324 7.995 2.521 Q 8.953 2.634 10.706 2.938 Q 12.63 2.49 13.626 2.104 C 14.659 1.704 15.367 0.987 16.441 0.696 C 17.316 0.46 18.093 0.463 18.996 0.436 C 20.042 0.404 20.937 0.4 21.968 0.592 C 22.836 0.754 23.539 1.017 24.366 1.322 C 25.683 1.808 26.615 2.642 27.964 3.042 Q 28.415 3.177 29.267 3.355 Q 31.208 3.008 32.239 2.73 C 33.056 2.509 33.696 2.138 34.533 2 C 35.587 1.825 36.501 1.918 37.557 2.052 Q 38.471 2.168 40.112 2.625 Q 41.909 2.034 42.927 1.948 C 43.659 1.886 44.283 1.925 45.012 2 C 45.735 2.073 46.406 1.99 47.046 2.365 Q 47.444 2.598 48 3.251 L 48 5.228 Q 47.005 4.758 46.42 4.659 C 45.44 4.493 44.544 4.564 43.657 5.024 Q 43.075 5.325 42.249 6.223 Q 41.031 5.395 40.268 5.18 C 39.341 4.919 38.484 4.849 37.557 5.128 C 36.932 5.316 36.575 5.854 35.941 6.014 Q 35.201 6.201 33.803 5.91 Q 32.988 5.241 32.447 5.076 C 31.636 4.829 30.919 5.155 30.101 5.284 Q 29.416 5.392 28.172 5.701 Q 26.202 5.5 25.2 5.128 C 24.422 4.839 23.92 4.251 23.115 4.033 C 22.149 3.772 21.24 3.656 20.299 4.033 Q 19.709 4.27 18.84 5.076 Q 16.89 4.684 15.816 4.659 C 14.859 4.636 13.987 4.447 13.105 4.867 Q 12.464 5.172 11.593 6.171 Q 10.033 5.104 9.038 4.919 C 8.368 4.795 7.781 4.816 7.109 4.919 Q 6.215 5.056 4.711 5.806 Q 3.637 4.992 2.938 4.815 Q 1.902 4.553 0 5.228 L 0 3.251 Z " fill="rgb(19,215,163)"/><path d=" M 43.877 26.962 C 45.766 27.209 46.832 29.119 46.533 30.945 C 46.266 32.57 45.015 33.938 43.324 33.877 C 41.615 33.815 40.449 32.331 40.337 30.668 C 40.201 28.648 41.8 26.691 43.877 26.962 Z " fill="rgb(87,38,106)"/><path d=" M 27.116 21.928 C 28.677 24.491 31.807 24.164 34.584 24.141 C 37.213 24.12 40.537 24.793 41.665 22.039 C 42.936 18.935 39.423 17.096 37.018 15.511 C 34.655 13.955 31.972 12.316 29.329 13.797 C 26.452 15.408 25.392 19.098 27.116 21.928 Z " fill="rgb(109,51,132)"/><path d=" M 43.711 21.15 C 44.369 22.903 46.199 23.521 47.995 23.528 C 48.002 16.146 48.002 23.533 47.995 16.116 C 45.401 16.259 42.719 18.503 43.711 21.15 Z " fill="rgb(94,43,115)"/></g><g id="Group"><radialGradient id="_rgradient_9" fx="50%" fy="50%" cx="50%" cy="50%" r="50%" gradientTransform="matrix(1.858904708328252 0.0021708136613588953 0.015394655969591041 2.122291710142356 -0.9380842900241051 -0.06050542871105905)"><stop offset="0%" stop-opacity="1" style="stop-color:rgb(67,28,83)"/><stop offset="100%" stop-opacity="1" style="stop-color:rgb(87,38,106)"/></radialGradient><rect x="95.864" y="3.993" width="44.015" height="44" transform="matrix(0,1,-1,0,143.864,-91.878)" fill="url(#_rgradient_9)"/><path d=" M 113.59 47.16 C 111.662 46.134 111.27 43.971 111.246 41.886 C 111.214 39.106 112.085 35.895 115.056 35.39 C 116.679 35.114 118.129 35.68 119.353 36.758 C 120.944 38.158 121.365 40.16 121.112 42.228 C 120.858 44.296 120.007 46.191 118.084 47.112 C 116.613 47.815 115.044 47.934 113.59 47.16 Z " fill="rgb(87,38,106)"/><path d=" M 116.081 33.192 Q 118.384 34.818 119.842 34.609 C 121.455 34.377 122.462 33.172 123.212 31.776 C 124.095 30.133 123.991 28.408 123.456 26.648 C 122.837 24.613 122.003 22.278 119.695 22.106 Q 117.781 21.963 115.495 24.938 Q 116.139 27.768 116.228 29.334 Q 116.304 30.691 116.081 33.192 Z " fill="rgb(94,43,115)"/><path d=" M 122.131 20.879 C 119.569 19.318 119.896 16.188 119.918 13.411 C 119.94 10.782 119.267 7.458 122.02 6.33 C 125.125 5.059 126.963 8.572 128.548 10.977 C 130.105 13.34 131.744 16.023 130.263 18.666 C 128.651 21.543 124.961 22.603 122.131 20.879 Z " fill="rgb(109,51,132)"/><path d=" M 120.531 47.984 C 120.522 45.804 121.537 43.431 123.85 43.196 C 126.435 42.933 128.078 45.545 127.944 47.984 C 120.573 47.995 127.978 47.995 120.531 47.984 Z " fill="rgb(94,43,115)"/><path d=" M 129.757 42.037 C 127.883 42.953 125.864 42.473 124.223 41.246 C 122.611 40.042 121.707 38.282 121.89 36.265 C 122.109 33.865 123.721 31.863 126.12 31.442 C 128.775 30.976 131.07 32.767 131.971 35.237 C 132.9 37.781 132.276 40.806 129.757 42.037 Z " fill="rgb(109,51,132)"/><path d=" M 112.006 35.083 C 110.41 35.863 108.689 35.454 107.291 34.409 C 105.917 33.383 105.147 31.884 105.303 30.165 C 105.49 28.12 106.863 26.415 108.908 26.056 C 111.17 25.659 113.125 27.185 113.893 29.289 C 114.684 31.456 114.152 34.034 112.006 35.083 Z " fill="rgb(87,38,106)"/><path d=" M 127.465 29.742 C 126.179 28.76 124.813 27.8 124.737 26.105 C 124.646 24.068 126.498 23.03 128.058 21.954 C 129.823 20.735 131.702 19.678 133.829 20.333 C 135.997 21.001 137.327 22.828 137.704 25.038 C 138.104 27.385 137.278 29.66 135.292 31.007 C 132.751 32.731 129.77 31.505 127.465 29.742 Z " fill="rgb(121,61,145)"/><path d=" M 135.197 14.859 C 131.224 15.303 127.147 6.822 127.828 4.375 C 128.253 2.849 130.097 3.462 131.402 3.265 C 133.558 2.938 135.933 1.889 137.513 3.869 C 139.475 6.33 139.575 9.579 137.934 12.249 C 137.23 13.394 136.537 14.71 135.197 14.859 Z " fill="rgb(121,61,145)"/><path d=" M 143.57 3.978 C 144.02 6.229 143.457 8.194 143.329 10.475 C 143.19 12.952 142.876 15.034 142.788 17.514 C 142.713 19.627 142.622 21.42 142.788 23.53 C 142.918 25.191 143.41 26.554 143.45 28.222 C 143.477 29.366 143.231 30.327 143.269 31.471 C 143.305 32.557 143.577 33.454 143.63 34.539 C 143.704 36.02 143.592 37.275 143.45 38.75 C 143.312 40.176 143.142 41.379 142.848 42.781 Q 142.066 46.511 142.608 48 L 139.72 48 L 139.72 4.54 Q 142.968 0.97 143.57 3.978 Z " fill="rgb(87,38,106)"/><path d=" M 130.963 43.793 C 131.212 45.15 132.031 46.165 133.235 46.822 C 135.672 48.152 138.121 46.328 139.725 44.334 C 140.929 42.836 142.808 40.83 141.203 39.214 C 140.025 38.028 138.394 38.83 136.912 39.178 C 134.256 39.803 130.378 40.592 130.963 43.793 Z " fill="rgb(121,61,145)"/><path d=" M 140.54 30.084 C 141.932 30.922 142.41 32.494 142.205 34.071 C 142.069 35.123 141.6 35.959 140.842 36.696 C 139.242 38.253 136.796 38.624 134.987 37.251 C 134.131 36.601 133.422 35.829 133.372 34.727 C 133.313 33.415 134.365 32.631 135.29 31.8 C 136.776 30.465 138.654 28.949 140.54 30.084 Z " fill="rgb(121,61,145)"/><path d=" M 138.806 25.224 C 139.488 26.733 139.582 29.875 141.644 28.935 C 143.234 28.211 142.239 26.284 142.081 24.831 C 141.779 22.071 141.955 16.278 138.282 18.15 C 135.457 19.591 137.758 22.906 138.806 25.224 Z " fill="rgb(121,61,145)"/><path d=" M 131.702 17.191 C 131.949 16.013 133.283 15.668 134.376 15.92 C 135.41 16.159 136.396 16.946 136.215 18.06 C 136.023 19.244 134.705 19.644 133.608 19.431 C 132.512 19.218 131.457 18.357 131.702 17.191 Z " fill="rgb(121,61,145)"/><path d=" M 139.253 17.027 C 137.532 16.702 138.306 14.589 138.589 13.232 C 138.813 12.159 138.93 10.886 140.076 10.543 C 142.28 9.884 142.129 13.037 141.657 14.623 C 141.302 15.816 140.634 17.287 139.253 17.027 Z " fill="rgb(121,61,145)"/><path d=" M 114.423 12.262 C 112.13 11.829 113.161 9.014 113.538 7.206 C 113.836 5.777 113.992 4.081 115.518 3.624 C 118.454 2.747 118.254 6.947 117.625 9.06 C 117.152 10.649 116.263 12.608 114.423 12.262 Z " fill="rgb(121,61,145)"/><path d=" M 138.484 1.142 C 136.649 2.1 138.635 4.068 139.262 5.512 C 139.697 6.514 139.656 8.086 140.938 8.115 C 142.096 8.142 142.499 6.92 142.823 5.931 C 143.373 4.252 142.731 2.463 141.207 1.561 C 140.354 1.056 139.402 0.663 138.484 1.142 Z " fill="rgb(121,61,145)"/><path d=" M 110.735 8.876 C 111.179 12.849 102.698 16.926 100.251 16.245 C 98.725 15.82 97.654 14.637 97.093 13.129 C 96.14 10.569 97.71 8.181 99.745 6.56 C 102.207 4.6 105.455 4.498 108.125 6.139 C 109.27 6.843 110.586 7.536 110.735 8.876 Z " fill="rgb(121,61,145)"/><path d=" M 95.871 1.446 Q 99.174 0.157 101.079 0.032 Q 103.611 -0.134 108.074 1.446 Q 111.527 0.043 113.507 0.032 C 118.801 0.002 118.903 -0.115 121.573 0.99 Q 122.551 1.395 124.223 2.413 Q 125.803 1.333 126.753 0.925 C 128.645 0.113 130.054 0.002 132.483 0.032 Q 134.063 0.052 136.874 0.925 Q 138.746 0.063 139.85 0.032 Q 141.381 -0.01 143.871 1.446 L 143.871 10.971 C 142.574 9.46 141.839 7.709 141.636 5.688 C 140.377 8.809 138.551 11.374 136.129 13.353 C 136.904 11.135 136.914 8.987 136.129 6.878 C 135.4 9.025 134.17 10.473 132.409 11.195 C 131.614 9.468 130.235 8.263 128.241 7.548 C 127.239 10.35 127.274 12.865 128.316 15.064 C 125.56 13.071 123.561 10.427 122.288 7.102 C 120.872 8.957 120.287 10.951 120.502 13.055 C 118.584 10.89 117.428 8.692 117.004 6.432 C 116.767 7.859 115.958 8.886 114.549 9.483 C 114.617 7.902 113.908 6.622 112.39 5.613 C 111.634 8.279 111.669 11.341 112.465 14.767 C 109.942 13.001 108.414 11.002 107.851 8.739 C 107.21 9.897 105.979 10.676 104.13 11.046 C 104.879 9.566 105.087 7.84 104.725 5.837 C 103.521 7.485 102.017 8.636 100.186 9.26 C 100.107 7.537 99.274 6.207 97.656 5.241 C 96.626 7.226 96.041 9.146 95.871 10.971 L 95.871 1.446 Z " fill="rgb(0,195,137)"/><path d=" M 95.871 3.265 Q 97.903 2.456 99.069 2.274 C 100.749 2.012 102.189 2.338 103.866 2.535 Q 104.823 2.647 106.577 2.952 Q 108.5 2.503 109.497 2.118 C 110.53 1.718 111.237 1.001 112.312 0.71 C 113.187 0.473 113.964 0.476 114.867 0.449 C 115.913 0.418 116.808 0.413 117.839 0.606 C 118.706 0.767 119.41 1.03 120.237 1.336 C 121.553 1.821 122.486 2.656 123.835 3.056 Q 124.286 3.19 125.138 3.369 Q 127.079 3.021 128.11 2.743 C 128.927 2.523 129.566 2.152 130.404 2.013 C 131.458 1.839 132.371 1.931 133.428 2.065 Q 134.342 2.182 135.982 2.639 Q 137.78 2.047 138.798 1.961 C 139.53 1.899 140.153 1.939 140.883 2.013 C 141.606 2.087 142.277 2.004 142.917 2.378 Q 143.315 2.611 143.871 3.265 L 143.871 5.241 Q 142.876 4.771 142.291 4.672 C 141.311 4.507 140.415 4.577 139.528 5.037 Q 138.946 5.339 138.12 6.236 Q 136.902 5.408 136.139 5.194 C 135.212 4.933 134.355 4.863 133.428 5.142 C 132.803 5.329 132.446 5.867 131.811 6.028 Q 131.072 6.215 129.674 5.924 Q 128.859 5.254 128.318 5.089 C 127.507 4.842 126.79 5.169 125.972 5.298 Q 125.287 5.406 124.043 5.715 Q 122.073 5.513 121.071 5.142 C 120.293 4.853 119.791 4.264 118.986 4.047 C 118.02 3.786 117.111 3.67 116.17 4.047 Q 115.58 4.283 114.711 5.089 Q 112.761 4.698 111.687 4.672 C 110.73 4.649 109.858 4.461 108.975 4.881 Q 108.335 5.186 107.463 6.184 Q 105.904 5.117 104.909 4.933 C 104.239 4.809 103.652 4.83 102.98 4.933 Q 102.086 5.07 100.581 5.819 Q 99.508 5.006 98.809 4.829 Q 97.773 4.566 95.871 5.241 L 95.871 3.265 Z " fill="rgb(19,215,163)"/><path d=" M 99.994 26.976 C 98.105 27.222 97.039 29.132 97.338 30.959 C 97.605 32.584 98.856 33.951 100.547 33.89 C 102.256 33.829 103.422 32.345 103.534 30.682 C 103.669 28.661 102.071 26.704 99.994 26.976 Z " fill="rgb(87,38,106)"/><path d=" M 116.755 21.942 C 115.194 24.504 112.064 24.177 109.287 24.155 C 106.657 24.133 103.334 24.806 102.206 22.052 C 100.935 18.948 104.448 17.11 106.853 15.525 C 109.216 13.968 111.898 12.329 114.542 13.81 C 117.418 15.422 118.478 19.111 116.755 21.942 Z " fill="rgb(109,51,132)"/><path d=" M 100.159 21.163 C 99.502 22.917 97.672 23.534 95.876 23.542 C 95.869 16.159 95.869 23.547 95.876 16.129 C 98.47 16.272 101.152 18.517 100.159 21.163 Z " fill="rgb(94,43,115)"/></g><g id="Group"><path d=" M 1.325 95.871 Q 0.964 96.841 0.363 99.849 C -0.087 102.099 0.475 104.065 0.603 106.346 C 0.742 108.823 1.057 110.905 1.145 113.385 C 1.219 115.498 1.31 117.291 1.145 119.401 C 1.014 121.062 0.523 122.425 0.483 124.093 C 0.455 125.237 0.701 126.198 0.664 127.342 C 0.628 128.428 0.356 129.325 0.303 130.41 C 0.229 131.891 0.358 133.145 0.483 134.621 C 0.582 135.793 1.251 136.562 0.876 137.945 C 0.042 141.026 0.657 142.139 1.325 142.984 Q 2.108 143.975 4.727 143.454 L 4.213 95.871 L 1.325 95.871 Z " fill="rgb(87,38,106)"/><g id="Group"><radialGradient id="_rgradient_10" fx="50%" fy="50%" cx="50%" cy="50%" r="50%" gradientTransform="matrix(1.858904708328252 0.0021708136613588953 0.015394655969591041 2.122291710142356 -0.9380842900241051 -0.06050542871105905)"><stop offset="0%" stop-opacity="1" style="stop-color:rgb(67,28,83)"/><stop offset="100%" stop-opacity="1" style="stop-color:rgb(87,38,106)"/></radialGradient><rect x="3.985" y="96" width="44.015" height="44" transform="matrix(-1,0,0,-1,51.985,236)" fill="url(#_rgradient_10)"/><path d=" M 47.16 113.719 C 46.134 111.791 43.971 111.4 41.886 111.375 C 39.106 111.343 35.895 112.214 35.39 115.185 C 35.114 116.808 35.68 118.259 36.758 119.483 C 38.158 121.073 40.16 121.494 42.228 121.241 C 44.296 120.987 46.191 120.136 47.112 118.213 C 47.815 116.742 47.934 115.173 47.16 113.719 Z " fill="rgb(87,38,106)"/><path d=" M 33.192 116.21 Q 34.818 118.513 34.609 119.971 C 34.377 121.584 33.172 122.591 31.776 123.341 C 30.133 124.224 28.408 124.12 26.648 123.585 C 24.613 122.966 22.278 122.132 22.106 119.824 Q 21.963 117.91 24.938 115.624 Q 27.768 116.269 29.334 116.357 Q 30.691 116.433 33.192 116.21 Z " fill="rgb(94,43,115)"/><path d=" M 20.879 122.26 C 19.318 119.698 16.188 120.025 13.411 120.048 C 10.782 120.069 7.458 119.396 6.33 122.15 C 5.059 125.254 8.572 127.092 10.977 128.677 C 13.34 130.234 16.023 131.873 18.666 130.392 C 21.543 128.78 22.603 125.091 20.879 122.26 Z " fill="rgb(109,51,132)"/><path d=" M 47.984 120.66 C 45.804 120.651 43.431 121.666 43.196 123.979 C 42.933 126.564 45.545 128.208 47.984 128.073 C 47.995 120.702 47.995 128.107 47.984 120.66 Z " fill="rgb(94,43,115)"/><path d=" M 42.037 129.887 C 42.953 128.012 42.473 125.993 41.246 124.352 C 40.042 122.74 38.282 121.836 36.265 122.019 C 33.865 122.238 31.863 123.85 31.442 126.25 C 30.976 128.905 32.767 131.199 35.237 132.1 C 37.781 133.029 40.806 132.405 42.037 129.887 Z " fill="rgb(109,51,132)"/><path d=" M 35.083 112.136 C 35.863 110.539 35.454 108.818 34.409 107.42 C 33.383 106.046 31.884 105.276 30.165 105.433 C 28.12 105.619 26.415 106.993 26.056 109.037 C 25.659 111.299 27.185 113.254 29.289 114.022 C 31.456 114.813 34.034 114.282 35.083 112.136 Z " fill="rgb(87,38,106)"/><path d=" M 29.742 127.594 C 28.76 126.309 27.8 124.942 26.105 124.866 C 24.068 124.775 23.03 126.628 21.954 128.187 C 20.735 129.952 19.678 131.831 20.333 133.959 C 21.001 136.126 22.828 137.456 25.038 137.833 C 27.385 138.233 29.66 137.407 31.007 135.421 C 32.731 132.88 31.505 129.899 29.742 127.594 Z " fill="rgb(121,61,145)"/><path d=" M 14.859 135.326 C 15.303 131.353 6.822 127.276 4.375 127.957 C 2.849 128.382 3.462 130.226 3.265 131.531 C 2.938 133.687 1.889 136.062 3.869 137.642 C 6.33 139.604 9.579 139.704 12.249 138.063 C 13.394 137.359 14.71 136.666 14.859 135.326 Z " fill="rgb(121,61,145)"/><path d=" M 3.978 143.699 C 6.229 144.149 8.194 143.587 10.475 143.459 C 12.952 143.32 15.034 143.005 17.514 142.917 C 19.627 142.842 21.42 142.751 23.53 142.917 C 25.191 143.048 26.554 143.539 28.222 143.579 C 29.366 143.606 30.327 143.361 31.471 143.398 C 32.557 143.434 33.454 143.706 34.539 143.759 C 36.02 143.833 37.275 143.721 38.75 143.579 C 40.176 143.441 41.379 143.271 42.781 142.977 Q 46.511 142.195 48 142.737 L 48 139.849 L 4.54 139.849 Q 0.97 143.098 3.978 143.699 Z " fill="rgb(87,38,106)"/><path d=" M 43.793 131.093 C 45.15 131.341 46.165 132.16 46.822 133.364 C 48.152 135.801 46.328 138.25 44.334 139.854 C 42.836 141.058 40.83 142.937 39.214 141.332 C 38.028 140.154 38.83 138.523 39.178 137.041 C 39.803 134.386 40.592 130.507 43.793 131.093 Z " fill="rgb(121,61,145)"/><path d=" M 30.084 140.669 C 30.922 142.061 32.494 142.539 34.071 142.334 C 35.123 142.198 35.959 141.729 36.696 140.972 C 38.253 139.371 38.624 136.925 37.251 135.117 C 36.601 134.26 35.829 133.551 34.727 133.501 C 33.415 133.442 32.631 134.494 31.8 135.419 C 30.465 136.905 28.949 138.783 30.084 140.669 Z " fill="rgb(121,61,145)"/><path d=" M 25.224 138.935 C 26.733 139.617 29.875 139.711 28.935 141.773 C 28.211 143.363 26.284 142.369 24.831 142.21 C 22.071 141.908 16.278 142.084 18.15 138.411 C 19.591 135.586 22.906 137.887 25.224 138.935 Z " fill="rgb(121,61,145)"/><path d=" M 17.191 131.831 C 16.013 132.078 15.668 133.412 15.92 134.506 C 16.159 135.539 16.946 136.526 18.06 136.344 C 19.244 136.152 19.644 134.834 19.431 133.737 C 19.218 132.641 18.357 131.586 17.191 131.831 Z " fill="rgb(121,61,145)"/><path d=" M 17.027 139.382 C 16.702 137.661 14.589 138.435 13.232 138.718 C 12.159 138.942 10.886 139.059 10.543 140.205 C 9.884 142.409 13.037 142.258 14.623 141.786 C 15.816 141.431 17.287 140.763 17.027 139.382 Z " fill="rgb(121,61,145)"/><path d=" M 1.142 138.613 C 2.1 136.778 4.068 138.764 5.512 139.391 C 6.514 139.826 8.086 139.785 8.115 141.067 C 8.142 142.225 6.92 142.628 5.931 142.953 C 4.252 143.503 2.463 142.86 1.561 141.336 C 1.056 140.483 0.663 139.531 1.142 138.613 Z " fill="rgb(121,61,145)"/><path d=" M 8.876 110.864 C 12.849 111.308 16.926 102.827 16.245 100.38 C 15.82 98.854 14.637 97.783 13.129 97.222 C 10.569 96.269 8.181 97.839 6.56 99.874 C 4.6 102.336 4.498 105.584 6.139 108.254 C 6.843 109.399 7.536 110.715 8.876 110.864 Z " fill="rgb(121,61,145)"/><path d=" M 26.976 100.123 C 27.222 98.234 29.132 97.168 30.959 97.467 C 32.584 97.734 33.951 98.985 33.89 100.676 C 33.829 102.385 32.345 103.551 30.682 103.663 C 28.661 103.799 26.704 102.2 26.976 100.123 Z " fill="rgb(87,38,106)"/><path d=" M 21.942 116.884 C 24.504 115.323 24.177 112.193 24.155 109.416 C 24.133 106.787 24.806 103.463 22.052 102.335 C 18.948 101.064 17.11 104.577 15.525 106.982 C 13.968 109.345 12.329 112.028 13.81 114.671 C 15.422 117.548 19.111 118.608 21.942 116.884 Z " fill="rgb(109,51,132)"/><path d=" M 21.163 100.289 C 22.917 99.631 23.534 97.801 23.542 96.005 C 16.159 95.998 23.547 95.998 16.129 96.005 C 16.272 98.599 18.517 101.281 21.163 100.289 Z " fill="rgb(94,43,115)"/></g><path d=" M 5.137 121.102 C 4.454 122.61 4.361 125.752 2.299 124.813 C 0.709 124.089 1.703 122.161 1.862 120.709 C 2.164 117.948 1.988 112.155 5.661 114.028 C 8.486 115.469 6.185 118.783 5.137 121.102 Z " fill="rgb(121,61,145)"/><path d=" M 12.241 113.068 C 11.994 111.891 10.66 111.545 9.566 111.798 C 8.533 112.037 7.546 112.824 7.727 113.938 C 7.92 115.121 9.237 115.521 10.335 115.308 C 11.431 115.096 12.485 114.235 12.241 113.068 Z " fill="rgb(121,61,145)"/><path d=" M 4.689 112.905 C 6.411 112.58 5.637 110.467 5.354 109.109 C 5.13 108.037 5.012 106.763 3.867 106.421 C 1.663 105.762 1.813 108.915 2.286 110.501 C 2.641 111.694 3.308 113.165 4.689 112.905 Z " fill="rgb(121,61,145)"/><path d=" M 5.459 97.02 C 7.293 97.977 5.308 99.946 4.681 101.389 C 4.245 102.391 4.286 103.963 3.005 103.993 C 1.847 104.02 1.443 102.797 1.119 101.808 C 0.569 100.13 1.211 98.341 2.735 97.439 C 3.589 96.933 4.54 96.54 5.459 97.02 Z " fill="rgb(121,61,145)"/></g><g id="Group"><path d=" M 142.675 95.871 Q 143.036 96.841 143.637 99.849 C 144.087 102.099 143.525 104.065 143.397 106.346 C 143.258 108.823 142.943 110.905 142.855 113.385 C 142.781 115.498 142.69 117.291 142.855 119.401 C 142.986 121.062 143.477 122.425 143.517 124.093 C 143.545 125.237 143.299 126.198 143.336 127.342 C 143.372 128.428 143.644 129.325 143.697 130.41 C 143.771 131.891 143.642 133.145 143.517 134.621 C 143.418 135.793 142.749 136.562 143.124 137.945 C 143.958 141.026 143.343 142.139 142.675 142.984 Q 141.892 143.975 139.273 143.454 L 139.787 95.871 L 142.675 95.871 Z " fill="rgb(87,38,106)"/><g id="Group"><radialGradient id="_rgradient_11" fx="50%" fy="50%" cx="50%" cy="50%" r="50%" gradientTransform="matrix(1.858904708328252 0.0021708136613588953 0.015394655969591041 2.122291710142356 -0.9380842900241051 -0.06050542871105905)"><stop offset="0%" stop-opacity="1" style="stop-color:rgb(67,28,83)"/><stop offset="100%" stop-opacity="1" style="stop-color:rgb(87,38,106)"/></radialGradient><rect x="96" y="96" width="44.015" height="44" transform="matrix(-1,0,0,-1,236.015,236)" fill="url(#_rgradient_11)"/><path d=" M 96.84 113.719 C 97.866 111.791 100.029 111.4 102.114 111.375 C 104.894 111.343 108.105 112.214 108.61 115.185 C 108.886 116.808 108.32 118.259 107.242 119.483 C 105.842 121.073 103.84 121.494 101.772 121.241 C 99.704 120.987 97.809 120.136 96.888 118.213 C 96.185 116.742 96.066 115.173 96.84 113.719 Z " fill="rgb(87,38,106)"/><path d=" M 110.808 116.21 Q 109.182 118.513 109.391 119.971 C 109.623 121.584 110.828 122.591 112.224 123.341 C 113.867 124.224 115.592 124.12 117.352 123.585 C 119.387 122.966 121.722 122.132 121.894 119.824 Q 122.037 117.91 119.062 115.624 Q 116.232 116.269 114.666 116.357 Q 113.309 116.433 110.808 116.21 Z " fill="rgb(94,43,115)"/><path d=" M 123.121 122.26 C 124.682 119.698 127.812 120.025 130.589 120.048 C 133.218 120.069 136.542 119.396 137.67 122.15 C 138.941 125.254 135.428 127.092 133.023 128.677 C 130.66 130.234 127.977 131.873 125.334 130.392 C 122.457 128.78 121.397 125.091 123.121 122.26 Z " fill="rgb(109,51,132)"/><path d=" M 96.016 120.66 C 98.196 120.651 100.569 121.666 100.804 123.979 C 101.067 126.564 98.455 128.208 96.016 128.073 C 96.005 120.702 96.005 128.107 96.016 120.66 Z " fill="rgb(94,43,115)"/><path d=" M 101.963 129.887 C 101.047 128.012 101.527 125.993 102.754 124.352 C 103.958 122.74 105.718 121.836 107.735 122.019 C 110.135 122.238 112.137 123.85 112.558 126.25 C 113.024 128.905 111.233 131.199 108.763 132.1 C 106.219 133.029 103.194 132.405 101.963 129.887 Z " fill="rgb(109,51,132)"/><path d=" M 108.917 112.136 C 108.137 110.539 108.546 108.818 109.591 107.42 C 110.617 106.046 112.116 105.276 113.835 105.433 C 115.88 105.619 117.585 106.993 117.944 109.037 C 118.341 111.299 116.815 113.254 114.711 114.022 C 112.544 114.813 109.966 114.282 108.917 112.136 Z " fill="rgb(87,38,106)"/><path d=" M 114.258 127.594 C 115.24 126.309 116.2 124.942 117.895 124.866 C 119.932 124.775 120.97 126.628 122.046 128.187 C 123.265 129.952 124.322 131.831 123.667 133.959 C 122.999 136.126 121.172 137.456 118.962 137.833 C 116.615 138.233 114.34 137.407 112.993 135.421 C 111.269 132.88 112.495 129.899 114.258 127.594 Z " fill="rgb(121,61,145)"/><path d=" M 129.141 135.326 C 128.697 131.353 137.178 127.276 139.625 127.957 C 141.151 128.382 140.538 130.226 140.735 131.531 C 141.062 133.687 142.111 136.062 140.131 137.642 C 137.67 139.604 134.421 139.704 131.751 138.063 C 130.606 137.359 129.29 136.666 129.141 135.326 Z " fill="rgb(121,61,145)"/><path d=" M 140.022 143.699 C 137.771 144.149 135.806 143.587 133.525 143.459 C 131.048 143.32 128.966 143.005 126.486 142.917 C 124.373 142.842 122.58 142.751 120.47 142.917 C 118.809 143.048 117.446 143.539 115.778 143.579 C 114.634 143.606 113.673 143.361 112.529 143.398 C 111.443 143.434 110.546 143.706 109.461 143.759 C 107.98 143.833 106.725 143.721 105.25 143.579 C 103.824 143.441 102.621 143.271 101.219 142.977 Q 97.489 142.195 96 142.737 L 96 139.849 L 139.46 139.849 Q 143.03 143.098 140.022 143.699 Z " fill="rgb(87,38,106)"/><path d=" M 100.207 131.093 C 98.85 131.341 97.835 132.16 97.178 133.364 C 95.848 135.801 97.672 138.25 99.666 139.854 C 101.164 141.058 103.17 142.937 104.786 141.332 C 105.972 140.154 105.17 138.523 104.822 137.041 C 104.197 134.386 103.408 130.507 100.207 131.093 Z " fill="rgb(121,61,145)"/><path d=" M 113.916 140.669 C 113.078 142.061 111.506 142.539 109.929 142.334 C 108.877 142.198 108.041 141.729 107.304 140.972 C 105.747 139.371 105.376 136.925 106.749 135.117 C 107.399 134.26 108.171 133.551 109.273 133.501 C 110.585 133.442 111.369 134.494 112.2 135.419 C 113.535 136.905 115.051 138.783 113.916 140.669 Z " fill="rgb(121,61,145)"/><path d=" M 118.776 138.935 C 117.267 139.617 114.125 139.711 115.065 141.773 C 115.789 143.363 117.716 142.369 119.169 142.21 C 121.929 141.908 127.722 142.084 125.85 138.411 C 124.409 135.586 121.094 137.887 118.776 138.935 Z " fill="rgb(121,61,145)"/><path d=" M 126.809 131.831 C 127.987 132.078 128.332 133.412 128.08 134.506 C 127.841 135.539 127.054 136.526 125.94 136.344 C 124.756 136.152 124.356 134.834 124.569 133.737 C 124.782 132.641 125.643 131.586 126.809 131.831 Z " fill="rgb(121,61,145)"/><path d=" M 126.973 139.382 C 127.298 137.661 129.411 138.435 130.768 138.718 C 131.841 138.942 133.114 139.059 133.457 140.205 C 134.116 142.409 130.963 142.258 129.377 141.786 C 128.184 141.431 126.713 140.763 126.973 139.382 Z " fill="rgb(121,61,145)"/><path d=" M 142.858 138.613 C 141.9 136.778 139.932 138.764 138.488 139.391 C 137.486 139.826 135.914 139.785 135.885 141.067 C 135.858 142.225 137.08 142.628 138.069 142.953 C 139.748 143.503 141.537 142.86 142.439 141.336 C 142.944 140.483 143.337 139.531 142.858 138.613 Z " fill="rgb(121,61,145)"/><path d=" M 135.124 110.864 C 131.151 111.308 127.074 102.827 127.755 100.38 C 128.18 98.854 129.363 97.783 130.871 97.222 C 133.431 96.269 135.819 97.839 137.44 99.874 C 139.4 102.336 139.502 105.584 137.861 108.254 C 137.157 109.399 136.464 110.715 135.124 110.864 Z " fill="rgb(121,61,145)"/><path d=" M 117.024 100.123 C 116.778 98.234 114.868 97.168 113.041 97.467 C 111.416 97.734 110.049 98.985 110.11 100.676 C 110.171 102.385 111.655 103.551 113.318 103.663 C 115.339 103.799 117.296 102.2 117.024 100.123 Z " fill="rgb(87,38,106)"/><path d=" M 122.058 116.884 C 119.496 115.323 119.823 112.193 119.845 109.416 C 119.867 106.787 119.194 103.463 121.948 102.335 C 125.052 101.064 126.89 104.577 128.475 106.982 C 130.032 109.345 131.671 112.028 130.19 114.671 C 128.578 117.548 124.889 118.608 122.058 116.884 Z " fill="rgb(109,51,132)"/><path d=" M 122.837 100.289 C 121.083 99.631 120.466 97.801 120.458 96.005 C 127.841 95.998 120.453 95.998 127.871 96.005 C 127.728 98.599 125.483 101.281 122.837 100.289 Z " fill="rgb(94,43,115)"/></g><path d=" M 138.863 121.102 C 139.546 122.61 139.639 125.752 141.701 124.813 C 143.291 124.089 142.297 122.161 142.138 120.709 C 141.836 117.948 142.012 112.155 138.339 114.028 C 135.514 115.469 137.815 118.783 138.863 121.102 Z " fill="rgb(121,61,145)"/><path d=" M 131.759 113.068 C 132.006 111.891 133.34 111.545 134.434 111.798 C 135.467 112.037 136.454 112.824 136.273 113.938 C 136.08 115.121 134.763 115.521 133.665 115.308 C 132.569 115.096 131.515 114.235 131.759 113.068 Z " fill="rgb(121,61,145)"/><path d=" M 139.311 112.905 C 137.589 112.58 138.363 110.467 138.646 109.109 C 138.87 108.037 138.988 106.763 140.133 106.421 C 142.337 105.762 142.187 108.915 141.714 110.501 C 141.359 111.694 140.692 113.165 139.311 112.905 Z " fill="rgb(121,61,145)"/><path d=" M 138.541 97.02 C 136.707 97.977 138.692 99.946 139.319 101.389 C 139.755 102.391 139.714 103.963 140.995 103.993 C 142.153 104.02 142.557 102.797 142.881 101.808 C 143.431 100.13 142.789 98.341 141.265 97.439 C 140.411 96.933 139.46 96.54 138.541 97.02 Z " fill="rgb(121,61,145)"/></g></svg>