<?xml version="1.0" standalone="no"?><!-- Generator: Gravit.io --><svg xmlns="http://www.w3.org/2000/svg" xmlns:xlink="http://www.w3.org/1999/xlink" style="isolation:isolate" viewBox="0 -0.019 144 144" width="144" height="144"><g id="Group"><g opacity="0.19"><mask id="_mask_XMxvzAooHvPQ8jq1OUyCMvQHLrTHgPlw"><rect x="0" y="0" width="48" height="48" transform="matrix(1,0,0,1,0,0)" fill="white" stroke="none"/></mask><rect x="0" y="0" width="48" height="48" transform="matrix(1,0,0,1,0,0)" fill="rgb(235,235,235)" mask="url(#_mask_XMxvzAooHvPQ8jq1OUyCMvQHLrTHgPlw)" vector-effect="non-scaling-stroke" stroke-width="8" stroke="rgb(0,0,0)" stroke-linejoin="miter" stroke-linecap="square" stroke-miterlimit="3"/></g><g opacity="0.19"><mask id="_mask_1CNyF92JxYGrlBMYs4m7cj5LVs8fmdq1"><rect x="48" y="0" width="48" height="48" transform="matrix(1,0,0,1,0,0)" fill="white" stroke="none"/></mask><rect x="48" y="0" width="48" height="48" transform="matrix(1,0,0,1,0,0)" fill="rgb(235,235,235)" mask="url(#_mask_1CNyF92JxYGrlBMYs4m7cj5LVs8fmdq1)" vector-effect="non-scaling-stroke" stroke-width="8" stroke="rgb(0,0,0)" stroke-linejoin="miter" stroke-linecap="square" stroke-miterlimit="3"/></g><g opacity="0.19"><mask id="_mask_vvXlEtQqpPqxOIVzevCp4kpHNmEveSdv"><rect x="96" y="0" width="48" height="48" transform="matrix(1,0,0,1,0,0)" fill="white" stroke="none"/></mask><rect x="96" y="0" width="48" height="48" transform="matrix(1,0,0,1,0,0)" fill="rgb(235,235,235)" mask="url(#_mask_vvXlEtQqpPqxOIVzevCp4kpHNmEveSdv)" vector-effect="non-scaling-stroke" stroke-width="8" stroke="rgb(0,0,0)" stroke-linejoin="miter" stroke-linecap="square" stroke-miterlimit="3"/></g><g opacity="0.19"><mask id="_mask_O694sQcan2iUEucWcyxW44T8jUVzGMEv"><rect x="0" y="48" width="48" height="48" transform="matrix(1,0,0,1,0,0)" fill="white" stroke="none"/></mask><rect x="0" y="48" width="48" height="48" transform="matrix(1,0,0,1,0,0)" fill="rgb(235,235,235)" mask="url(#_mask_O694sQcan2iUEucWcyxW44T8jUVzGMEv)" vector-effect="non-scaling-stroke" stroke-width="8" stroke="rgb(0,0,0)" stroke-linejoin="miter" stroke-linecap="square" stroke-miterlimit="3"/></g><g opacity="0.19"><mask id="_mask_kpiK13mh04gEO26QkO2hVnAjX9DPffgH"><rect x="48" y="48" width="48" height="48" transform="matrix(1,0,0,1,0,0)" fill="white" stroke="none"/></mask><rect x="48" y="48" width="48" height="48" transform="matrix(1,0,0,1,0,0)" fill="rgb(235,235,235)" mask="url(#_mask_kpiK13mh04gEO26QkO2hVnAjX9DPffgH)" vector-effect="non-scaling-stroke" stroke-width="8" stroke="rgb(0,0,0)" stroke-linejoin="miter" stroke-linecap="square" stroke-miterlimit="3"/></g><g opacity="0.19"><mask id="_mask_FtRPl5Jdf52uWBkxTblaZs6h2rxaRNQZ"><rect x="96" y="48" width="48" height="48" transform="matrix(1,0,0,1,0,0)" fill="white" stroke="none"/></mask><rect x="96" y="48" width="48" height="48" transform="matrix(1,0,0,1,0,0)" fill="rgb(235,235,235)" mask="url(#_mask_FtRPl5Jdf52uWBkxTblaZs6h2rxaRNQZ)" vector-effect="non-scaling-stroke" stroke-width="8" stroke="rgb(0,0,0)" stroke-linejoin="miter" stroke-linecap="square" stroke-miterlimit="3"/></g><g opacity="0.19"><mask id="_mask_odSNbmSg4m0bZOm4QBmEuNcngY9JIWhV"><rect x="0" y="96" width="48" height="48" transform="matrix(1,0,0,1,0,0)" fill="white" stroke="none"/></mask><rect x="0" y="96" width="48" height="48" transform="matrix(1,0,0,1,0,0)" fill="rgb(235,235,235)" mask="url(#_mask_odSNbmSg4m0bZOm4QBmEuNcngY9JIWhV)" vector-effect="non-scaling-stroke" stroke-width="8" stroke="rgb(0,0,0)" stroke-linejoin="miter" stroke-linecap="square" stroke-miterlimit="3"/></g><g opacity="0.19"><mask id="_mask_39Y609KOjeEX3QwXKzSlm5oiO3KPOF3p"><rect x="48" y="96" width="48" height="48" transform="matrix(1,0,0,1,0,0)" fill="white" stroke="none"/></mask><rect x="48" y="96" width="48" height="48" transform="matrix(1,0,0,1,0,0)" fill="rgb(235,235,235)" mask="url(#_mask_39Y609KOjeEX3QwXKzSlm5oiO3KPOF3p)" vector-effect="non-scaling-stroke" stroke-width="8" stroke="rgb(0,0,0)" stroke-linejoin="miter" stroke-linecap="square" stroke-miterlimit="3"/></g><g opacity="0.19"><mask id="_mask_GpsYpdqXfo1W6i4I0filEaHsg62UnNDq"><rect x="96" y="96" width="48" height="48" transform="matrix(1,0,0,1,0,0)" fill="white" stroke="none"/></mask><rect x="96" y="96" width="48" height="48" transform="matrix(1,0,0,1,0,0)" fill="rgb(235,235,235)" mask="url(#_mask_GpsYpdqXfo1W6i4I0filEaHsg62UnNDq)" vector-effect="non-scaling-stroke" stroke-width="8" stroke="rgb(0,0,0)" stroke-linejoin="miter" stroke-linecap="square" stroke-miterlimit="3"/></g></g><rect x="-96" y="96" width="48" height="48" transform="matrix(1,0,0,1,0,0)" fill="rgb(235,235,235)"/><rect x="96" y="-96" width="48" height="48" transform="matrix(1,0,0,1,0,0)" fill="rgb(235,235,235)"/><rect x="-96" y="48" width="48" height="48" transform="matrix(1,0,0,1,0,0)" fill="rgb(235,235,235)"/><rect x="0" y="-96" width="48" height="48" transform="matrix(1,0,0,1,0,0)" fill="rgb(235,235,235)"/><rect x="-96" y="0" width="48" height="48" transform="matrix(1,0,0,1,0,0)" fill="rgb(235,235,235)"/><rect x="48" y="-96" width="48" height="48" transform="matrix(1,0,0,1,0,0)" fill="rgb(235,235,235)"/><rect x="48" y="48" width="48" height="48" transform="matrix(1,0,0,1,0,0)" fill="rgb(67,28,83)"/><g id="Group"><linearGradient id="_lgradient_1" x1="49.999999999999986%" y1="100%" x2="49.99999999999999%" y2="0%"><stop offset="0%" stop-opacity="1" style="stop-color:rgb(67,28,83)"/><stop offset="100%" stop-opacity="1" style="stop-color:rgb(87,38,106)"/></linearGradient><rect x="48" y="4" width="48" height="44" transform="matrix(1,0,0,1,0,0)" fill="url(#_lgradient_1)"/><path d=" M 63.684 36.865 Q 62.516 36.532 62.024 36.106 C 60.91 35.142 60.768 33.653 61.205 32.284 C 61.674 30.818 63.007 30.171 64.373 29.592 C 66.1 28.86 67.857 28.725 69.58 29.502 C 70.497 29.916 71.277 30.381 71.825 31.238 Q 72.201 31.828 72.467 33.103 Q 71.517 32.602 70.966 32.421 C 69.596 31.97 68.293 31.738 66.917 32.226 C 66.008 32.548 65.275 32.994 64.672 33.752 Q 63.941 34.67 63.684 36.865 Z " fill="rgb(87,38,106)"/><path d=" M 56.009 42.235 C 57.114 42.298 58.189 43.126 58.028 44.282 C 57.866 45.443 56.594 45.92 55.511 45.692 C 54.603 45.502 53.774 44.864 53.796 43.894 C 53.821 42.776 54.955 42.174 56.009 42.235 Z " fill="rgb(87,38,106)"/><path d=" M 75.158 42.881 C 75.292 42.378 75.814 42.14 76.314 42.217 C 76.884 42.305 77.35 42.822 77.21 43.402 C 77.068 43.989 76.402 44.235 75.852 44.037 C 75.369 43.864 75.022 43.392 75.158 42.881 Z " fill="rgb(87,38,106)"/><path d=" M 81.757 38.526 Q 81.019 37.371 81.075 36.651 C 81.186 35.241 82.666 34.817 83.905 34.469 C 85.431 34.04 86.922 34.34 88.167 35.321 Q 88.926 35.92 89.735 37.537 Q 87.82 37.189 86.769 37.196 C 85.728 37.204 84.834 37.265 83.837 37.571 Q 83.066 37.808 81.757 38.526 Z " fill="rgb(87,38,106)"/><path d=" M 48.84 30.281 C 49.866 32.209 52.029 32.6 54.114 32.625 C 56.894 32.657 60.105 31.786 60.61 28.815 C 60.886 27.192 60.32 25.741 59.242 24.517 C 57.842 22.927 55.84 22.506 53.772 22.759 C 51.704 23.013 49.809 23.864 48.888 25.787 C 48.185 27.258 48.066 28.827 48.84 30.281 Z " fill="rgb(87,38,106)"/><path d=" M 62.808 27.79 Q 61.182 25.487 61.391 24.029 C 61.623 22.416 62.828 21.409 64.224 20.659 C 65.867 19.776 67.592 19.88 69.352 20.415 C 71.387 21.034 73.722 21.868 73.894 24.176 Q 74.037 26.09 71.062 28.376 Q 68.232 27.731 66.666 27.643 Q 65.309 27.567 62.808 27.79 Z " fill="rgb(94,43,115)"/><path d=" M 77.942 32.748 C 80.157 34.081 82.806 33.027 84.304 31.033 C 85.136 29.926 85.658 28.704 85.355 27.327 C 84.702 24.362 81.017 24.077 78.551 25.28 C 77.057 26.009 75.84 27.173 75.73 28.876 C 75.622 30.532 76.54 31.904 77.942 32.748 Z " fill="rgb(87,38,106)"/><path d=" M 91.882 26.774 C 93.771 27.02 94.837 28.93 94.538 30.757 C 94.271 32.382 93.02 33.749 91.329 33.688 C 89.62 33.627 88.454 32.143 88.342 30.48 C 88.206 28.459 89.805 26.502 91.882 26.774 Z " fill="rgb(87,38,106)"/><path d=" M 75.121 21.74 C 76.682 24.302 79.812 23.975 82.589 23.952 C 85.218 23.931 88.542 24.604 89.67 21.85 C 90.941 18.746 87.428 16.908 85.023 15.323 C 82.66 13.766 79.977 12.127 77.334 13.608 C 74.457 15.22 73.397 18.909 75.121 21.74 Z " fill="rgb(109,51,132)"/><path d=" M 91.716 20.961 C 92.374 22.715 94.204 23.332 96 23.34 C 96.007 15.957 96.007 23.344 96 15.927 C 93.406 16.07 90.724 18.315 91.716 20.961 Z " fill="rgb(94,43,115)"/><path d=" M 48.016 23.34 C 50.196 23.349 52.569 22.334 52.804 20.021 C 53.067 17.436 50.455 15.792 48.016 15.927 C 48.005 23.298 48.005 15.893 48.016 23.34 Z " fill="rgb(94,43,115)"/><path d=" M 53.963 14.113 C 53.047 15.988 53.527 18.007 54.754 19.648 C 55.958 21.26 57.718 22.164 59.735 21.981 C 62.135 21.762 64.137 20.15 64.558 17.75 C 65.024 15.095 63.233 12.801 60.763 11.9 C 58.219 10.971 55.194 11.595 53.963 14.113 Z " fill="rgb(109,51,132)"/><path d=" M 66.258 16.406 C 67.24 17.691 68.2 19.058 69.895 19.134 C 71.932 19.225 72.97 17.372 74.046 15.813 C 75.265 14.048 76.322 12.169 75.667 10.041 C 75 7.874 73.172 6.544 70.962 6.167 C 68.615 5.767 66.34 6.593 64.993 8.579 C 63.269 11.12 64.495 14.101 66.258 16.406 Z " fill="rgb(121,61,145)"/><path d=" M 81.141 8.674 C 80.697 12.647 89.178 16.724 91.625 16.043 C 93.151 15.618 94.222 14.435 94.783 12.927 C 95.736 10.367 94.166 7.979 92.131 6.358 C 89.669 4.398 86.421 4.296 83.751 5.937 C 82.606 6.641 81.29 7.334 81.141 8.674 Z " fill="rgb(121,61,145)"/><path d=" M 52.207 12.907 C 50.85 12.659 49.835 11.84 49.178 10.636 C 47.848 8.199 49.672 5.75 51.666 4.146 C 53.164 2.942 55.17 1.063 56.786 2.668 C 57.972 3.846 57.17 5.477 56.822 6.959 C 56.197 9.614 55.408 13.493 52.207 12.907 Z " fill="rgb(121,61,145)"/><path d=" M 48 1.414 Q 51.303 0.125 53.208 0 Q 55.74 -0.166 60.203 1.414 Q 63.656 0.011 65.636 0 C 70.93 -0.03 71.032 -0.147 73.702 0.958 Q 74.68 1.363 76.352 2.381 Q 77.932 1.301 78.882 0.893 C 80.774 0.08 82.183 -0.03 84.612 0 Q 86.193 0.019 89.003 0.893 Q 90.875 0.03 91.979 0 Q 93.51 -0.042 96 1.414 L 96 10.939 C 94.703 9.428 93.968 7.677 93.765 5.656 C 92.506 8.777 90.68 11.342 88.259 13.321 C 89.033 11.103 89.043 8.955 88.259 6.846 C 87.529 8.993 86.299 10.441 84.538 11.163 C 83.743 9.436 82.364 8.231 80.37 7.516 C 79.368 10.318 79.403 12.833 80.445 15.032 C 77.689 13.039 75.69 10.394 74.417 7.07 C 73.001 8.925 72.416 10.919 72.631 13.023 C 70.713 10.858 69.557 8.66 69.133 6.4 C 68.896 7.827 68.088 8.854 66.678 9.451 C 66.747 7.87 66.037 6.59 64.52 5.581 C 63.763 8.247 63.798 11.308 64.594 14.735 C 62.071 12.969 60.543 10.97 59.98 8.707 C 59.339 9.865 58.109 10.644 56.259 11.014 C 57.008 9.534 57.216 7.807 56.855 5.805 C 55.65 7.453 54.147 8.604 52.315 9.228 C 52.237 7.505 51.403 6.175 49.785 5.209 C 48.755 7.194 48.17 9.114 48 10.939 L 48 1.414 Z " fill="rgb(0,195,137)"/><path d=" M 48 3.232 Q 50.032 2.424 51.199 2.242 C 52.878 1.979 54.318 2.306 55.995 2.503 Q 56.953 2.615 58.706 2.92 Q 60.63 2.471 61.626 2.085 C 62.659 1.686 63.367 0.968 64.441 0.678 C 65.316 0.441 66.093 0.444 66.996 0.417 C 68.042 0.385 68.937 0.381 69.968 0.574 C 70.836 0.735 71.539 0.998 72.366 1.303 C 73.683 1.789 74.615 2.624 75.964 3.024 Q 76.415 3.158 77.267 3.337 Q 79.208 2.989 80.239 2.711 C 81.056 2.491 81.696 2.12 82.533 1.981 C 83.587 1.807 84.501 1.899 85.557 2.033 Q 86.471 2.149 88.112 2.607 Q 89.909 2.015 90.927 1.929 C 91.659 1.867 92.283 1.907 93.012 1.981 C 93.735 2.055 94.406 1.972 95.046 2.346 Q 95.444 2.579 96 3.232 L 96 5.209 Q 95.005 4.739 94.42 4.64 C 93.44 4.475 92.544 4.545 91.657 5.005 Q 91.075 5.307 90.249 6.204 Q 89.031 5.376 88.268 5.162 C 87.341 4.901 86.484 4.831 85.557 5.109 C 84.932 5.297 84.575 5.835 83.941 5.996 Q 83.201 6.183 81.803 5.891 Q 80.988 5.222 80.447 5.057 C 79.636 4.81 78.919 5.137 78.101 5.266 Q 77.416 5.374 76.172 5.683 Q 74.202 5.481 73.2 5.109 C 72.422 4.821 71.92 4.232 71.115 4.015 C 70.149 3.754 69.24 3.638 68.299 4.015 Q 67.709 4.251 66.84 5.057 Q 64.89 4.666 63.816 4.64 C 62.859 4.617 61.987 4.429 61.105 4.849 Q 60.464 5.154 59.593 6.152 Q 58.033 5.085 57.038 4.901 C 56.368 4.777 55.781 4.798 55.109 4.901 Q 54.215 5.038 52.711 5.787 Q 51.637 4.974 50.938 4.797 Q 49.902 4.534 48 5.209 L 48 3.232 Z " fill="rgb(19,215,163)"/></g><g id="Group"><linearGradient id="_lgradient_2" x1="50%" y1="100%" x2="50.000000000000014%" y2="0%"><stop offset="0%" stop-opacity="1" style="stop-color:rgb(67,28,83)"/><stop offset="100%" stop-opacity="1" style="stop-color:rgb(87,38,106)"/></linearGradient><rect x="2" y="50" width="48" height="44" transform="matrix(0,-1,1,0,-46,98)" fill="url(#_lgradient_2)"/><path d=" M 36.865 80.316 Q 36.532 81.484 36.106 81.976 C 35.142 83.09 33.653 83.232 32.284 82.795 C 30.818 82.326 30.171 80.993 29.592 79.627 C 28.86 77.9 28.725 76.143 29.502 74.42 C 29.916 73.503 30.381 72.723 31.238 72.175 Q 31.828 71.799 33.103 71.533 Q 32.602 72.483 32.421 73.034 C 31.97 74.404 31.738 75.707 32.226 77.083 C 32.548 77.992 32.994 78.725 33.752 79.328 Q 34.67 80.059 36.865 80.316 Z " fill="rgb(87,38,106)"/><path d=" M 42.235 87.991 C 42.298 86.886 43.126 85.811 44.282 85.972 C 45.443 86.134 45.92 87.406 45.692 88.489 C 45.502 89.397 44.864 90.226 43.894 90.204 C 42.776 90.179 42.174 89.045 42.235 87.991 Z " fill="rgb(87,38,106)"/><path d=" M 42.881 68.842 C 42.378 68.708 42.14 68.186 42.217 67.686 C 42.305 67.116 42.822 66.65 43.402 66.79 C 43.989 66.932 44.235 67.598 44.037 68.148 C 43.864 68.631 43.392 68.978 42.881 68.842 Z " fill="rgb(87,38,106)"/><path d=" M 38.526 62.243 Q 37.371 62.981 36.651 62.925 C 35.241 62.814 34.817 61.334 34.469 60.095 C 34.04 58.569 34.34 57.078 35.321 55.833 Q 35.92 55.074 37.537 54.265 Q 37.189 56.18 37.196 57.231 C 37.204 58.272 37.265 59.166 37.571 60.163 Q 37.808 60.934 38.526 62.243 Z " fill="rgb(87,38,106)"/><path d=" M 30.281 95.16 C 32.209 94.134 32.6 91.971 32.625 89.886 C 32.657 87.106 31.786 83.895 28.815 83.39 C 27.192 83.114 25.741 83.68 24.517 84.758 C 22.927 86.158 22.506 88.16 22.759 90.228 C 23.013 92.296 23.864 94.191 25.787 95.112 C 27.258 95.815 28.827 95.934 30.281 95.16 Z " fill="rgb(87,38,106)"/><path d=" M 27.79 81.192 Q 25.487 82.818 24.029 82.609 C 22.416 82.377 21.409 81.172 20.659 79.776 C 19.776 78.133 19.88 76.408 20.415 74.648 C 21.034 72.613 21.868 70.278 24.176 70.106 Q 26.09 69.963 28.376 72.938 Q 27.731 75.768 27.643 77.334 Q 27.567 78.691 27.79 81.192 Z " fill="rgb(94,43,115)"/><path d=" M 32.748 66.058 C 34.081 63.843 33.027 61.194 31.033 59.696 C 29.926 58.864 28.704 58.342 27.327 58.645 C 24.362 59.298 24.077 62.983 25.28 65.449 C 26.009 66.943 27.173 68.16 28.876 68.27 C 30.532 68.378 31.904 67.46 32.748 66.058 Z " fill="rgb(87,38,106)"/><path d=" M 26.774 52.118 C 27.02 50.229 28.93 49.163 30.757 49.462 C 32.382 49.729 33.749 50.98 33.688 52.671 C 33.627 54.38 32.143 55.546 30.48 55.658 C 28.459 55.794 26.502 54.195 26.774 52.118 Z " fill="rgb(87,38,106)"/><path d=" M 21.74 68.879 C 24.302 67.318 23.975 64.188 23.952 61.411 C 23.931 58.782 24.604 55.458 21.85 54.33 C 18.746 53.059 16.908 56.572 15.323 58.977 C 13.766 61.34 12.127 64.023 13.608 66.666 C 15.22 69.543 18.909 70.603 21.74 68.879 Z " fill="rgb(109,51,132)"/><path d=" M 20.961 52.284 C 22.715 51.626 23.332 49.796 23.34 48 C 15.957 47.993 23.344 47.993 15.927 48 C 16.07 50.594 18.315 53.276 20.961 52.284 Z " fill="rgb(94,43,115)"/><path d=" M 23.34 95.984 C 23.349 93.804 22.334 91.431 20.021 91.196 C 17.436 90.933 15.792 93.545 15.927 95.984 C 23.298 95.995 15.893 95.995 23.34 95.984 Z " fill="rgb(94,43,115)"/><path d=" M 14.113 90.037 C 15.988 90.953 18.007 90.473 19.648 89.246 C 21.26 88.042 22.164 86.282 21.981 84.265 C 21.762 81.865 20.15 79.863 17.75 79.442 C 15.095 78.976 12.801 80.767 11.9 83.237 C 10.971 85.781 11.595 88.806 14.113 90.037 Z " fill="rgb(109,51,132)"/><path d=" M 16.406 77.742 C 17.691 76.76 19.058 75.8 19.134 74.105 C 19.225 72.068 17.372 71.03 15.813 69.954 C 14.048 68.735 12.169 67.678 10.041 68.333 C 7.874 69.001 6.544 70.828 6.167 73.038 C 5.767 75.385 6.593 77.66 8.579 79.007 C 11.12 80.731 14.101 79.505 16.406 77.742 Z " fill="rgb(121,61,145)"/><path d=" M 8.674 62.859 C 12.647 63.303 16.724 54.822 16.043 52.375 C 15.618 50.849 14.435 49.778 12.927 49.217 C 10.367 48.264 7.979 49.834 6.358 51.869 C 4.398 54.331 4.296 57.579 5.937 60.249 C 6.641 61.394 7.334 62.71 8.674 62.859 Z " fill="rgb(121,61,145)"/><path d=" M 1.263 48 Q 0.902 48.97 0.301 51.978 C -0.149 54.229 0.413 56.194 0.541 58.475 C 0.68 60.952 0.995 63.034 1.083 65.514 C 1.158 67.627 1.249 69.42 1.083 71.53 C 0.952 73.191 0.461 74.554 0.421 76.222 C 0.394 77.366 0.639 78.327 0.602 79.471 C 0.566 80.557 0.294 81.454 0.241 82.539 C 0.167 84.02 0.279 85.275 0.421 86.75 C 0.559 88.176 0.729 89.379 1.023 90.781 Q 1.805 94.511 1.263 96 L 4.151 96 L 4.151 48 L 1.263 48 Z " fill="rgb(87,38,106)"/><path d=" M 12.907 91.793 C 12.659 93.15 11.84 94.165 10.636 94.822 C 8.199 96.152 5.75 94.328 4.146 92.334 C 2.942 90.836 1.063 88.83 2.668 87.214 C 3.846 86.028 5.477 86.83 6.959 87.178 C 9.614 87.803 13.493 88.592 12.907 91.793 Z " fill="rgb(121,61,145)"/><path d=" M 3.331 78.084 C 1.939 78.922 1.461 80.494 1.666 82.071 C 1.802 83.123 2.271 83.959 3.028 84.696 C 4.629 86.253 7.075 86.624 8.883 85.251 C 9.74 84.601 10.449 83.829 10.499 82.727 C 10.558 81.415 9.506 80.631 8.581 79.8 C 7.095 78.465 5.217 76.949 3.331 78.084 Z " fill="rgb(121,61,145)"/><path d=" M 5.065 73.224 C 4.383 74.733 4.289 77.875 2.227 76.935 C 0.637 76.211 1.631 74.284 1.79 72.831 C 2.092 70.071 1.916 64.278 5.589 66.15 C 8.414 67.591 6.113 70.906 5.065 73.224 Z " fill="rgb(121,61,145)"/><path d=" M 12.169 65.191 C 11.922 64.013 10.588 63.668 9.494 63.92 C 8.461 64.159 7.474 64.946 7.656 66.06 C 7.848 67.244 9.166 67.644 10.263 67.431 C 11.359 67.218 12.414 66.357 12.169 65.191 Z " fill="rgb(121,61,145)"/><path d=" M 4.618 65.027 C 6.339 64.702 5.565 62.589 5.282 61.232 C 5.058 60.159 4.941 58.886 3.795 58.543 C 1.591 57.884 1.742 61.037 2.214 62.623 C 2.569 63.816 3.237 65.287 4.618 65.027 Z " fill="rgb(121,61,145)"/><path d=" M 5.387 49.142 C 7.222 50.1 5.236 52.068 4.609 53.512 C 4.174 54.514 4.215 56.086 2.933 56.115 C 1.775 56.142 1.372 54.92 1.047 53.931 C 0.497 52.252 1.14 50.463 2.664 49.561 C 3.517 49.056 4.469 48.663 5.387 49.142 Z " fill="rgb(121,61,145)"/></g><g id="Group"><linearGradient id="_lgradient_3" x1="50%" y1="100%" x2="50.000000000000014%" y2="0%"><stop offset="0%" stop-opacity="1" style="stop-color:rgb(67,28,83)"/><stop offset="100%" stop-opacity="1" style="stop-color:rgb(87,38,106)"/></linearGradient><rect x="48.005" y="96" width="48" height="44" transform="matrix(-1,0,0,-1,144.01,236)" fill="url(#_lgradient_3)"/><path d=" M 80.321 107.135 Q 81.489 107.468 81.981 107.894 C 83.095 108.858 83.237 110.347 82.8 111.716 C 82.331 113.182 80.998 113.829 79.632 114.408 C 77.905 115.14 76.148 115.275 74.425 114.498 C 73.508 114.084 72.728 113.619 72.18 112.762 Q 71.804 112.172 71.538 110.897 Q 72.488 111.398 73.039 111.579 C 74.409 112.03 75.712 112.262 77.088 111.774 C 77.997 111.452 78.73 111.006 79.333 110.248 Q 80.064 109.33 80.321 107.135 Z " fill="rgb(87,38,106)"/><path d=" M 87.996 101.765 C 86.891 101.702 85.816 100.874 85.977 99.718 C 86.139 98.557 87.411 98.08 88.494 98.308 C 89.402 98.498 90.231 99.136 90.209 100.106 C 90.184 101.224 89.051 101.826 87.996 101.765 Z " fill="rgb(87,38,106)"/><path d=" M 68.847 101.119 C 68.713 101.622 68.191 101.86 67.691 101.783 C 67.121 101.695 66.655 101.178 66.795 100.598 C 66.937 100.011 67.603 99.765 68.154 99.963 C 68.636 100.136 68.983 100.608 68.847 101.119 Z " fill="rgb(87,38,106)"/><path d=" M 62.248 105.474 Q 62.986 106.629 62.93 107.349 C 62.819 108.759 61.339 109.183 60.1 109.531 C 58.574 109.96 57.083 109.66 55.838 108.679 Q 55.079 108.08 54.27 106.463 Q 56.185 106.811 57.236 106.804 C 58.277 106.796 59.171 106.735 60.168 106.429 Q 60.939 106.192 62.248 105.474 Z " fill="rgb(87,38,106)"/><path d=" M 95.165 113.719 C 94.139 111.791 91.976 111.4 89.891 111.375 C 87.111 111.343 83.9 112.214 83.395 115.185 C 83.119 116.808 83.685 118.259 84.763 119.483 C 86.163 121.073 88.165 121.494 90.233 121.241 C 92.301 120.987 94.196 120.136 95.117 118.213 C 95.82 116.742 95.939 115.173 95.165 113.719 Z " fill="rgb(87,38,106)"/><path d=" M 81.197 116.21 Q 82.823 118.513 82.614 119.971 C 82.382 121.584 81.177 122.591 79.781 123.341 C 78.138 124.224 76.413 124.12 74.653 123.585 C 72.618 122.966 70.283 122.132 70.111 119.824 Q 69.968 117.91 72.943 115.624 Q 75.773 116.269 77.339 116.357 Q 78.696 116.433 81.197 116.21 Z " fill="rgb(94,43,115)"/><path d=" M 66.063 111.252 C 63.848 109.919 61.199 110.973 59.701 112.967 C 58.869 114.074 58.347 115.296 58.65 116.673 C 59.303 119.638 62.988 119.923 65.454 118.72 C 66.948 117.991 68.165 116.827 68.275 115.124 C 68.383 113.468 67.465 112.096 66.063 111.252 Z " fill="rgb(87,38,106)"/><path d=" M 52.123 117.226 C 50.234 116.98 49.168 115.07 49.467 113.243 C 49.734 111.618 50.985 110.251 52.676 110.312 C 54.385 110.373 55.551 111.857 55.663 113.52 C 55.799 115.541 54.2 117.498 52.123 117.226 Z " fill="rgb(87,38,106)"/><path d=" M 68.884 122.26 C 67.323 119.698 64.193 120.025 61.416 120.048 C 58.787 120.069 55.463 119.396 54.335 122.15 C 53.064 125.254 56.577 127.092 58.982 128.677 C 61.345 130.234 64.028 131.873 66.671 130.392 C 69.548 128.78 70.608 125.091 68.884 122.26 Z " fill="rgb(109,51,132)"/><path d=" M 52.289 123.039 C 51.631 121.285 49.801 120.668 48.005 120.66 C 47.998 128.043 47.998 120.656 48.005 128.073 C 50.599 127.93 53.281 125.685 52.289 123.039 Z " fill="rgb(94,43,115)"/><path d=" M 95.989 120.66 C 93.809 120.651 91.436 121.666 91.201 123.979 C 90.938 126.564 93.55 128.208 95.989 128.073 C 96 120.702 96 128.107 95.989 120.66 Z " fill="rgb(94,43,115)"/><path d=" M 90.042 129.887 C 90.958 128.012 90.478 125.993 89.251 124.352 C 88.047 122.74 86.287 121.836 84.27 122.019 C 81.87 122.238 79.868 123.85 79.447 126.25 C 78.981 128.905 80.772 131.199 83.242 132.1 C 85.786 133.029 88.811 132.405 90.042 129.887 Z " fill="rgb(109,51,132)"/><path d=" M 77.747 127.594 C 76.765 126.309 75.805 124.942 74.11 124.866 C 72.073 124.775 71.035 126.628 69.959 128.187 C 68.74 129.952 67.683 131.831 68.338 133.959 C 69.006 136.126 70.833 137.456 73.043 137.833 C 75.39 138.233 77.665 137.407 79.012 135.421 C 80.736 132.88 79.51 129.899 77.747 127.594 Z " fill="rgb(121,61,145)"/><path d=" M 62.864 135.326 C 63.308 131.353 54.827 127.276 52.38 127.957 C 50.854 128.382 49.783 129.565 49.222 131.073 C 48.269 133.633 49.839 136.021 51.874 137.642 C 54.336 139.602 57.584 139.704 60.254 138.063 C 61.399 137.359 62.715 136.666 62.864 135.326 Z " fill="rgb(121,61,145)"/><path d=" M 48.005 142.737 Q 48.975 143.098 51.983 143.699 C 54.234 144.149 56.199 143.587 58.48 143.459 C 60.957 143.32 63.039 143.005 65.519 142.917 C 67.632 142.842 69.425 142.751 71.535 142.917 C 73.196 143.048 74.559 143.539 76.227 143.579 C 77.371 143.606 78.332 143.361 79.476 143.398 C 80.562 143.434 81.459 143.706 82.544 143.759 C 84.025 143.833 85.28 143.721 86.755 143.579 C 88.181 143.441 89.384 143.271 90.786 142.977 Q 94.516 142.195 96.005 142.737 L 96.005 139.849 L 48.005 139.849 L 48.005 142.737 Z " fill="rgb(87,38,106)"/><path d=" M 91.798 131.093 C 93.155 131.341 94.17 132.16 94.827 133.364 C 96.157 135.801 94.333 138.25 92.339 139.854 C 90.841 141.058 88.835 142.937 87.219 141.332 C 86.033 140.154 86.835 138.523 87.183 137.041 C 87.808 134.386 88.597 130.507 91.798 131.093 Z " fill="rgb(121,61,145)"/><path d=" M 78.089 140.669 C 78.927 142.061 80.499 142.539 82.076 142.334 C 83.128 142.198 83.964 141.729 84.701 140.972 C 86.258 139.371 86.629 136.925 85.256 135.117 C 84.606 134.26 83.834 133.551 82.732 133.501 C 81.42 133.442 80.636 134.494 79.805 135.419 C 78.47 136.905 76.954 138.783 78.089 140.669 Z " fill="rgb(121,61,145)"/><path d=" M 73.229 138.935 C 74.738 139.617 77.88 139.711 76.94 141.773 C 76.216 143.363 74.289 142.369 72.836 142.21 C 70.076 141.908 64.283 142.084 66.155 138.411 C 67.596 135.586 70.911 137.887 73.229 138.935 Z " fill="rgb(121,61,145)"/><path d=" M 65.196 131.831 C 64.018 132.078 63.673 133.412 63.925 134.506 C 64.164 135.539 64.951 136.526 66.065 136.344 C 67.249 136.152 67.649 134.834 67.436 133.737 C 67.223 132.641 66.362 131.586 65.196 131.831 Z " fill="rgb(121,61,145)"/><path d=" M 65.032 139.382 C 64.707 137.661 62.594 138.435 61.237 138.718 C 60.164 138.942 58.891 139.059 58.548 140.205 C 57.889 142.409 61.042 142.258 62.628 141.786 C 63.821 141.431 65.292 140.763 65.032 139.382 Z " fill="rgb(121,61,145)"/><path d=" M 49.147 138.613 C 50.105 136.778 52.073 138.764 53.517 139.391 C 54.519 139.826 56.091 139.785 56.12 141.067 C 56.147 142.225 54.925 142.628 53.936 142.953 C 52.257 143.503 50.468 142.86 49.566 141.336 C 49.061 140.483 48.668 139.531 49.147 138.613 Z " fill="rgb(121,61,145)"/></g><g id="Group"><linearGradient id="_lgradient_4" x1="50%" y1="100%" x2="50.000000000000014%" y2="0%"><stop offset="0%" stop-opacity="1" style="stop-color:rgb(67,28,83)"/><stop offset="100%" stop-opacity="1" style="stop-color:rgb(87,38,106)"/></linearGradient><rect x="94" y="49.995" width="48" height="44" transform="matrix(0,1,-1,0,189.995,-46.005)" fill="url(#_lgradient_4)"/><path d=" M 107.135 63.679 Q 107.468 62.511 107.894 62.019 C 108.858 60.905 110.347 60.763 111.716 61.2 C 113.182 61.669 113.829 63.002 114.408 64.368 C 115.14 66.095 115.275 67.852 114.498 69.575 C 114.084 70.492 113.619 71.272 112.762 71.82 Q 112.172 72.196 110.897 72.462 Q 111.398 71.512 111.579 70.961 C 112.03 69.591 112.262 68.288 111.774 66.912 C 111.452 66.003 111.006 65.27 110.248 64.667 Q 109.33 63.936 107.135 63.679 Z " fill="rgb(87,38,106)"/><path d=" M 101.765 56.004 C 101.702 57.109 100.874 58.184 99.718 58.023 C 98.557 57.861 98.08 56.589 98.308 55.506 C 98.498 54.598 99.136 53.769 100.106 53.791 C 101.224 53.816 101.826 54.949 101.765 56.004 Z " fill="rgb(87,38,106)"/><path d=" M 101.119 75.153 C 101.622 75.287 101.86 75.809 101.783 76.309 C 101.695 76.879 101.178 77.345 100.598 77.205 C 100.011 77.063 99.765 76.397 99.963 75.846 C 100.136 75.364 100.608 75.017 101.119 75.153 Z " fill="rgb(87,38,106)"/><path d=" M 105.474 81.752 Q 106.629 81.014 107.349 81.07 C 108.759 81.181 109.183 82.661 109.531 83.9 C 109.96 85.426 109.66 86.917 108.679 88.162 Q 108.08 88.921 106.463 89.73 Q 106.811 87.815 106.804 86.764 C 106.796 85.723 106.735 84.829 106.429 83.832 Q 106.192 83.061 105.474 81.752 Z " fill="rgb(87,38,106)"/><path d=" M 113.719 48.835 C 111.791 49.861 111.4 52.024 111.375 54.109 C 111.343 56.889 112.214 60.1 115.185 60.605 C 116.808 60.881 118.259 60.315 119.483 59.237 C 121.073 57.837 121.494 55.835 121.241 53.767 C 120.987 51.699 120.136 49.804 118.213 48.883 C 116.742 48.18 115.173 48.061 113.719 48.835 Z " fill="rgb(87,38,106)"/><path d=" M 116.21 62.803 Q 118.513 61.177 119.971 61.386 C 121.584 61.618 122.591 62.823 123.341 64.219 C 124.224 65.862 124.12 67.587 123.585 69.347 C 122.966 71.382 122.132 73.717 119.824 73.889 Q 117.91 74.032 115.624 71.057 Q 116.269 68.227 116.357 66.661 Q 116.433 65.304 116.21 62.803 Z " fill="rgb(94,43,115)"/><path d=" M 111.252 77.937 C 109.919 80.152 110.973 82.801 112.967 84.299 C 114.074 85.131 115.296 85.653 116.673 85.35 C 119.638 84.697 119.923 81.012 118.72 78.546 C 117.991 77.052 116.827 75.835 115.124 75.725 C 113.468 75.617 112.096 76.535 111.252 77.937 Z " fill="rgb(87,38,106)"/><path d=" M 117.226 91.877 C 116.98 93.766 115.07 94.832 113.243 94.533 C 111.618 94.266 110.251 93.015 110.312 91.324 C 110.373 89.615 111.857 88.449 113.52 88.337 C 115.541 88.201 117.498 89.8 117.226 91.877 Z " fill="rgb(87,38,106)"/><path d=" M 122.26 75.116 C 119.698 76.677 120.025 79.807 120.048 82.584 C 120.069 85.213 119.396 88.537 122.15 89.665 C 125.254 90.936 127.092 87.423 128.677 85.018 C 130.234 82.655 131.873 79.972 130.392 77.329 C 128.78 74.452 125.091 73.392 122.26 75.116 Z " fill="rgb(109,51,132)"/><path d=" M 123.039 91.711 C 121.285 92.369 120.668 94.199 120.66 95.995 C 128.043 96.002 120.656 96.002 128.073 95.995 C 127.93 93.401 125.685 90.719 123.039 91.711 Z " fill="rgb(94,43,115)"/><path d=" M 120.66 48.011 C 120.651 50.191 121.666 52.564 123.979 52.799 C 126.564 53.062 128.208 50.45 128.073 48.011 C 120.702 48 128.107 48 120.66 48.011 Z " fill="rgb(94,43,115)"/><path d=" M 129.887 53.958 C 128.012 53.042 125.993 53.522 124.352 54.749 C 122.74 55.953 121.836 57.713 122.019 59.73 C 122.238 62.13 123.85 64.132 126.25 64.553 C 128.905 65.019 131.199 63.228 132.1 60.758 C 133.029 58.214 132.405 55.189 129.887 53.958 Z " fill="rgb(109,51,132)"/><path d=" M 127.594 66.253 C 126.309 67.235 124.942 68.195 124.866 69.89 C 124.775 71.927 126.628 72.965 128.187 74.041 C 129.952 75.26 131.831 76.317 133.959 75.662 C 136.126 74.994 137.456 73.167 137.833 70.957 C 138.233 68.61 137.407 66.335 135.421 64.988 C 132.88 63.264 129.899 64.49 127.594 66.253 Z " fill="rgb(121,61,145)"/><path d=" M 135.326 81.136 C 131.353 80.692 127.276 89.173 127.957 91.62 C 128.382 93.146 129.565 94.217 131.073 94.778 C 133.633 95.731 136.021 94.161 137.642 92.126 C 139.602 89.664 139.704 86.416 138.063 83.746 C 137.359 82.601 136.666 81.285 135.326 81.136 Z " fill="rgb(121,61,145)"/><path d=" M 142.737 95.995 Q 143.098 95.025 143.699 92.017 C 144.149 89.766 143.587 87.801 143.459 85.52 C 143.32 83.043 143.005 80.961 142.917 78.481 C 142.842 76.368 142.751 74.575 142.917 72.465 C 143.048 70.804 143.539 69.441 143.579 67.773 C 143.606 66.629 143.361 65.668 143.398 64.524 C 143.434 63.438 143.706 62.541 143.759 61.456 C 143.833 59.975 143.721 58.72 143.579 57.245 C 143.441 55.819 143.271 54.616 142.977 53.214 Q 142.195 49.484 142.737 47.995 L 139.849 47.995 L 139.849 95.995 L 142.737 95.995 Z " fill="rgb(87,38,106)"/><path d=" M 131.093 52.202 C 131.341 50.845 132.16 49.83 133.364 49.173 C 135.801 47.843 138.25 49.667 139.854 51.661 C 141.058 53.159 142.937 55.165 141.332 56.781 C 140.154 57.967 138.523 57.165 137.041 56.817 C 134.386 56.192 130.507 55.403 131.093 52.202 Z " fill="rgb(121,61,145)"/><path d=" M 140.669 65.911 C 142.061 65.073 142.539 63.501 142.334 61.924 C 142.198 60.872 141.729 60.036 140.972 59.299 C 139.371 57.742 136.925 57.371 135.117 58.744 C 134.26 59.394 133.551 60.166 133.501 61.268 C 133.442 62.58 134.494 63.364 135.419 64.195 C 136.905 65.53 138.783 67.046 140.669 65.911 Z " fill="rgb(121,61,145)"/><path d=" M 138.935 70.771 C 139.617 69.262 139.711 66.12 141.773 67.06 C 143.363 67.784 142.369 69.711 142.21 71.164 C 141.908 73.924 142.084 79.717 138.411 77.845 C 135.586 76.404 137.887 73.089 138.935 70.771 Z " fill="rgb(121,61,145)"/><path d=" M 131.831 78.804 C 132.078 79.982 133.412 80.327 134.506 80.075 C 135.539 79.836 136.526 79.049 136.344 77.935 C 136.152 76.751 134.834 76.351 133.737 76.564 C 132.641 76.777 131.586 77.638 131.831 78.804 Z " fill="rgb(121,61,145)"/><path d=" M 139.382 78.968 C 137.661 79.293 138.435 81.406 138.718 82.763 C 138.942 83.836 139.059 85.109 140.205 85.452 C 142.409 86.111 142.258 82.958 141.786 81.372 C 141.431 80.179 140.763 78.708 139.382 78.968 Z " fill="rgb(121,61,145)"/><path d=" M 138.613 94.853 C 136.778 93.895 138.764 91.927 139.391 90.483 C 139.826 89.481 139.785 87.909 141.067 87.88 C 142.225 87.853 142.628 89.075 142.953 90.064 C 143.503 91.743 142.86 93.532 141.336 94.434 C 140.483 94.939 139.531 95.332 138.613 94.853 Z " fill="rgb(121,61,145)"/></g></svg>